  0
SECTION
  2
HEADER
  9
$ACADVER
  1
AC1009
  9
$EXTMIN
 10
0.0
 20
0.0
 30
0.0
  9
$EXTMAX
 10
1000.0
 20
1000.0
 30
0.0
  9
$FILLMODE
 70
 0
  9
$SPLFRAME
 70
 1
  0
ENDSEC
  0
SECTION
  2
TABLES
  0
TABLE
  2
LAYER
 70
1
  0
LAYER
  2
0
 70
     0
 62
     7
  6
CONTINUOUS
  0
ENDTAB
  0
ENDSEC
  0
SECTION
  2
ENTITIES
  0
LINE
  8
0
 62
     0
 10
253.746
 20
88.452
 30
0.0
 11
254.215
 21
88.4343
 31
0.0
  0
LINE
  8
0
 62
     0
 10
254.215
 20
88.4343
 30
0.0
 11
254.685
 21
88.3789
 31
0.0
  0
LINE
  8
0
 62
     0
 10
254.685
 20
88.3789
 30
0.0
 11
255.147
 21
88.2869
 31
0.0
  0
LINE
  8
0
 62
     0
 10
255.147
 20
88.2869
 30
0.0
 11
255.6
 21
88.1585
 31
0.0
  0
LINE
  8
0
 62
     0
 10
255.6
 20
88.1585
 30
0.0
 11
256.042
 21
87.9962
 31
0.0
  0
LINE
  8
0
 62
     0
 10
256.042
 20
87.9962
 30
0.0
 11
256.469
 21
87.799
 31
0.0
  0
LINE
  8
0
 62
     0
 10
256.469
 20
87.799
 30
0.0
 11
256.88
 21
87.5676
 31
0.0
  0
LINE
  8
0
 62
     0
 10
256.88
 20
87.5676
 30
0.0
 11
257.273
 21
87.3069
 31
0.0
  0
LINE
  8
0
 62
     0
 10
257.273
 20
87.3069
 30
0.0
 11
257.642
 21
87.0148
 31
0.0
  0
LINE
  8
0
 62
     0
 10
257.642
 20
87.0148
 30
0.0
 11
257.988
 21
86.6951
 31
0.0
  0
LINE
  8
0
 62
     0
 10
257.988
 20
86.6951
 30
0.0
 11
258.309
 21
86.3494
 31
0.0
  0
LINE
  8
0
 62
     0
 10
258.309
 20
86.3494
 30
0.0
 11
258.6
 21
85.9786
 31
0.0
  0
LINE
  8
0
 62
     0
 10
258.6
 20
85.9786
 30
0.0
 11
258.862
 21
85.5871
 31
0.0
  0
LINE
  8
0
 62
     0
 10
258.862
 20
85.5871
 30
0.0
 11
259.092
 21
85.175
 31
0.0
  0
LINE
  8
0
 62
     0
 10
259.092
 20
85.175
 30
0.0
 11
259.289
 21
84.7492
 31
0.0
  0
LINE
  8
0
 62
     0
 10
259.289
 20
84.7492
 30
0.0
 11
259.453
 21
84.3068
 31
0.0
  0
LINE
  8
0
 62
     0
 10
259.453
 20
84.3068
 30
0.0
 11
259.581
 21
83.8521
 31
0.0
  0
LINE
  8
0
 62
     0
 10
259.581
 20
83.8521
 30
0.0
 11
259.672
 21
83.3907
 31
0.0
  0
LINE
  8
0
 62
     0
 10
259.672
 20
83.3907
 30
0.0
 11
259.727
 21
82.9222
 31
0.0
  0
LINE
  8
0
 62
     0
 10
259.727
 20
82.9222
 30
0.0
 11
259.746
 21
82.4523
 31
0.0
  0
LINE
  8
0
 62
     0
 10
259.746
 20
82.4523
 30
0.0
 11
259.746
 21
6.2508
 31
0.0
  0
LINE
  8
0
 62
     0
 10
259.746
 20
6.2508
 30
0.0
 11
259.727
 21
5.78086
 31
0.0
  0
LINE
  8
0
 62
     0
 10
259.727
 20
5.78086
 30
0.0
 11
259.672
 21
5.31234
 31
0.0
  0
LINE
  8
0
 62
     0
 10
259.672
 20
5.31234
 30
0.0
 11
259.581
 21
4.85069
 31
0.0
  0
LINE
  8
0
 62
     0
 10
259.581
 20
4.85069
 30
0.0
 11
259.453
 21
4.3973
 31
0.0
  0
LINE
  8
0
 62
     0
 10
259.453
 20
4.3973
 30
0.0
 11
259.289
 21
3.95496
 31
0.0
  0
LINE
  8
0
 62
     0
 10
259.289
 20
3.95496
 30
0.0
 11
259.092
 21
3.52778
 31
0.0
  0
LINE
  8
0
 62
     0
 10
259.092
 20
3.52778
 30
0.0
 11
258.862
 21
3.11712
 31
0.0
  0
LINE
  8
0
 62
     0
 10
258.862
 20
3.11712
 30
0.0
 11
258.6
 21
2.72438
 31
0.0
  0
LINE
  8
0
 62
     0
 10
258.6
 20
2.72438
 30
0.0
 11
258.309
 21
2.35507
 31
0.0
  0
LINE
  8
0
 62
     0
 10
258.309
 20
2.35507
 30
0.0
 11
257.988
 21
2.00918
 31
0.0
  0
LINE
  8
0
 62
     0
 10
257.988
 20
2.00918
 30
0.0
 11
257.642
 21
1.6881
 31
0.0
  0
LINE
  8
0
 62
     0
 10
257.642
 20
1.6881
 30
0.0
 11
257.273
 21
1.39733
 31
0.0
  0
LINE
  8
0
 62
     0
 10
257.273
 20
1.39733
 30
0.0
 11
256.88
 21
1.1355
 31
0.0
  0
LINE
  8
0
 62
     0
 10
256.88
 20
1.1355
 30
0.0
 11
256.469
 21
0.905372
 31
0.0
  0
LINE
  8
0
 62
     0
 10
256.469
 20
0.905372
 30
0.0
 11
256.042
 21
0.708311
 31
0.0
  0
LINE
  8
0
 62
     0
 10
256.042
 20
0.708311
 30
0.0
 11
255.6
 21
0.544326
 31
0.0
  0
LINE
  8
0
 62
     0
 10
255.6
 20
0.544326
 30
0.0
 11
255.147
 21
0.416168
 31
0.0
  0
LINE
  8
0
 62
     0
 10
255.147
 20
0.416168
 30
0.0
 11
254.685
 21
0.325217
 31
0.0
  0
LINE
  8
0
 62
     0
 10
254.685
 20
0.325217
 30
0.0
 11
254.215
 21
0.270095
 31
0.0
  0
LINE
  8
0
 62
     0
 10
254.215
 20
0.270095
 30
0.0
 11
253.746
 21
0.250803
 31
0.0
  0
LINE
  8
0
 62
     0
 10
253.746
 20
0.250803
 30
0.0
 11
6.09505
 21
0.250803
 31
0.0
  0
LINE
  8
0
 62
     0
 10
6.09505
 20
0.250803
 30
0.0
 11
5.62515
 21
0.270095
 31
0.0
  0
LINE
  8
0
 62
     0
 10
5.62515
 20
0.270095
 30
0.0
 11
5.15662
 21
0.325217
 31
0.0
  0
LINE
  8
0
 62
     0
 10
5.15662
 20
0.325217
 30
0.0
 11
4.69498
 21
0.416168
 31
0.0
  0
LINE
  8
0
 62
     0
 10
4.69498
 20
0.416168
 30
0.0
 11
4.24021
 21
0.544326
 31
0.0
  0
LINE
  8
0
 62
     0
 10
4.24021
 20
0.544326
 30
0.0
 11
3.79786
 21
0.708311
 31
0.0
  0
LINE
  8
0
 62
     0
 10
3.79786
 20
0.708311
 30
0.0
 11
3.37206
 21
0.905372
 31
0.0
  0
LINE
  8
0
 62
     0
 10
3.37206
 20
0.905372
 30
0.0
 11
2.96003
 21
1.1355
 31
0.0
  0
LINE
  8
0
 62
     0
 10
2.96003
 20
1.1355
 30
0.0
 11
2.56866
 21
1.39733
 31
0.0
  0
LINE
  8
0
 62
     0
 10
2.56866
 20
1.39733
 30
0.0
 11
2.19797
 21
1.6881
 31
0.0
  0
LINE
  8
0
 62
     0
 10
2.19797
 20
1.6881
 30
0.0
 11
1.85208
 21
2.00918
 31
0.0
  0
LINE
  8
0
 62
     0
 10
1.85208
 20
2.00918
 30
0.0
 11
1.53238
 21
2.35507
 31
0.0
  0
LINE
  8
0
 62
     0
 10
1.53238
 20
2.35507
 30
0.0
 11
1.24024
 21
2.72438
 31
0.0
  0
LINE
  8
0
 62
     0
 10
1.24024
 20
2.72438
 30
0.0
 11
0.979784
 21
3.11712
 31
0.0
  0
LINE
  8
0
 62
     0
 10
0.979784
 20
3.11712
 30
0.0
 11
0.748273
 21
3.52778
 31
0.0
  0
LINE
  8
0
 62
     0
 10
0.748273
 20
3.52778
 30
0.0
 11
0.551215
 21
3.95496
 31
0.0
  0
LINE
  8
0
 62
     0
 10
0.551215
 20
3.95496
 30
0.0
 11
0.388606
 21
4.3973
 31
0.0
  0
LINE
  8
0
 62
     0
 10
0.388606
 20
4.3973
 30
0.0
 11
0.260449
 21
4.85069
 31
0.0
  0
LINE
  8
0
 62
     0
 10
0.260449
 20
4.85069
 30
0.0
 11
0.168121
 21
5.31234
 31
0.0
  0
LINE
  8
0
 62
     0
 10
0.168121
 20
5.31234
 30
0.0
 11
0.112999
 21
5.78086
 31
0.0
  0
LINE
  8
0
 62
     0
 10
0.112999
 20
5.78086
 30
0.0
 11
0.0950846
 21
6.25217
 31
0.0
  0
LINE
  8
0
 62
     0
 10
0.0950846
 20
6.25217
 30
0.0
 11
0.0950846
 21
82.4523
 31
0.0
  0
LINE
  8
0
 62
     0
 10
0.0950846
 20
82.4523
 30
0.0
 11
0.112999
 21
82.9222
 31
0.0
  0
LINE
  8
0
 62
     0
 10
0.112999
 20
82.9222
 30
0.0
 11
0.168121
 21
83.3907
 31
0.0
  0
LINE
  8
0
 62
     0
 10
0.168121
 20
83.3907
 30
0.0
 11
0.260449
 21
83.8521
 31
0.0
  0
LINE
  8
0
 62
     0
 10
0.260449
 20
83.8521
 30
0.0
 11
0.388606
 21
84.3068
 31
0.0
  0
LINE
  8
0
 62
     0
 10
0.388606
 20
84.3068
 30
0.0
 11
0.551215
 21
84.7492
 31
0.0
  0
LINE
  8
0
 62
     0
 10
0.551215
 20
84.7492
 30
0.0
 11
0.748273
 21
85.175
 31
0.0
  0
LINE
  8
0
 62
     0
 10
0.748273
 20
85.175
 30
0.0
 11
0.979784
 21
85.5871
 31
0.0
  0
LINE
  8
0
 62
     0
 10
0.979784
 20
85.5871
 30
0.0
 11
1.24024
 21
85.9786
 31
0.0
  0
LINE
  8
0
 62
     0
 10
1.24024
 20
85.9786
 30
0.0
 11
1.53238
 21
86.3494
 31
0.0
  0
LINE
  8
0
 62
     0
 10
1.53238
 20
86.3494
 30
0.0
 11
1.85208
 21
86.6951
 31
0.0
  0
LINE
  8
0
 62
     0
 10
1.85208
 20
86.6951
 30
0.0
 11
2.19797
 21
87.0148
 31
0.0
  0
LINE
  8
0
 62
     0
 10
2.19797
 20
87.0148
 30
0.0
 11
2.56866
 21
87.3069
 31
0.0
  0
LINE
  8
0
 62
     0
 10
2.56866
 20
87.3069
 30
0.0
 11
2.96003
 21
87.5676
 31
0.0
  0
LINE
  8
0
 62
     0
 10
2.96003
 20
87.5676
 30
0.0
 11
3.37206
 21
87.799
 31
0.0
  0
LINE
  8
0
 62
     0
 10
3.37206
 20
87.799
 30
0.0
 11
3.79786
 21
87.9962
 31
0.0
  0
LINE
  8
0
 62
     0
 10
3.79786
 20
87.9962
 30
0.0
 11
4.24021
 21
88.1585
 31
0.0
  0
LINE
  8
0
 62
     0
 10
4.24021
 20
88.1585
 30
0.0
 11
4.69498
 21
88.2869
 31
0.0
  0
LINE
  8
0
 62
     0
 10
4.69498
 20
88.2869
 30
0.0
 11
5.15662
 21
88.3789
 31
0.0
  0
LINE
  8
0
 62
     0
 10
5.15662
 20
88.3789
 30
0.0
 11
5.62515
 21
88.4343
 31
0.0
  0
LINE
  8
0
 62
     0
 10
5.62515
 20
88.4343
 30
0.0
 11
6.09505
 21
88.452
 31
0.0
  0
LINE
  8
0
 62
     0
 10
6.09505
 20
88.452
 30
0.0
 11
253.746
 21
88.452
 31
0.0
  0
LINE
  8
0
 62
     0
 10
2.78501
 20
4.20303
 30
0.0
 11
2.50803
 21
4.06107
 31
0.0
  0
LINE
  8
0
 62
     0
 10
2.50803
 20
4.06107
 30
0.0
 11
2.28617
 21
3.83921
 31
0.0
  0
LINE
  8
0
 62
     0
 10
2.28617
 20
3.83921
 30
0.0
 11
2.14285
 21
3.56087
 31
0.0
  0
LINE
  8
0
 62
     0
 10
2.14285
 20
3.56087
 30
0.0
 11
2.09462
 21
3.25079
 31
0.0
  0
LINE
  8
0
 62
     0
 10
2.09462
 20
3.25079
 30
0.0
 11
2.14285
 21
2.94211
 31
0.0
  0
LINE
  8
0
 62
     0
 10
2.14285
 20
2.94211
 30
0.0
 11
2.28617
 21
2.66375
 31
0.0
  0
LINE
  8
0
 62
     0
 10
2.28617
 20
2.66375
 30
0.0
 11
2.50803
 21
2.44189
 31
0.0
  0
LINE
  8
0
 62
     0
 10
2.50803
 20
2.44189
 30
0.0
 11
2.78501
 21
2.29995
 31
0.0
  0
LINE
  8
0
 62
     0
 10
2.78501
 20
2.29995
 30
0.0
 11
3.09507
 21
2.25034
 31
0.0
  0
LINE
  8
0
 62
     0
 10
3.09507
 20
2.25034
 30
0.0
 11
3.40513
 21
2.29995
 31
0.0
  0
LINE
  8
0
 62
     0
 10
3.40513
 20
2.29995
 30
0.0
 11
3.68212
 21
2.44189
 31
0.0
  0
LINE
  8
0
 62
     0
 10
3.68212
 20
2.44189
 30
0.0
 11
3.90398
 21
2.66375
 31
0.0
  0
LINE
  8
0
 62
     0
 10
3.90398
 20
2.66375
 30
0.0
 11
4.04594
 21
2.94211
 31
0.0
  0
LINE
  8
0
 62
     0
 10
4.04594
 20
2.94211
 30
0.0
 11
4.09554
 21
3.25079
 31
0.0
  0
LINE
  8
0
 62
     0
 10
4.09554
 20
3.25079
 30
0.0
 11
4.04594
 21
3.56087
 31
0.0
  0
LINE
  8
0
 62
     0
 10
4.04594
 20
3.56087
 30
0.0
 11
3.90398
 21
3.83921
 31
0.0
  0
LINE
  8
0
 62
     0
 10
3.90398
 20
3.83921
 30
0.0
 11
3.68212
 21
4.06107
 31
0.0
  0
LINE
  8
0
 62
     0
 10
3.68212
 20
4.06107
 30
0.0
 11
3.40513
 21
4.20303
 31
0.0
  0
LINE
  8
0
 62
     0
 10
3.40513
 20
4.20303
 30
0.0
 11
3.09507
 21
4.25125
 31
0.0
  0
LINE
  8
0
 62
     0
 10
3.09507
 20
4.25125
 30
0.0
 11
2.78501
 21
4.20303
 31
0.0
  0
LINE
  8
0
 62
     0
 10
129.611
 20
4.20303
 30
0.0
 11
129.333
 21
4.06107
 31
0.0
  0
LINE
  8
0
 62
     0
 10
129.333
 20
4.06107
 30
0.0
 11
129.111
 21
3.83921
 31
0.0
  0
LINE
  8
0
 62
     0
 10
129.111
 20
3.83921
 30
0.0
 11
128.969
 21
3.56087
 31
0.0
  0
LINE
  8
0
 62
     0
 10
128.969
 20
3.56087
 30
0.0
 11
128.921
 21
3.25079
 31
0.0
  0
LINE
  8
0
 62
     0
 10
128.921
 20
3.25079
 30
0.0
 11
128.969
 21
2.94211
 31
0.0
  0
LINE
  8
0
 62
     0
 10
128.969
 20
2.94211
 30
0.0
 11
129.111
 21
2.66375
 31
0.0
  0
LINE
  8
0
 62
     0
 10
129.111
 20
2.66375
 30
0.0
 11
129.333
 21
2.44189
 31
0.0
  0
LINE
  8
0
 62
     0
 10
129.333
 20
2.44189
 30
0.0
 11
129.611
 21
2.29995
 31
0.0
  0
LINE
  8
0
 62
     0
 10
129.611
 20
2.29995
 30
0.0
 11
129.92
 21
2.25034
 31
0.0
  0
LINE
  8
0
 62
     0
 10
129.92
 20
2.25034
 30
0.0
 11
130.23
 21
2.29995
 31
0.0
  0
LINE
  8
0
 62
     0
 10
130.23
 20
2.29995
 30
0.0
 11
130.508
 21
2.44189
 31
0.0
  0
LINE
  8
0
 62
     0
 10
130.508
 20
2.44189
 30
0.0
 11
130.729
 21
2.66375
 31
0.0
  0
LINE
  8
0
 62
     0
 10
130.729
 20
2.66375
 30
0.0
 11
130.871
 21
2.94211
 31
0.0
  0
LINE
  8
0
 62
     0
 10
130.871
 20
2.94211
 30
0.0
 11
130.92
 21
3.25079
 31
0.0
  0
LINE
  8
0
 62
     0
 10
130.92
 20
3.25079
 30
0.0
 11
130.871
 21
3.56087
 31
0.0
  0
LINE
  8
0
 62
     0
 10
130.871
 20
3.56087
 30
0.0
 11
130.729
 21
3.83921
 31
0.0
  0
LINE
  8
0
 62
     0
 10
130.729
 20
3.83921
 30
0.0
 11
130.508
 21
4.06107
 31
0.0
  0
LINE
  8
0
 62
     0
 10
130.508
 20
4.06107
 30
0.0
 11
130.23
 21
4.20303
 31
0.0
  0
LINE
  8
0
 62
     0
 10
130.23
 20
4.20303
 30
0.0
 11
129.92
 21
4.25125
 31
0.0
  0
LINE
  8
0
 62
     0
 10
129.92
 20
4.25125
 30
0.0
 11
129.611
 21
4.20303
 31
0.0
  0
LINE
  8
0
 62
     0
 10
256.436
 20
4.20303
 30
0.0
 11
256.158
 21
4.06107
 31
0.0
  0
LINE
  8
0
 62
     0
 10
256.158
 20
4.06107
 30
0.0
 11
255.936
 21
3.83921
 31
0.0
  0
LINE
  8
0
 62
     0
 10
255.936
 20
3.83921
 30
0.0
 11
255.794
 21
3.56087
 31
0.0
  0
LINE
  8
0
 62
     0
 10
255.794
 20
3.56087
 30
0.0
 11
255.746
 21
3.25079
 31
0.0
  0
LINE
  8
0
 62
     0
 10
255.746
 20
3.25079
 30
0.0
 11
255.794
 21
2.94211
 31
0.0
  0
LINE
  8
0
 62
     0
 10
255.794
 20
2.94211
 30
0.0
 11
255.936
 21
2.66375
 31
0.0
  0
LINE
  8
0
 62
     0
 10
255.936
 20
2.66375
 30
0.0
 11
256.158
 21
2.44189
 31
0.0
  0
LINE
  8
0
 62
     0
 10
256.158
 20
2.44189
 30
0.0
 11
256.436
 21
2.29995
 31
0.0
  0
LINE
  8
0
 62
     0
 10
256.436
 20
2.29995
 30
0.0
 11
256.746
 21
2.25034
 31
0.0
  0
LINE
  8
0
 62
     0
 10
256.746
 20
2.25034
 30
0.0
 11
257.055
 21
2.29995
 31
0.0
  0
LINE
  8
0
 62
     0
 10
257.055
 20
2.29995
 30
0.0
 11
257.333
 21
2.44189
 31
0.0
  0
LINE
  8
0
 62
     0
 10
257.333
 20
2.44189
 30
0.0
 11
257.555
 21
2.66375
 31
0.0
  0
LINE
  8
0
 62
     0
 10
257.555
 20
2.66375
 30
0.0
 11
257.697
 21
2.94211
 31
0.0
  0
LINE
  8
0
 62
     0
 10
257.697
 20
2.94211
 30
0.0
 11
257.747
 21
3.25079
 31
0.0
  0
LINE
  8
0
 62
     0
 10
257.747
 20
3.25079
 30
0.0
 11
257.697
 21
3.56087
 31
0.0
  0
LINE
  8
0
 62
     0
 10
257.697
 20
3.56087
 30
0.0
 11
257.555
 21
3.83921
 31
0.0
  0
LINE
  8
0
 62
     0
 10
257.555
 20
3.83921
 30
0.0
 11
257.333
 21
4.06107
 31
0.0
  0
LINE
  8
0
 62
     0
 10
257.333
 20
4.06107
 30
0.0
 11
257.055
 21
4.20303
 31
0.0
  0
LINE
  8
0
 62
     0
 10
257.055
 20
4.20303
 30
0.0
 11
256.746
 21
4.25125
 31
0.0
  0
LINE
  8
0
 62
     0
 10
256.746
 20
4.25125
 30
0.0
 11
256.436
 21
4.20303
 31
0.0
  0
LINE
  8
0
 62
     0
 10
144.351
 20
22.7762
 30
0.0
 11
144.351
 21
21.7771
 31
0.0
  0
LINE
  8
0
 62
     0
 10
144.351
 20
21.7771
 30
0.0
 11
143.552
 21
21.7771
 31
0.0
  0
LINE
  8
0
 62
     0
 10
143.552
 20
21.7771
 30
0.0
 11
143.552
 21
18.6779
 31
0.0
  0
LINE
  8
0
 62
     0
 10
143.552
 20
18.6779
 30
0.0
 11
144.351
 21
18.6779
 31
0.0
  0
LINE
  8
0
 62
     0
 10
144.351
 20
18.6779
 30
0.0
 11
144.351
 21
18.0771
 31
0.0
  0
LINE
  8
0
 62
     0
 10
144.351
 20
18.0771
 30
0.0
 11
142.827
 21
18.0771
 31
0.0
  0
LINE
  8
0
 62
     0
 10
142.827
 20
18.0771
 30
0.0
 11
142.827
 21
21.3072
 31
0.0
  0
LINE
  8
0
 62
     0
 10
142.827
 20
21.3072
 30
0.0
 11
136.077
 21
21.3072
 31
0.0
  0
LINE
  8
0
 62
     0
 10
136.077
 20
21.3072
 30
0.0
 11
136.077
 21
18.0771
 31
0.0
  0
LINE
  8
0
 62
     0
 10
136.077
 20
18.0771
 30
0.0
 11
135.252
 21
18.0771
 31
0.0
  0
LINE
  8
0
 62
     0
 10
135.252
 20
18.0771
 30
0.0
 11
135.252
 21
15.2769
 31
0.0
  0
LINE
  8
0
 62
     0
 10
135.252
 20
15.2769
 30
0.0
 11
136.077
 21
15.2769
 31
0.0
  0
LINE
  8
0
 62
     0
 10
136.077
 20
15.2769
 30
0.0
 11
136.077
 21
9.00688
 31
0.0
  0
LINE
  8
0
 62
     0
 10
136.077
 20
9.00688
 30
0.0
 11
137.801
 21
9.00688
 31
0.0
  0
LINE
  8
0
 62
     0
 10
137.801
 20
9.00688
 30
0.0
 11
137.801
 21
7.80658
 31
0.0
  0
LINE
  8
0
 62
     0
 10
137.801
 20
7.80658
 30
0.0
 11
141.102
 21
7.80658
 31
0.0
  0
LINE
  8
0
 62
     0
 10
141.102
 20
7.80658
 30
0.0
 11
141.102
 21
9.00688
 31
0.0
  0
LINE
  8
0
 62
     0
 10
141.102
 20
9.00688
 30
0.0
 11
142.827
 21
9.00688
 31
0.0
  0
LINE
  8
0
 62
     0
 10
142.827
 20
9.00688
 30
0.0
 11
142.827
 21
13.4772
 31
0.0
  0
LINE
  8
0
 62
     0
 10
142.827
 20
13.4772
 30
0.0
 11
144.351
 21
13.4772
 31
0.0
  0
LINE
  8
0
 62
     0
 10
144.351
 20
13.4772
 30
0.0
 11
144.351
 21
12.8764
 31
0.0
  0
LINE
  8
0
 62
     0
 10
144.351
 20
12.8764
 30
0.0
 11
143.552
 21
12.8764
 31
0.0
  0
LINE
  8
0
 62
     0
 10
143.552
 20
12.8764
 30
0.0
 11
143.552
 21
9.77717
 31
0.0
  0
LINE
  8
0
 62
     0
 10
143.552
 20
9.77717
 30
0.0
 11
144.351
 21
9.77717
 31
0.0
  0
LINE
  8
0
 62
     0
 10
144.351
 20
9.77717
 30
0.0
 11
144.351
 21
8.77672
 31
0.0
  0
LINE
  8
0
 62
     0
 10
144.351
 20
8.77672
 30
0.0
 11
158.352
 21
8.77672
 31
0.0
  0
LINE
  8
0
 62
     0
 10
158.352
 20
8.77672
 30
0.0
 11
158.352
 21
9.77717
 31
0.0
  0
LINE
  8
0
 62
     0
 10
158.352
 20
9.77717
 30
0.0
 11
159.151
 21
9.77717
 31
0.0
  0
LINE
  8
0
 62
     0
 10
159.151
 20
9.77717
 30
0.0
 11
159.151
 21
12.8764
 31
0.0
  0
LINE
  8
0
 62
     0
 10
159.151
 20
12.8764
 30
0.0
 11
158.352
 21
12.8764
 31
0.0
  0
LINE
  8
0
 62
     0
 10
158.352
 20
12.8764
 30
0.0
 11
158.352
 21
13.4772
 31
0.0
  0
LINE
  8
0
 62
     0
 10
158.352
 20
13.4772
 30
0.0
 11
159.876
 21
13.4772
 31
0.0
  0
LINE
  8
0
 62
     0
 10
159.876
 20
13.4772
 30
0.0
 11
159.876
 21
9.00688
 31
0.0
  0
LINE
  8
0
 62
     0
 10
159.876
 20
9.00688
 30
0.0
 11
161.601
 21
9.00688
 31
0.0
  0
LINE
  8
0
 62
     0
 10
161.601
 20
9.00688
 30
0.0
 11
161.601
 21
7.80658
 31
0.0
  0
LINE
  8
0
 62
     0
 10
161.601
 20
7.80658
 30
0.0
 11
164.902
 21
7.80658
 31
0.0
  0
LINE
  8
0
 62
     0
 10
164.902
 20
7.80658
 30
0.0
 11
164.902
 21
9.00688
 31
0.0
  0
LINE
  8
0
 62
     0
 10
164.902
 20
9.00688
 30
0.0
 11
166.627
 21
9.00688
 31
0.0
  0
LINE
  8
0
 62
     0
 10
166.627
 20
9.00688
 30
0.0
 11
166.627
 21
15.2769
 31
0.0
  0
LINE
  8
0
 62
     0
 10
166.627
 20
15.2769
 30
0.0
 11
167.451
 21
15.2769
 31
0.0
  0
LINE
  8
0
 62
     0
 10
167.451
 20
15.2769
 30
0.0
 11
167.451
 21
18.0771
 31
0.0
  0
LINE
  8
0
 62
     0
 10
167.451
 20
18.0771
 30
0.0
 11
166.627
 21
18.0771
 31
0.0
  0
LINE
  8
0
 62
     0
 10
166.627
 20
18.0771
 30
0.0
 11
166.627
 21
21.3072
 31
0.0
  0
LINE
  8
0
 62
     0
 10
166.627
 20
21.3072
 30
0.0
 11
159.876
 21
21.3072
 31
0.0
  0
LINE
  8
0
 62
     0
 10
159.876
 20
21.3072
 30
0.0
 11
159.876
 21
18.0771
 31
0.0
  0
LINE
  8
0
 62
     0
 10
159.876
 20
18.0771
 30
0.0
 11
158.352
 21
18.0771
 31
0.0
  0
LINE
  8
0
 62
     0
 10
158.352
 20
18.0771
 30
0.0
 11
158.352
 21
18.6779
 31
0.0
  0
LINE
  8
0
 62
     0
 10
158.352
 20
18.6779
 30
0.0
 11
159.151
 21
18.6779
 31
0.0
  0
LINE
  8
0
 62
     0
 10
159.151
 20
18.6779
 30
0.0
 11
159.151
 21
21.7771
 31
0.0
  0
LINE
  8
0
 62
     0
 10
159.151
 20
21.7771
 30
0.0
 11
158.352
 21
21.7771
 31
0.0
  0
LINE
  8
0
 62
     0
 10
158.352
 20
21.7771
 30
0.0
 11
158.352
 21
22.7762
 31
0.0
  0
LINE
  8
0
 62
     0
 10
158.352
 20
22.7762
 30
0.0
 11
144.351
 21
22.7762
 31
0.0
  0
LINE
  8
0
 62
     0
 10
96.726
 20
22.7762
 30
0.0
 11
96.726
 21
21.7771
 31
0.0
  0
LINE
  8
0
 62
     0
 10
96.726
 20
21.7771
 30
0.0
 11
95.9266
 21
21.7771
 31
0.0
  0
LINE
  8
0
 62
     0
 10
95.9266
 20
21.7771
 30
0.0
 11
95.9266
 21
18.6779
 31
0.0
  0
LINE
  8
0
 62
     0
 10
95.9266
 20
18.6779
 30
0.0
 11
96.726
 21
18.6779
 31
0.0
  0
LINE
  8
0
 62
     0
 10
96.726
 20
18.6779
 30
0.0
 11
96.726
 21
18.0771
 31
0.0
  0
LINE
  8
0
 62
     0
 10
96.726
 20
18.0771
 30
0.0
 11
95.2017
 21
18.0771
 31
0.0
  0
LINE
  8
0
 62
     0
 10
95.2017
 20
18.0771
 30
0.0
 11
95.2017
 21
21.3072
 31
0.0
  0
LINE
  8
0
 62
     0
 10
95.2017
 20
21.3072
 30
0.0
 11
88.452
 21
21.3072
 31
0.0
  0
LINE
  8
0
 62
     0
 10
88.452
 20
21.3072
 30
0.0
 11
88.452
 21
18.0771
 31
0.0
  0
LINE
  8
0
 62
     0
 10
88.452
 20
18.0771
 30
0.0
 11
87.6268
 21
18.0771
 31
0.0
  0
LINE
  8
0
 62
     0
 10
87.6268
 20
18.0771
 30
0.0
 11
87.6268
 21
15.2769
 31
0.0
  0
LINE
  8
0
 62
     0
 10
87.6268
 20
15.2769
 30
0.0
 11
88.452
 21
15.2769
 31
0.0
  0
LINE
  8
0
 62
     0
 10
88.452
 20
15.2769
 30
0.0
 11
88.452
 21
9.00688
 31
0.0
  0
LINE
  8
0
 62
     0
 10
88.452
 20
9.00688
 30
0.0
 11
90.176
 21
9.00688
 31
0.0
  0
LINE
  8
0
 62
     0
 10
90.176
 20
9.00688
 30
0.0
 11
90.176
 21
7.80658
 31
0.0
  0
LINE
  8
0
 62
     0
 10
90.176
 20
7.80658
 30
0.0
 11
93.4766
 21
7.80658
 31
0.0
  0
LINE
  8
0
 62
     0
 10
93.4766
 20
7.80658
 30
0.0
 11
93.4766
 21
9.00688
 31
0.0
  0
LINE
  8
0
 62
     0
 10
93.4766
 20
9.00688
 30
0.0
 11
95.2017
 21
9.00688
 31
0.0
  0
LINE
  8
0
 62
     0
 10
95.2017
 20
9.00688
 30
0.0
 11
95.2017
 21
13.4772
 31
0.0
  0
LINE
  8
0
 62
     0
 10
95.2017
 20
13.4772
 30
0.0
 11
96.726
 21
13.4772
 31
0.0
  0
LINE
  8
0
 62
     0
 10
96.726
 20
13.4772
 30
0.0
 11
96.726
 21
12.8764
 31
0.0
  0
LINE
  8
0
 62
     0
 10
96.726
 20
12.8764
 30
0.0
 11
95.9266
 21
12.8764
 31
0.0
  0
LINE
  8
0
 62
     0
 10
95.9266
 20
12.8764
 30
0.0
 11
95.9266
 21
9.77717
 31
0.0
  0
LINE
  8
0
 62
     0
 10
95.9266
 20
9.77717
 30
0.0
 11
96.726
 21
9.77717
 31
0.0
  0
LINE
  8
0
 62
     0
 10
96.726
 20
9.77717
 30
0.0
 11
96.726
 21
8.77672
 31
0.0
  0
LINE
  8
0
 62
     0
 10
96.726
 20
8.77672
 30
0.0
 11
110.727
 21
8.77672
 31
0.0
  0
LINE
  8
0
 62
     0
 10
110.727
 20
8.77672
 30
0.0
 11
110.727
 21
9.77717
 31
0.0
  0
LINE
  8
0
 62
     0
 10
110.727
 20
9.77717
 30
0.0
 11
111.526
 21
9.77717
 31
0.0
  0
LINE
  8
0
 62
     0
 10
111.526
 20
9.77717
 30
0.0
 11
111.526
 21
12.8764
 31
0.0
  0
LINE
  8
0
 62
     0
 10
111.526
 20
12.8764
 30
0.0
 11
110.727
 21
12.8764
 31
0.0
  0
LINE
  8
0
 62
     0
 10
110.727
 20
12.8764
 30
0.0
 11
110.727
 21
13.4772
 31
0.0
  0
LINE
  8
0
 62
     0
 10
110.727
 20
13.4772
 30
0.0
 11
112.251
 21
13.4772
 31
0.0
  0
LINE
  8
0
 62
     0
 10
112.251
 20
13.4772
 30
0.0
 11
112.251
 21
9.00688
 31
0.0
  0
LINE
  8
0
 62
     0
 10
112.251
 20
9.00688
 30
0.0
 11
113.976
 21
9.00688
 31
0.0
  0
LINE
  8
0
 62
     0
 10
113.976
 20
9.00688
 30
0.0
 11
113.976
 21
7.80658
 31
0.0
  0
LINE
  8
0
 62
     0
 10
113.976
 20
7.80658
 30
0.0
 11
117.277
 21
7.80658
 31
0.0
  0
LINE
  8
0
 62
     0
 10
117.277
 20
7.80658
 30
0.0
 11
117.277
 21
9.00688
 31
0.0
  0
LINE
  8
0
 62
     0
 10
117.277
 20
9.00688
 30
0.0
 11
119.002
 21
9.00688
 31
0.0
  0
LINE
  8
0
 62
     0
 10
119.002
 20
9.00688
 30
0.0
 11
119.002
 21
15.2769
 31
0.0
  0
LINE
  8
0
 62
     0
 10
119.002
 20
15.2769
 30
0.0
 11
119.826
 21
15.2769
 31
0.0
  0
LINE
  8
0
 62
     0
 10
119.826
 20
15.2769
 30
0.0
 11
119.826
 21
18.0771
 31
0.0
  0
LINE
  8
0
 62
     0
 10
119.826
 20
18.0771
 30
0.0
 11
119.002
 21
18.0771
 31
0.0
  0
LINE
  8
0
 62
     0
 10
119.002
 20
18.0771
 30
0.0
 11
119.002
 21
21.3072
 31
0.0
  0
LINE
  8
0
 62
     0
 10
119.002
 20
21.3072
 30
0.0
 11
112.251
 21
21.3072
 31
0.0
  0
LINE
  8
0
 62
     0
 10
112.251
 20
21.3072
 30
0.0
 11
112.251
 21
18.0771
 31
0.0
  0
LINE
  8
0
 62
     0
 10
112.251
 20
18.0771
 30
0.0
 11
110.727
 21
18.0771
 31
0.0
  0
LINE
  8
0
 62
     0
 10
110.727
 20
18.0771
 30
0.0
 11
110.727
 21
18.6779
 31
0.0
  0
LINE
  8
0
 62
     0
 10
110.727
 20
18.6779
 30
0.0
 11
111.526
 21
18.6779
 31
0.0
  0
LINE
  8
0
 62
     0
 10
111.526
 20
18.6779
 30
0.0
 11
111.526
 21
21.7771
 31
0.0
  0
LINE
  8
0
 62
     0
 10
111.526
 20
21.7771
 30
0.0
 11
110.727
 21
21.7771
 31
0.0
  0
LINE
  8
0
 62
     0
 10
110.727
 20
21.7771
 30
0.0
 11
110.727
 21
22.7762
 31
0.0
  0
LINE
  8
0
 62
     0
 10
110.727
 20
22.7762
 30
0.0
 11
96.726
 21
22.7762
 31
0.0
  0
LINE
  8
0
 62
     0
 10
222.932
 20
22.7762
 30
0.0
 11
222.932
 21
21.7771
 31
0.0
  0
LINE
  8
0
 62
     0
 10
222.932
 20
21.7771
 30
0.0
 11
222.133
 21
21.7771
 31
0.0
  0
LINE
  8
0
 62
     0
 10
222.133
 20
21.7771
 30
0.0
 11
222.133
 21
18.6779
 31
0.0
  0
LINE
  8
0
 62
     0
 10
222.133
 20
18.6779
 30
0.0
 11
222.932
 21
18.6779
 31
0.0
  0
LINE
  8
0
 62
     0
 10
222.932
 20
18.6779
 30
0.0
 11
222.932
 21
12.8764
 31
0.0
  0
LINE
  8
0
 62
     0
 10
222.932
 20
12.8764
 30
0.0
 11
222.133
 21
12.8764
 31
0.0
  0
LINE
  8
0
 62
     0
 10
222.133
 20
12.8764
 30
0.0
 11
222.133
 21
9.77717
 31
0.0
  0
LINE
  8
0
 62
     0
 10
222.133
 20
9.77717
 30
0.0
 11
222.932
 21
9.77717
 31
0.0
  0
LINE
  8
0
 62
     0
 10
222.932
 20
9.77717
 30
0.0
 11
222.932
 21
8.77672
 31
0.0
  0
LINE
  8
0
 62
     0
 10
222.932
 20
8.77672
 30
0.0
 11
236.933
 21
8.77672
 31
0.0
  0
LINE
  8
0
 62
     0
 10
236.933
 20
8.77672
 30
0.0
 11
236.933
 21
9.77717
 31
0.0
  0
LINE
  8
0
 62
     0
 10
236.933
 20
9.77717
 30
0.0
 11
237.732
 21
9.77717
 31
0.0
  0
LINE
  8
0
 62
     0
 10
237.732
 20
9.77717
 30
0.0
 11
237.732
 21
12.8764
 31
0.0
  0
LINE
  8
0
 62
     0
 10
237.732
 20
12.8764
 30
0.0
 11
236.933
 21
12.8764
 31
0.0
  0
LINE
  8
0
 62
     0
 10
236.933
 20
12.8764
 30
0.0
 11
236.933
 21
18.6779
 31
0.0
  0
LINE
  8
0
 62
     0
 10
236.933
 20
18.6779
 30
0.0
 11
237.732
 21
18.6779
 31
0.0
  0
LINE
  8
0
 62
     0
 10
237.732
 20
18.6779
 30
0.0
 11
237.732
 21
21.7771
 31
0.0
  0
LINE
  8
0
 62
     0
 10
237.732
 20
21.7771
 30
0.0
 11
236.933
 21
21.7771
 31
0.0
  0
LINE
  8
0
 62
     0
 10
236.933
 20
21.7771
 30
0.0
 11
236.933
 21
22.7762
 31
0.0
  0
LINE
  8
0
 62
     0
 10
236.933
 20
22.7762
 30
0.0
 11
222.932
 21
22.7762
 31
0.0
  0
LINE
  8
0
 62
     0
 10
201.501
 20
22.7762
 30
0.0
 11
201.501
 21
21.7771
 31
0.0
  0
LINE
  8
0
 62
     0
 10
201.501
 20
21.7771
 30
0.0
 11
200.702
 21
21.7771
 31
0.0
  0
LINE
  8
0
 62
     0
 10
200.702
 20
21.7771
 30
0.0
 11
200.702
 21
18.6779
 31
0.0
  0
LINE
  8
0
 62
     0
 10
200.702
 20
18.6779
 30
0.0
 11
201.501
 21
18.6779
 31
0.0
  0
LINE
  8
0
 62
     0
 10
201.501
 20
18.6779
 30
0.0
 11
201.501
 21
12.8764
 31
0.0
  0
LINE
  8
0
 62
     0
 10
201.501
 20
12.8764
 30
0.0
 11
200.702
 21
12.8764
 31
0.0
  0
LINE
  8
0
 62
     0
 10
200.702
 20
12.8764
 30
0.0
 11
200.702
 21
9.77717
 31
0.0
  0
LINE
  8
0
 62
     0
 10
200.702
 20
9.77717
 30
0.0
 11
201.501
 21
9.77717
 31
0.0
  0
LINE
  8
0
 62
     0
 10
201.501
 20
9.77717
 30
0.0
 11
201.501
 21
8.77672
 31
0.0
  0
LINE
  8
0
 62
     0
 10
201.501
 20
8.77672
 30
0.0
 11
215.502
 21
8.77672
 31
0.0
  0
LINE
  8
0
 62
     0
 10
215.502
 20
8.77672
 30
0.0
 11
215.502
 21
9.77717
 31
0.0
  0
LINE
  8
0
 62
     0
 10
215.502
 20
9.77717
 30
0.0
 11
216.301
 21
9.77717
 31
0.0
  0
LINE
  8
0
 62
     0
 10
216.301
 20
9.77717
 30
0.0
 11
216.301
 21
12.8764
 31
0.0
  0
LINE
  8
0
 62
     0
 10
216.301
 20
12.8764
 30
0.0
 11
215.502
 21
12.8764
 31
0.0
  0
LINE
  8
0
 62
     0
 10
215.502
 20
12.8764
 30
0.0
 11
215.502
 21
18.6779
 31
0.0
  0
LINE
  8
0
 62
     0
 10
215.502
 20
18.6779
 30
0.0
 11
216.301
 21
18.6779
 31
0.0
  0
LINE
  8
0
 62
     0
 10
216.301
 20
18.6779
 30
0.0
 11
216.301
 21
21.7771
 31
0.0
  0
LINE
  8
0
 62
     0
 10
216.301
 20
21.7771
 30
0.0
 11
215.502
 21
21.7771
 31
0.0
  0
LINE
  8
0
 62
     0
 10
215.502
 20
21.7771
 30
0.0
 11
215.502
 21
22.7762
 31
0.0
  0
LINE
  8
0
 62
     0
 10
215.502
 20
22.7762
 30
0.0
 11
201.501
 21
22.7762
 31
0.0
  0
LINE
  8
0
 62
     0
 10
180.071
 20
22.7762
 30
0.0
 11
180.071
 21
21.7771
 31
0.0
  0
LINE
  8
0
 62
     0
 10
180.071
 20
21.7771
 30
0.0
 11
179.269
 21
21.7771
 31
0.0
  0
LINE
  8
0
 62
     0
 10
179.269
 20
21.7771
 30
0.0
 11
179.269
 21
18.6779
 31
0.0
  0
LINE
  8
0
 62
     0
 10
179.269
 20
18.6779
 30
0.0
 11
180.071
 21
18.6779
 31
0.0
  0
LINE
  8
0
 62
     0
 10
180.071
 20
18.6779
 30
0.0
 11
180.071
 21
12.8764
 31
0.0
  0
LINE
  8
0
 62
     0
 10
180.071
 20
12.8764
 30
0.0
 11
179.269
 21
12.8764
 31
0.0
  0
LINE
  8
0
 62
     0
 10
179.269
 20
12.8764
 30
0.0
 11
179.269
 21
9.77717
 31
0.0
  0
LINE
  8
0
 62
     0
 10
179.269
 20
9.77717
 30
0.0
 11
180.071
 21
9.77717
 31
0.0
  0
LINE
  8
0
 62
     0
 10
180.071
 20
9.77717
 30
0.0
 11
180.071
 21
8.77672
 31
0.0
  0
LINE
  8
0
 62
     0
 10
180.071
 20
8.77672
 30
0.0
 11
194.07
 21
8.77672
 31
0.0
  0
LINE
  8
0
 62
     0
 10
194.07
 20
8.77672
 30
0.0
 11
194.07
 21
9.77717
 31
0.0
  0
LINE
  8
0
 62
     0
 10
194.07
 20
9.77717
 30
0.0
 11
194.871
 21
9.77717
 31
0.0
  0
LINE
  8
0
 62
     0
 10
194.871
 20
9.77717
 30
0.0
 11
194.871
 21
12.8764
 31
0.0
  0
LINE
  8
0
 62
     0
 10
194.871
 20
12.8764
 30
0.0
 11
194.07
 21
12.8764
 31
0.0
  0
LINE
  8
0
 62
     0
 10
194.07
 20
12.8764
 30
0.0
 11
194.07
 21
18.6779
 31
0.0
  0
LINE
  8
0
 62
     0
 10
194.07
 20
18.6779
 30
0.0
 11
194.871
 21
18.6779
 31
0.0
  0
LINE
  8
0
 62
     0
 10
194.871
 20
18.6779
 30
0.0
 11
194.871
 21
21.7771
 31
0.0
  0
LINE
  8
0
 62
     0
 10
194.871
 20
21.7771
 30
0.0
 11
194.07
 21
21.7771
 31
0.0
  0
LINE
  8
0
 62
     0
 10
194.07
 20
21.7771
 30
0.0
 11
194.07
 21
22.7762
 31
0.0
  0
LINE
  8
0
 62
     0
 10
194.07
 20
22.7762
 30
0.0
 11
180.071
 21
22.7762
 31
0.0
  0
LINE
  8
0
 62
     0
 10
65.7712
 20
22.7762
 30
0.0
 11
65.7712
 21
21.7771
 31
0.0
  0
LINE
  8
0
 62
     0
 10
65.7712
 20
21.7771
 30
0.0
 11
64.9704
 21
21.7771
 31
0.0
  0
LINE
  8
0
 62
     0
 10
64.9704
 20
21.7771
 30
0.0
 11
64.9704
 21
18.6779
 31
0.0
  0
LINE
  8
0
 62
     0
 10
64.9704
 20
18.6779
 30
0.0
 11
65.7712
 21
18.6779
 31
0.0
  0
LINE
  8
0
 62
     0
 10
65.7712
 20
18.6779
 30
0.0
 11
65.7712
 21
12.8764
 31
0.0
  0
LINE
  8
0
 62
     0
 10
65.7712
 20
12.8764
 30
0.0
 11
64.9704
 21
12.8764
 31
0.0
  0
LINE
  8
0
 62
     0
 10
64.9704
 20
12.8764
 30
0.0
 11
64.9704
 21
9.77717
 31
0.0
  0
LINE
  8
0
 62
     0
 10
64.9704
 20
9.77717
 30
0.0
 11
65.7712
 21
9.77717
 31
0.0
  0
LINE
  8
0
 62
     0
 10
65.7712
 20
9.77717
 30
0.0
 11
65.7712
 21
8.77672
 31
0.0
  0
LINE
  8
0
 62
     0
 10
65.7712
 20
8.77672
 30
0.0
 11
79.7705
 21
8.77672
 31
0.0
  0
LINE
  8
0
 62
     0
 10
79.7705
 20
8.77672
 30
0.0
 11
79.7705
 21
9.77717
 31
0.0
  0
LINE
  8
0
 62
     0
 10
79.7705
 20
9.77717
 30
0.0
 11
80.5713
 21
9.77717
 31
0.0
  0
LINE
  8
0
 62
     0
 10
80.5713
 20
9.77717
 30
0.0
 11
80.5713
 21
12.8764
 31
0.0
  0
LINE
  8
0
 62
     0
 10
80.5713
 20
12.8764
 30
0.0
 11
79.7705
 21
12.8764
 31
0.0
  0
LINE
  8
0
 62
     0
 10
79.7705
 20
12.8764
 30
0.0
 11
79.7705
 21
18.6779
 31
0.0
  0
LINE
  8
0
 62
     0
 10
79.7705
 20
18.6779
 30
0.0
 11
80.5713
 21
18.6779
 31
0.0
  0
LINE
  8
0
 62
     0
 10
80.5713
 20
18.6779
 30
0.0
 11
80.5713
 21
21.7771
 31
0.0
  0
LINE
  8
0
 62
     0
 10
80.5713
 20
21.7771
 30
0.0
 11
79.7705
 21
21.7771
 31
0.0
  0
LINE
  8
0
 62
     0
 10
79.7705
 20
21.7771
 30
0.0
 11
79.7705
 21
22.7762
 31
0.0
  0
LINE
  8
0
 62
     0
 10
79.7705
 20
22.7762
 30
0.0
 11
65.7712
 21
22.7762
 31
0.0
  0
LINE
  8
0
 62
     0
 10
44.3385
 20
22.7762
 30
0.0
 11
44.3385
 21
21.7771
 31
0.0
  0
LINE
  8
0
 62
     0
 10
44.3385
 20
21.7771
 30
0.0
 11
43.5391
 21
21.7771
 31
0.0
  0
LINE
  8
0
 62
     0
 10
43.5391
 20
21.7771
 30
0.0
 11
43.5391
 21
18.6779
 31
0.0
  0
LINE
  8
0
 62
     0
 10
43.5391
 20
18.6779
 30
0.0
 11
44.3385
 21
18.6779
 31
0.0
  0
LINE
  8
0
 62
     0
 10
44.3385
 20
18.6779
 30
0.0
 11
44.3385
 21
12.8764
 31
0.0
  0
LINE
  8
0
 62
     0
 10
44.3385
 20
12.8764
 30
0.0
 11
43.5391
 21
12.8764
 31
0.0
  0
LINE
  8
0
 62
     0
 10
43.5391
 20
12.8764
 30
0.0
 11
43.5391
 21
9.77717
 31
0.0
  0
LINE
  8
0
 62
     0
 10
43.5391
 20
9.77717
 30
0.0
 11
44.3385
 21
9.77717
 31
0.0
  0
LINE
  8
0
 62
     0
 10
44.3385
 20
9.77717
 30
0.0
 11
44.3385
 21
8.77672
 31
0.0
  0
LINE
  8
0
 62
     0
 10
44.3385
 20
8.77672
 30
0.0
 11
58.3378
 21
8.77672
 31
0.0
  0
LINE
  8
0
 62
     0
 10
58.3378
 20
8.77672
 30
0.0
 11
58.3378
 21
9.77717
 31
0.0
  0
LINE
  8
0
 62
     0
 10
58.3378
 20
9.77717
 30
0.0
 11
59.1386
 21
9.77717
 31
0.0
  0
LINE
  8
0
 62
     0
 10
59.1386
 20
9.77717
 30
0.0
 11
59.1386
 21
12.8764
 31
0.0
  0
LINE
  8
0
 62
     0
 10
59.1386
 20
12.8764
 30
0.0
 11
58.3378
 21
12.8764
 31
0.0
  0
LINE
  8
0
 62
     0
 10
58.3378
 20
12.8764
 30
0.0
 11
58.3378
 21
18.6779
 31
0.0
  0
LINE
  8
0
 62
     0
 10
58.3378
 20
18.6779
 30
0.0
 11
59.1386
 21
18.6779
 31
0.0
  0
LINE
  8
0
 62
     0
 10
59.1386
 20
18.6779
 30
0.0
 11
59.1386
 21
21.7771
 31
0.0
  0
LINE
  8
0
 62
     0
 10
59.1386
 20
21.7771
 30
0.0
 11
58.3378
 21
21.7771
 31
0.0
  0
LINE
  8
0
 62
     0
 10
58.3378
 20
21.7771
 30
0.0
 11
58.3378
 21
22.7762
 31
0.0
  0
LINE
  8
0
 62
     0
 10
58.3378
 20
22.7762
 30
0.0
 11
44.3385
 21
22.7762
 31
0.0
  0
LINE
  8
0
 62
     0
 10
22.9071
 20
22.7762
 30
0.0
 11
22.9071
 21
21.7771
 31
0.0
  0
LINE
  8
0
 62
     0
 10
22.9071
 20
21.7771
 30
0.0
 11
22.1079
 21
21.7771
 31
0.0
  0
LINE
  8
0
 62
     0
 10
22.1079
 20
21.7771
 30
0.0
 11
22.1079
 21
18.6779
 31
0.0
  0
LINE
  8
0
 62
     0
 10
22.1079
 20
18.6779
 30
0.0
 11
22.9071
 21
18.6779
 31
0.0
  0
LINE
  8
0
 62
     0
 10
22.9071
 20
18.6779
 30
0.0
 11
22.9071
 21
12.8764
 31
0.0
  0
LINE
  8
0
 62
     0
 10
22.9071
 20
12.8764
 30
0.0
 11
22.1079
 21
12.8764
 31
0.0
  0
LINE
  8
0
 62
     0
 10
22.1079
 20
12.8764
 30
0.0
 11
22.1079
 21
9.77717
 31
0.0
  0
LINE
  8
0
 62
     0
 10
22.1079
 20
9.77717
 30
0.0
 11
22.9071
 21
9.77717
 31
0.0
  0
LINE
  8
0
 62
     0
 10
22.9071
 20
9.77717
 30
0.0
 11
22.9071
 21
8.77672
 31
0.0
  0
LINE
  8
0
 62
     0
 10
22.9071
 20
8.77672
 30
0.0
 11
36.908
 21
8.77672
 31
0.0
  0
LINE
  8
0
 62
     0
 10
36.908
 20
8.77672
 30
0.0
 11
36.908
 21
9.77717
 31
0.0
  0
LINE
  8
0
 62
     0
 10
36.908
 20
9.77717
 30
0.0
 11
37.7074
 21
9.77717
 31
0.0
  0
LINE
  8
0
 62
     0
 10
37.7074
 20
9.77717
 30
0.0
 11
37.7074
 21
12.8764
 31
0.0
  0
LINE
  8
0
 62
     0
 10
37.7074
 20
12.8764
 30
0.0
 11
36.908
 21
12.8764
 31
0.0
  0
LINE
  8
0
 62
     0
 10
36.908
 20
12.8764
 30
0.0
 11
36.908
 21
18.6779
 31
0.0
  0
LINE
  8
0
 62
     0
 10
36.908
 20
18.6779
 30
0.0
 11
37.7074
 21
18.6779
 31
0.0
  0
LINE
  8
0
 62
     0
 10
37.7074
 20
18.6779
 30
0.0
 11
37.7074
 21
21.7771
 31
0.0
  0
LINE
  8
0
 62
     0
 10
37.7074
 20
21.7771
 30
0.0
 11
36.908
 21
21.7771
 31
0.0
  0
LINE
  8
0
 62
     0
 10
36.908
 20
21.7771
 30
0.0
 11
36.908
 21
22.7762
 31
0.0
  0
LINE
  8
0
 62
     0
 10
36.908
 20
22.7762
 30
0.0
 11
22.9071
 21
22.7762
 31
0.0
  0
LINE
  8
0
 62
     0
 10
234.839
 20
41.8264
 30
0.0
 11
234.839
 21
40.827
 31
0.0
  0
LINE
  8
0
 62
     0
 10
234.839
 20
40.827
 30
0.0
 11
234.039
 21
40.827
 31
0.0
  0
LINE
  8
0
 62
     0
 10
234.039
 20
40.827
 30
0.0
 11
234.039
 21
37.7264
 31
0.0
  0
LINE
  8
0
 62
     0
 10
234.039
 20
37.7264
 30
0.0
 11
234.839
 21
37.7264
 31
0.0
  0
LINE
  8
0
 62
     0
 10
234.839
 20
37.7264
 30
0.0
 11
234.839
 21
31.9264
 31
0.0
  0
LINE
  8
0
 62
     0
 10
234.839
 20
31.9264
 30
0.0
 11
234.039
 21
31.9264
 31
0.0
  0
LINE
  8
0
 62
     0
 10
234.039
 20
31.9264
 30
0.0
 11
234.039
 21
28.8272
 31
0.0
  0
LINE
  8
0
 62
     0
 10
234.039
 20
28.8272
 30
0.0
 11
234.839
 21
28.8272
 31
0.0
  0
LINE
  8
0
 62
     0
 10
234.839
 20
28.8272
 30
0.0
 11
234.839
 21
27.8267
 31
0.0
  0
LINE
  8
0
 62
     0
 10
234.839
 20
27.8267
 30
0.0
 11
248.838
 21
27.8267
 31
0.0
  0
LINE
  8
0
 62
     0
 10
248.838
 20
27.8267
 30
0.0
 11
248.838
 21
28.8272
 31
0.0
  0
LINE
  8
0
 62
     0
 10
248.838
 20
28.8272
 30
0.0
 11
249.639
 21
28.8272
 31
0.0
  0
LINE
  8
0
 62
     0
 10
249.639
 20
28.8272
 30
0.0
 11
249.639
 21
31.9264
 31
0.0
  0
LINE
  8
0
 62
     0
 10
249.639
 20
31.9264
 30
0.0
 11
248.838
 21
31.9264
 31
0.0
  0
LINE
  8
0
 62
     0
 10
248.838
 20
31.9264
 30
0.0
 11
248.838
 21
37.7264
 31
0.0
  0
LINE
  8
0
 62
     0
 10
248.838
 20
37.7264
 30
0.0
 11
249.639
 21
37.7264
 31
0.0
  0
LINE
  8
0
 62
     0
 10
249.639
 20
37.7264
 30
0.0
 11
249.639
 21
40.827
 31
0.0
  0
LINE
  8
0
 62
     0
 10
249.639
 20
40.827
 30
0.0
 11
248.838
 21
40.827
 31
0.0
  0
LINE
  8
0
 62
     0
 10
248.838
 20
40.827
 30
0.0
 11
248.838
 21
41.8264
 31
0.0
  0
LINE
  8
0
 62
     0
 10
248.838
 20
41.8264
 30
0.0
 11
234.839
 21
41.8264
 31
0.0
  0
LINE
  8
0
 62
     0
 10
213.407
 20
41.8264
 30
0.0
 11
213.407
 21
40.827
 31
0.0
  0
LINE
  8
0
 62
     0
 10
213.407
 20
40.827
 30
0.0
 11
212.608
 21
40.827
 31
0.0
  0
LINE
  8
0
 62
     0
 10
212.608
 20
40.827
 30
0.0
 11
212.608
 21
37.7264
 31
0.0
  0
LINE
  8
0
 62
     0
 10
212.608
 20
37.7264
 30
0.0
 11
213.407
 21
37.7264
 31
0.0
  0
LINE
  8
0
 62
     0
 10
213.407
 20
37.7264
 30
0.0
 11
213.407
 21
31.9264
 31
0.0
  0
LINE
  8
0
 62
     0
 10
213.407
 20
31.9264
 30
0.0
 11
212.608
 21
31.9264
 31
0.0
  0
LINE
  8
0
 62
     0
 10
212.608
 20
31.9264
 30
0.0
 11
212.608
 21
28.8272
 31
0.0
  0
LINE
  8
0
 62
     0
 10
212.608
 20
28.8272
 30
0.0
 11
213.407
 21
28.8272
 31
0.0
  0
LINE
  8
0
 62
     0
 10
213.407
 20
28.8272
 30
0.0
 11
213.407
 21
27.8267
 31
0.0
  0
LINE
  8
0
 62
     0
 10
213.407
 20
27.8267
 30
0.0
 11
227.408
 21
27.8267
 31
0.0
  0
LINE
  8
0
 62
     0
 10
227.408
 20
27.8267
 30
0.0
 11
227.408
 21
28.8272
 31
0.0
  0
LINE
  8
0
 62
     0
 10
227.408
 20
28.8272
 30
0.0
 11
228.207
 21
28.8272
 31
0.0
  0
LINE
  8
0
 62
     0
 10
228.207
 20
28.8272
 30
0.0
 11
228.207
 21
31.9264
 31
0.0
  0
LINE
  8
0
 62
     0
 10
228.207
 20
31.9264
 30
0.0
 11
227.408
 21
31.9264
 31
0.0
  0
LINE
  8
0
 62
     0
 10
227.408
 20
31.9264
 30
0.0
 11
227.408
 21
37.7264
 31
0.0
  0
LINE
  8
0
 62
     0
 10
227.408
 20
37.7264
 30
0.0
 11
228.207
 21
37.7264
 31
0.0
  0
LINE
  8
0
 62
     0
 10
228.207
 20
37.7264
 30
0.0
 11
228.207
 21
40.827
 31
0.0
  0
LINE
  8
0
 62
     0
 10
228.207
 20
40.827
 30
0.0
 11
227.408
 21
40.827
 31
0.0
  0
LINE
  8
0
 62
     0
 10
227.408
 20
40.827
 30
0.0
 11
227.408
 21
41.8264
 31
0.0
  0
LINE
  8
0
 62
     0
 10
227.408
 20
41.8264
 30
0.0
 11
213.407
 21
41.8264
 31
0.0
  0
LINE
  8
0
 62
     0
 10
194.357
 20
41.8264
 30
0.0
 11
194.357
 21
40.827
 31
0.0
  0
LINE
  8
0
 62
     0
 10
194.357
 20
40.827
 30
0.0
 11
193.558
 21
40.827
 31
0.0
  0
LINE
  8
0
 62
     0
 10
193.558
 20
40.827
 30
0.0
 11
193.558
 21
37.7264
 31
0.0
  0
LINE
  8
0
 62
     0
 10
193.558
 20
37.7264
 30
0.0
 11
194.357
 21
37.7264
 31
0.0
  0
LINE
  8
0
 62
     0
 10
194.357
 20
37.7264
 30
0.0
 11
194.357
 21
31.9264
 31
0.0
  0
LINE
  8
0
 62
     0
 10
194.357
 20
31.9264
 30
0.0
 11
193.558
 21
31.9264
 31
0.0
  0
LINE
  8
0
 62
     0
 10
193.558
 20
31.9264
 30
0.0
 11
193.558
 21
28.8272
 31
0.0
  0
LINE
  8
0
 62
     0
 10
193.558
 20
28.8272
 30
0.0
 11
194.357
 21
28.8272
 31
0.0
  0
LINE
  8
0
 62
     0
 10
194.357
 20
28.8272
 30
0.0
 11
194.357
 21
27.8267
 31
0.0
  0
LINE
  8
0
 62
     0
 10
194.357
 20
27.8267
 30
0.0
 11
208.358
 21
27.8267
 31
0.0
  0
LINE
  8
0
 62
     0
 10
208.358
 20
27.8267
 30
0.0
 11
208.358
 21
28.8272
 31
0.0
  0
LINE
  8
0
 62
     0
 10
208.358
 20
28.8272
 30
0.0
 11
209.157
 21
28.8272
 31
0.0
  0
LINE
  8
0
 62
     0
 10
209.157
 20
28.8272
 30
0.0
 11
209.157
 21
31.9264
 31
0.0
  0
LINE
  8
0
 62
     0
 10
209.157
 20
31.9264
 30
0.0
 11
208.358
 21
31.9264
 31
0.0
  0
LINE
  8
0
 62
     0
 10
208.358
 20
31.9264
 30
0.0
 11
208.358
 21
37.7264
 31
0.0
  0
LINE
  8
0
 62
     0
 10
208.358
 20
37.7264
 30
0.0
 11
209.157
 21
37.7264
 31
0.0
  0
LINE
  8
0
 62
     0
 10
209.157
 20
37.7264
 30
0.0
 11
209.157
 21
40.827
 31
0.0
  0
LINE
  8
0
 62
     0
 10
209.157
 20
40.827
 30
0.0
 11
208.358
 21
40.827
 31
0.0
  0
LINE
  8
0
 62
     0
 10
208.358
 20
40.827
 30
0.0
 11
208.358
 21
41.8264
 31
0.0
  0
LINE
  8
0
 62
     0
 10
208.358
 20
41.8264
 30
0.0
 11
194.357
 21
41.8264
 31
0.0
  0
LINE
  8
0
 62
     0
 10
175.307
 20
41.8264
 30
0.0
 11
175.307
 21
40.827
 31
0.0
  0
LINE
  8
0
 62
     0
 10
175.307
 20
40.827
 30
0.0
 11
174.508
 21
40.827
 31
0.0
  0
LINE
  8
0
 62
     0
 10
174.508
 20
40.827
 30
0.0
 11
174.508
 21
37.7264
 31
0.0
  0
LINE
  8
0
 62
     0
 10
174.508
 20
37.7264
 30
0.0
 11
175.307
 21
37.7264
 31
0.0
  0
LINE
  8
0
 62
     0
 10
175.307
 20
37.7264
 30
0.0
 11
175.307
 21
31.9264
 31
0.0
  0
LINE
  8
0
 62
     0
 10
175.307
 20
31.9264
 30
0.0
 11
174.508
 21
31.9264
 31
0.0
  0
LINE
  8
0
 62
     0
 10
174.508
 20
31.9264
 30
0.0
 11
174.508
 21
28.8272
 31
0.0
  0
LINE
  8
0
 62
     0
 10
174.508
 20
28.8272
 30
0.0
 11
175.307
 21
28.8272
 31
0.0
  0
LINE
  8
0
 62
     0
 10
175.307
 20
28.8272
 30
0.0
 11
175.307
 21
27.8267
 31
0.0
  0
LINE
  8
0
 62
     0
 10
175.307
 20
27.8267
 30
0.0
 11
189.308
 21
27.8267
 31
0.0
  0
LINE
  8
0
 62
     0
 10
189.308
 20
27.8267
 30
0.0
 11
189.308
 21
28.8272
 31
0.0
  0
LINE
  8
0
 62
     0
 10
189.308
 20
28.8272
 30
0.0
 11
190.107
 21
28.8272
 31
0.0
  0
LINE
  8
0
 62
     0
 10
190.107
 20
28.8272
 30
0.0
 11
190.107
 21
31.9264
 31
0.0
  0
LINE
  8
0
 62
     0
 10
190.107
 20
31.9264
 30
0.0
 11
189.308
 21
31.9264
 31
0.0
  0
LINE
  8
0
 62
     0
 10
189.308
 20
31.9264
 30
0.0
 11
189.308
 21
37.7264
 31
0.0
  0
LINE
  8
0
 62
     0
 10
189.308
 20
37.7264
 30
0.0
 11
190.107
 21
37.7264
 31
0.0
  0
LINE
  8
0
 62
     0
 10
190.107
 20
37.7264
 30
0.0
 11
190.107
 21
40.827
 31
0.0
  0
LINE
  8
0
 62
     0
 10
190.107
 20
40.827
 30
0.0
 11
189.308
 21
40.827
 31
0.0
  0
LINE
  8
0
 62
     0
 10
189.308
 20
40.827
 30
0.0
 11
189.308
 21
41.8264
 31
0.0
  0
LINE
  8
0
 62
     0
 10
189.308
 20
41.8264
 30
0.0
 11
175.307
 21
41.8264
 31
0.0
  0
LINE
  8
0
 62
     0
 10
156.257
 20
41.8264
 30
0.0
 11
156.257
 21
40.827
 31
0.0
  0
LINE
  8
0
 62
     0
 10
156.257
 20
40.827
 30
0.0
 11
155.458
 21
40.827
 31
0.0
  0
LINE
  8
0
 62
     0
 10
155.458
 20
40.827
 30
0.0
 11
155.458
 21
37.7264
 31
0.0
  0
LINE
  8
0
 62
     0
 10
155.458
 20
37.7264
 30
0.0
 11
156.257
 21
37.7264
 31
0.0
  0
LINE
  8
0
 62
     0
 10
156.257
 20
37.7264
 30
0.0
 11
156.257
 21
31.9264
 31
0.0
  0
LINE
  8
0
 62
     0
 10
156.257
 20
31.9264
 30
0.0
 11
155.458
 21
31.9264
 31
0.0
  0
LINE
  8
0
 62
     0
 10
155.458
 20
31.9264
 30
0.0
 11
155.458
 21
28.8272
 31
0.0
  0
LINE
  8
0
 62
     0
 10
155.458
 20
28.8272
 30
0.0
 11
156.257
 21
28.8272
 31
0.0
  0
LINE
  8
0
 62
     0
 10
156.257
 20
28.8272
 30
0.0
 11
156.257
 21
27.8267
 31
0.0
  0
LINE
  8
0
 62
     0
 10
156.257
 20
27.8267
 30
0.0
 11
170.258
 21
27.8267
 31
0.0
  0
LINE
  8
0
 62
     0
 10
170.258
 20
27.8267
 30
0.0
 11
170.258
 21
28.8272
 31
0.0
  0
LINE
  8
0
 62
     0
 10
170.258
 20
28.8272
 30
0.0
 11
171.057
 21
28.8272
 31
0.0
  0
LINE
  8
0
 62
     0
 10
171.057
 20
28.8272
 30
0.0
 11
171.057
 21
31.9264
 31
0.0
  0
LINE
  8
0
 62
     0
 10
171.057
 20
31.9264
 30
0.0
 11
170.258
 21
31.9264
 31
0.0
  0
LINE
  8
0
 62
     0
 10
170.258
 20
31.9264
 30
0.0
 11
170.258
 21
37.7264
 31
0.0
  0
LINE
  8
0
 62
     0
 10
170.258
 20
37.7264
 30
0.0
 11
171.057
 21
37.7264
 31
0.0
  0
LINE
  8
0
 62
     0
 10
171.057
 20
37.7264
 30
0.0
 11
171.057
 21
40.827
 31
0.0
  0
LINE
  8
0
 62
     0
 10
171.057
 20
40.827
 30
0.0
 11
170.258
 21
40.827
 31
0.0
  0
LINE
  8
0
 62
     0
 10
170.258
 20
40.827
 30
0.0
 11
170.258
 21
41.8264
 31
0.0
  0
LINE
  8
0
 62
     0
 10
170.258
 20
41.8264
 30
0.0
 11
156.257
 21
41.8264
 31
0.0
  0
LINE
  8
0
 62
     0
 10
137.207
 20
41.8264
 30
0.0
 11
137.207
 21
40.827
 31
0.0
  0
LINE
  8
0
 62
     0
 10
137.207
 20
40.827
 30
0.0
 11
136.408
 21
40.827
 31
0.0
  0
LINE
  8
0
 62
     0
 10
136.408
 20
40.827
 30
0.0
 11
136.408
 21
37.7264
 31
0.0
  0
LINE
  8
0
 62
     0
 10
136.408
 20
37.7264
 30
0.0
 11
137.207
 21
37.7264
 31
0.0
  0
LINE
  8
0
 62
     0
 10
137.207
 20
37.7264
 30
0.0
 11
137.207
 21
31.9264
 31
0.0
  0
LINE
  8
0
 62
     0
 10
137.207
 20
31.9264
 30
0.0
 11
136.408
 21
31.9264
 31
0.0
  0
LINE
  8
0
 62
     0
 10
136.408
 20
31.9264
 30
0.0
 11
136.408
 21
28.8272
 31
0.0
  0
LINE
  8
0
 62
     0
 10
136.408
 20
28.8272
 30
0.0
 11
137.207
 21
28.8272
 31
0.0
  0
LINE
  8
0
 62
     0
 10
137.207
 20
28.8272
 30
0.0
 11
137.207
 21
27.8267
 31
0.0
  0
LINE
  8
0
 62
     0
 10
137.207
 20
27.8267
 30
0.0
 11
151.208
 21
27.8267
 31
0.0
  0
LINE
  8
0
 62
     0
 10
151.208
 20
27.8267
 30
0.0
 11
151.208
 21
28.8272
 31
0.0
  0
LINE
  8
0
 62
     0
 10
151.208
 20
28.8272
 30
0.0
 11
152.007
 21
28.8272
 31
0.0
  0
LINE
  8
0
 62
     0
 10
152.007
 20
28.8272
 30
0.0
 11
152.007
 21
31.9264
 31
0.0
  0
LINE
  8
0
 62
     0
 10
152.007
 20
31.9264
 30
0.0
 11
151.208
 21
31.9264
 31
0.0
  0
LINE
  8
0
 62
     0
 10
151.208
 20
31.9264
 30
0.0
 11
151.208
 21
37.7264
 31
0.0
  0
LINE
  8
0
 62
     0
 10
151.208
 20
37.7264
 30
0.0
 11
152.007
 21
37.7264
 31
0.0
  0
LINE
  8
0
 62
     0
 10
152.007
 20
37.7264
 30
0.0
 11
152.007
 21
40.827
 31
0.0
  0
LINE
  8
0
 62
     0
 10
152.007
 20
40.827
 30
0.0
 11
151.208
 21
40.827
 31
0.0
  0
LINE
  8
0
 62
     0
 10
151.208
 20
40.827
 30
0.0
 11
151.208
 21
41.8264
 31
0.0
  0
LINE
  8
0
 62
     0
 10
151.208
 20
41.8264
 30
0.0
 11
137.207
 21
41.8264
 31
0.0
  0
LINE
  8
0
 62
     0
 10
118.157
 20
41.8264
 30
0.0
 11
118.157
 21
40.827
 31
0.0
  0
LINE
  8
0
 62
     0
 10
118.157
 20
40.827
 30
0.0
 11
117.358
 21
40.827
 31
0.0
  0
LINE
  8
0
 62
     0
 10
117.358
 20
40.827
 30
0.0
 11
117.358
 21
37.7264
 31
0.0
  0
LINE
  8
0
 62
     0
 10
117.358
 20
37.7264
 30
0.0
 11
118.157
 21
37.7264
 31
0.0
  0
LINE
  8
0
 62
     0
 10
118.157
 20
37.7264
 30
0.0
 11
118.157
 21
31.9264
 31
0.0
  0
LINE
  8
0
 62
     0
 10
118.157
 20
31.9264
 30
0.0
 11
117.358
 21
31.9264
 31
0.0
  0
LINE
  8
0
 62
     0
 10
117.358
 20
31.9264
 30
0.0
 11
117.358
 21
28.8272
 31
0.0
  0
LINE
  8
0
 62
     0
 10
117.358
 20
28.8272
 30
0.0
 11
118.157
 21
28.8272
 31
0.0
  0
LINE
  8
0
 62
     0
 10
118.157
 20
28.8272
 30
0.0
 11
118.157
 21
27.8267
 31
0.0
  0
LINE
  8
0
 62
     0
 10
118.157
 20
27.8267
 30
0.0
 11
132.158
 21
27.8267
 31
0.0
  0
LINE
  8
0
 62
     0
 10
132.158
 20
27.8267
 30
0.0
 11
132.158
 21
28.8272
 31
0.0
  0
LINE
  8
0
 62
     0
 10
132.158
 20
28.8272
 30
0.0
 11
132.957
 21
28.8272
 31
0.0
  0
LINE
  8
0
 62
     0
 10
132.957
 20
28.8272
 30
0.0
 11
132.957
 21
31.9264
 31
0.0
  0
LINE
  8
0
 62
     0
 10
132.957
 20
31.9264
 30
0.0
 11
132.158
 21
31.9264
 31
0.0
  0
LINE
  8
0
 62
     0
 10
132.158
 20
31.9264
 30
0.0
 11
132.158
 21
37.7264
 31
0.0
  0
LINE
  8
0
 62
     0
 10
132.158
 20
37.7264
 30
0.0
 11
132.957
 21
37.7264
 31
0.0
  0
LINE
  8
0
 62
     0
 10
132.957
 20
37.7264
 30
0.0
 11
132.957
 21
40.827
 31
0.0
  0
LINE
  8
0
 62
     0
 10
132.957
 20
40.827
 30
0.0
 11
132.158
 21
40.827
 31
0.0
  0
LINE
  8
0
 62
     0
 10
132.158
 20
40.827
 30
0.0
 11
132.158
 21
41.8264
 31
0.0
  0
LINE
  8
0
 62
     0
 10
132.158
 20
41.8264
 30
0.0
 11
118.157
 21
41.8264
 31
0.0
  0
LINE
  8
0
 62
     0
 10
99.1073
 20
41.8264
 30
0.0
 11
99.1073
 21
40.827
 31
0.0
  0
LINE
  8
0
 62
     0
 10
99.1073
 20
40.827
 30
0.0
 11
98.3079
 21
40.827
 31
0.0
  0
LINE
  8
0
 62
     0
 10
98.3079
 20
40.827
 30
0.0
 11
98.3079
 21
37.7264
 31
0.0
  0
LINE
  8
0
 62
     0
 10
98.3079
 20
37.7264
 30
0.0
 11
99.1073
 21
37.7264
 31
0.0
  0
LINE
  8
0
 62
     0
 10
99.1073
 20
37.7264
 30
0.0
 11
99.1073
 21
31.9264
 31
0.0
  0
LINE
  8
0
 62
     0
 10
99.1073
 20
31.9264
 30
0.0
 11
98.3079
 21
31.9264
 31
0.0
  0
LINE
  8
0
 62
     0
 10
98.3079
 20
31.9264
 30
0.0
 11
98.3079
 21
28.8272
 31
0.0
  0
LINE
  8
0
 62
     0
 10
98.3079
 20
28.8272
 30
0.0
 11
99.1073
 21
28.8272
 31
0.0
  0
LINE
  8
0
 62
     0
 10
99.1073
 20
28.8272
 30
0.0
 11
99.1073
 21
27.8267
 31
0.0
  0
LINE
  8
0
 62
     0
 10
99.1073
 20
27.8267
 30
0.0
 11
113.108
 21
27.8267
 31
0.0
  0
LINE
  8
0
 62
     0
 10
113.108
 20
27.8267
 30
0.0
 11
113.108
 21
28.8272
 31
0.0
  0
LINE
  8
0
 62
     0
 10
113.108
 20
28.8272
 30
0.0
 11
113.907
 21
28.8272
 31
0.0
  0
LINE
  8
0
 62
     0
 10
113.907
 20
28.8272
 30
0.0
 11
113.907
 21
31.9264
 31
0.0
  0
LINE
  8
0
 62
     0
 10
113.907
 20
31.9264
 30
0.0
 11
113.108
 21
31.9264
 31
0.0
  0
LINE
  8
0
 62
     0
 10
113.108
 20
31.9264
 30
0.0
 11
113.108
 21
37.7264
 31
0.0
  0
LINE
  8
0
 62
     0
 10
113.108
 20
37.7264
 30
0.0
 11
113.907
 21
37.7264
 31
0.0
  0
LINE
  8
0
 62
     0
 10
113.907
 20
37.7264
 30
0.0
 11
113.907
 21
40.827
 31
0.0
  0
LINE
  8
0
 62
     0
 10
113.907
 20
40.827
 30
0.0
 11
113.108
 21
40.827
 31
0.0
  0
LINE
  8
0
 62
     0
 10
113.108
 20
40.827
 30
0.0
 11
113.108
 21
41.8264
 31
0.0
  0
LINE
  8
0
 62
     0
 10
113.108
 20
41.8264
 30
0.0
 11
99.1073
 21
41.8264
 31
0.0
  0
LINE
  8
0
 62
     0
 10
80.0573
 20
41.8264
 30
0.0
 11
80.0573
 21
40.827
 31
0.0
  0
LINE
  8
0
 62
     0
 10
80.0573
 20
40.827
 30
0.0
 11
79.2579
 21
40.827
 31
0.0
  0
LINE
  8
0
 62
     0
 10
79.2579
 20
40.827
 30
0.0
 11
79.2579
 21
37.7264
 31
0.0
  0
LINE
  8
0
 62
     0
 10
79.2579
 20
37.7264
 30
0.0
 11
80.0573
 21
37.7264
 31
0.0
  0
LINE
  8
0
 62
     0
 10
80.0573
 20
37.7264
 30
0.0
 11
80.0573
 21
31.9264
 31
0.0
  0
LINE
  8
0
 62
     0
 10
80.0573
 20
31.9264
 30
0.0
 11
79.2579
 21
31.9264
 31
0.0
  0
LINE
  8
0
 62
     0
 10
79.2579
 20
31.9264
 30
0.0
 11
79.2579
 21
28.8272
 31
0.0
  0
LINE
  8
0
 62
     0
 10
79.2579
 20
28.8272
 30
0.0
 11
80.0573
 21
28.8272
 31
0.0
  0
LINE
  8
0
 62
     0
 10
80.0573
 20
28.8272
 30
0.0
 11
80.0573
 21
27.8267
 31
0.0
  0
LINE
  8
0
 62
     0
 10
80.0573
 20
27.8267
 30
0.0
 11
94.058
 21
27.8267
 31
0.0
  0
LINE
  8
0
 62
     0
 10
94.058
 20
27.8267
 30
0.0
 11
94.058
 21
28.8272
 31
0.0
  0
LINE
  8
0
 62
     0
 10
94.058
 20
28.8272
 30
0.0
 11
94.8574
 21
28.8272
 31
0.0
  0
LINE
  8
0
 62
     0
 10
94.8574
 20
28.8272
 30
0.0
 11
94.8574
 21
31.9264
 31
0.0
  0
LINE
  8
0
 62
     0
 10
94.8574
 20
31.9264
 30
0.0
 11
94.058
 21
31.9264
 31
0.0
  0
LINE
  8
0
 62
     0
 10
94.058
 20
31.9264
 30
0.0
 11
94.058
 21
37.7264
 31
0.0
  0
LINE
  8
0
 62
     0
 10
94.058
 20
37.7264
 30
0.0
 11
94.8574
 21
37.7264
 31
0.0
  0
LINE
  8
0
 62
     0
 10
94.8574
 20
37.7264
 30
0.0
 11
94.8574
 21
40.827
 31
0.0
  0
LINE
  8
0
 62
     0
 10
94.8574
 20
40.827
 30
0.0
 11
94.058
 21
40.827
 31
0.0
  0
LINE
  8
0
 62
     0
 10
94.058
 20
40.827
 30
0.0
 11
94.058
 21
41.8264
 31
0.0
  0
LINE
  8
0
 62
     0
 10
94.058
 20
41.8264
 30
0.0
 11
80.0573
 21
41.8264
 31
0.0
  0
LINE
  8
0
 62
     0
 10
61.0073
 20
41.8264
 30
0.0
 11
61.0073
 21
40.827
 31
0.0
  0
LINE
  8
0
 62
     0
 10
61.0073
 20
40.827
 30
0.0
 11
60.2065
 21
40.827
 31
0.0
  0
LINE
  8
0
 62
     0
 10
60.2065
 20
40.827
 30
0.0
 11
60.2065
 21
37.7264
 31
0.0
  0
LINE
  8
0
 62
     0
 10
60.2065
 20
37.7264
 30
0.0
 11
61.0073
 21
37.7264
 31
0.0
  0
LINE
  8
0
 62
     0
 10
61.0073
 20
37.7264
 30
0.0
 11
61.0073
 21
31.9264
 31
0.0
  0
LINE
  8
0
 62
     0
 10
61.0073
 20
31.9264
 30
0.0
 11
60.2065
 21
31.9264
 31
0.0
  0
LINE
  8
0
 62
     0
 10
60.2065
 20
31.9264
 30
0.0
 11
60.2065
 21
28.8272
 31
0.0
  0
LINE
  8
0
 62
     0
 10
60.2065
 20
28.8272
 30
0.0
 11
61.0073
 21
28.8272
 31
0.0
  0
LINE
  8
0
 62
     0
 10
61.0073
 20
28.8272
 30
0.0
 11
61.0073
 21
27.8267
 31
0.0
  0
LINE
  8
0
 62
     0
 10
61.0073
 20
27.8267
 30
0.0
 11
75.008
 21
27.8267
 31
0.0
  0
LINE
  8
0
 62
     0
 10
75.008
 20
27.8267
 30
0.0
 11
75.008
 21
28.8272
 31
0.0
  0
LINE
  8
0
 62
     0
 10
75.008
 20
28.8272
 30
0.0
 11
75.8074
 21
28.8272
 31
0.0
  0
LINE
  8
0
 62
     0
 10
75.8074
 20
28.8272
 30
0.0
 11
75.8074
 21
31.9264
 31
0.0
  0
LINE
  8
0
 62
     0
 10
75.8074
 20
31.9264
 30
0.0
 11
75.008
 21
31.9264
 31
0.0
  0
LINE
  8
0
 62
     0
 10
75.008
 20
31.9264
 30
0.0
 11
75.008
 21
37.7264
 31
0.0
  0
LINE
  8
0
 62
     0
 10
75.008
 20
37.7264
 30
0.0
 11
75.8074
 21
37.7264
 31
0.0
  0
LINE
  8
0
 62
     0
 10
75.8074
 20
37.7264
 30
0.0
 11
75.8074
 21
40.827
 31
0.0
  0
LINE
  8
0
 62
     0
 10
75.8074
 20
40.827
 30
0.0
 11
75.008
 21
40.827
 31
0.0
  0
LINE
  8
0
 62
     0
 10
75.008
 20
40.827
 30
0.0
 11
75.008
 21
41.8264
 31
0.0
  0
LINE
  8
0
 62
     0
 10
75.008
 20
41.8264
 30
0.0
 11
61.0073
 21
41.8264
 31
0.0
  0
LINE
  8
0
 62
     0
 10
41.9573
 20
41.8264
 30
0.0
 11
41.9573
 21
40.827
 31
0.0
  0
LINE
  8
0
 62
     0
 10
41.9573
 20
40.827
 30
0.0
 11
41.1579
 21
40.827
 31
0.0
  0
LINE
  8
0
 62
     0
 10
41.1579
 20
40.827
 30
0.0
 11
41.1579
 21
37.7264
 31
0.0
  0
LINE
  8
0
 62
     0
 10
41.1579
 20
37.7264
 30
0.0
 11
41.9573
 21
37.7264
 31
0.0
  0
LINE
  8
0
 62
     0
 10
41.9573
 20
37.7264
 30
0.0
 11
41.9573
 21
31.9264
 31
0.0
  0
LINE
  8
0
 62
     0
 10
41.9573
 20
31.9264
 30
0.0
 11
41.1579
 21
31.9264
 31
0.0
  0
LINE
  8
0
 62
     0
 10
41.1579
 20
31.9264
 30
0.0
 11
41.1579
 21
28.8272
 31
0.0
  0
LINE
  8
0
 62
     0
 10
41.1579
 20
28.8272
 30
0.0
 11
41.9573
 21
28.8272
 31
0.0
  0
LINE
  8
0
 62
     0
 10
41.9573
 20
28.8272
 30
0.0
 11
41.9573
 21
27.8267
 31
0.0
  0
LINE
  8
0
 62
     0
 10
41.9573
 20
27.8267
 30
0.0
 11
55.958
 21
27.8267
 31
0.0
  0
LINE
  8
0
 62
     0
 10
55.958
 20
27.8267
 30
0.0
 11
55.958
 21
28.8272
 31
0.0
  0
LINE
  8
0
 62
     0
 10
55.958
 20
28.8272
 30
0.0
 11
56.7574
 21
28.8272
 31
0.0
  0
LINE
  8
0
 62
     0
 10
56.7574
 20
28.8272
 30
0.0
 11
56.7574
 21
31.9264
 31
0.0
  0
LINE
  8
0
 62
     0
 10
56.7574
 20
31.9264
 30
0.0
 11
55.958
 21
31.9264
 31
0.0
  0
LINE
  8
0
 62
     0
 10
55.958
 20
31.9264
 30
0.0
 11
55.958
 21
37.7264
 31
0.0
  0
LINE
  8
0
 62
     0
 10
55.958
 20
37.7264
 30
0.0
 11
56.7574
 21
37.7264
 31
0.0
  0
LINE
  8
0
 62
     0
 10
56.7574
 20
37.7264
 30
0.0
 11
56.7574
 21
40.827
 31
0.0
  0
LINE
  8
0
 62
     0
 10
56.7574
 20
40.827
 30
0.0
 11
55.958
 21
40.827
 31
0.0
  0
LINE
  8
0
 62
     0
 10
55.958
 20
40.827
 30
0.0
 11
55.958
 21
41.8264
 31
0.0
  0
LINE
  8
0
 62
     0
 10
55.958
 20
41.8264
 30
0.0
 11
41.9573
 21
41.8264
 31
0.0
  0
LINE
  8
0
 62
     0
 10
15.7634
 20
41.8264
 30
0.0
 11
15.7634
 21
40.827
 31
0.0
  0
LINE
  8
0
 62
     0
 10
15.7634
 20
40.827
 30
0.0
 11
14.9641
 21
40.827
 31
0.0
  0
LINE
  8
0
 62
     0
 10
14.9641
 20
40.827
 30
0.0
 11
14.9641
 21
37.7264
 31
0.0
  0
LINE
  8
0
 62
     0
 10
14.9641
 20
37.7264
 30
0.0
 11
15.7634
 21
37.7264
 31
0.0
  0
LINE
  8
0
 62
     0
 10
15.7634
 20
37.7264
 30
0.0
 11
15.7634
 21
31.9264
 31
0.0
  0
LINE
  8
0
 62
     0
 10
15.7634
 20
31.9264
 30
0.0
 11
14.9641
 21
31.9264
 31
0.0
  0
LINE
  8
0
 62
     0
 10
14.9641
 20
31.9264
 30
0.0
 11
14.9641
 21
28.8272
 31
0.0
  0
LINE
  8
0
 62
     0
 10
14.9641
 20
28.8272
 30
0.0
 11
15.7634
 21
28.8272
 31
0.0
  0
LINE
  8
0
 62
     0
 10
15.7634
 20
28.8272
 30
0.0
 11
15.7634
 21
27.8267
 31
0.0
  0
LINE
  8
0
 62
     0
 10
15.7634
 20
27.8267
 30
0.0
 11
29.7629
 21
27.8267
 31
0.0
  0
LINE
  8
0
 62
     0
 10
29.7629
 20
27.8267
 30
0.0
 11
29.7629
 21
28.8272
 31
0.0
  0
LINE
  8
0
 62
     0
 10
29.7629
 20
28.8272
 30
0.0
 11
30.5635
 21
28.8272
 31
0.0
  0
LINE
  8
0
 62
     0
 10
30.5635
 20
28.8272
 30
0.0
 11
30.5635
 21
31.9264
 31
0.0
  0
LINE
  8
0
 62
     0
 10
30.5635
 20
31.9264
 30
0.0
 11
29.7629
 21
31.9264
 31
0.0
  0
LINE
  8
0
 62
     0
 10
29.7629
 20
31.9264
 30
0.0
 11
29.7629
 21
37.7264
 31
0.0
  0
LINE
  8
0
 62
     0
 10
29.7629
 20
37.7264
 30
0.0
 11
30.5635
 21
37.7264
 31
0.0
  0
LINE
  8
0
 62
     0
 10
30.5635
 20
37.7264
 30
0.0
 11
30.5635
 21
40.827
 31
0.0
  0
LINE
  8
0
 62
     0
 10
30.5635
 20
40.827
 30
0.0
 11
29.7629
 21
40.827
 31
0.0
  0
LINE
  8
0
 62
     0
 10
29.7629
 20
40.827
 30
0.0
 11
29.7629
 21
41.8264
 31
0.0
  0
LINE
  8
0
 62
     0
 10
29.7629
 20
41.8264
 30
0.0
 11
15.7634
 21
41.8264
 31
0.0
  0
LINE
  8
0
 62
     0
 10
230.076
 20
60.8764
 30
0.0
 11
230.076
 21
59.877
 31
0.0
  0
LINE
  8
0
 62
     0
 10
230.076
 20
59.877
 30
0.0
 11
229.277
 21
59.877
 31
0.0
  0
LINE
  8
0
 62
     0
 10
229.277
 20
59.877
 30
0.0
 11
229.277
 21
56.7764
 31
0.0
  0
LINE
  8
0
 62
     0
 10
229.277
 20
56.7764
 30
0.0
 11
230.076
 21
56.7764
 31
0.0
  0
LINE
  8
0
 62
     0
 10
230.076
 20
56.7764
 30
0.0
 11
230.076
 21
50.9764
 31
0.0
  0
LINE
  8
0
 62
     0
 10
230.076
 20
50.9764
 30
0.0
 11
229.277
 21
50.9764
 31
0.0
  0
LINE
  8
0
 62
     0
 10
229.277
 20
50.9764
 30
0.0
 11
229.277
 21
47.8772
 31
0.0
  0
LINE
  8
0
 62
     0
 10
229.277
 20
47.8772
 30
0.0
 11
230.076
 21
47.8772
 31
0.0
  0
LINE
  8
0
 62
     0
 10
230.076
 20
47.8772
 30
0.0
 11
230.076
 21
46.8768
 31
0.0
  0
LINE
  8
0
 62
     0
 10
230.076
 20
46.8768
 30
0.0
 11
244.077
 21
46.8768
 31
0.0
  0
LINE
  8
0
 62
     0
 10
244.077
 20
46.8768
 30
0.0
 11
244.077
 21
47.8772
 31
0.0
  0
LINE
  8
0
 62
     0
 10
244.077
 20
47.8772
 30
0.0
 11
244.876
 21
47.8772
 31
0.0
  0
LINE
  8
0
 62
     0
 10
244.876
 20
47.8772
 30
0.0
 11
244.876
 21
50.9764
 31
0.0
  0
LINE
  8
0
 62
     0
 10
244.876
 20
50.9764
 30
0.0
 11
244.077
 21
50.9764
 31
0.0
  0
LINE
  8
0
 62
     0
 10
244.077
 20
50.9764
 30
0.0
 11
244.077
 21
56.7764
 31
0.0
  0
LINE
  8
0
 62
     0
 10
244.077
 20
56.7764
 30
0.0
 11
244.876
 21
56.7764
 31
0.0
  0
LINE
  8
0
 62
     0
 10
244.876
 20
56.7764
 30
0.0
 11
244.876
 21
59.877
 31
0.0
  0
LINE
  8
0
 62
     0
 10
244.876
 20
59.877
 30
0.0
 11
244.077
 21
59.877
 31
0.0
  0
LINE
  8
0
 62
     0
 10
244.077
 20
59.877
 30
0.0
 11
244.077
 21
60.8764
 31
0.0
  0
LINE
  8
0
 62
     0
 10
244.077
 20
60.8764
 30
0.0
 11
230.076
 21
60.8764
 31
0.0
  0
LINE
  8
0
 62
     0
 10
203.882
 20
60.8764
 30
0.0
 11
203.882
 21
59.877
 31
0.0
  0
LINE
  8
0
 62
     0
 10
203.882
 20
59.877
 30
0.0
 11
203.083
 21
59.877
 31
0.0
  0
LINE
  8
0
 62
     0
 10
203.083
 20
59.877
 30
0.0
 11
203.083
 21
56.7764
 31
0.0
  0
LINE
  8
0
 62
     0
 10
203.083
 20
56.7764
 30
0.0
 11
203.882
 21
56.7764
 31
0.0
  0
LINE
  8
0
 62
     0
 10
203.882
 20
56.7764
 30
0.0
 11
203.882
 21
50.9764
 31
0.0
  0
LINE
  8
0
 62
     0
 10
203.882
 20
50.9764
 30
0.0
 11
203.083
 21
50.9764
 31
0.0
  0
LINE
  8
0
 62
     0
 10
203.083
 20
50.9764
 30
0.0
 11
203.083
 21
47.8772
 31
0.0
  0
LINE
  8
0
 62
     0
 10
203.083
 20
47.8772
 30
0.0
 11
203.882
 21
47.8772
 31
0.0
  0
LINE
  8
0
 62
     0
 10
203.882
 20
47.8772
 30
0.0
 11
203.882
 21
46.8768
 31
0.0
  0
LINE
  8
0
 62
     0
 10
203.882
 20
46.8768
 30
0.0
 11
217.883
 21
46.8768
 31
0.0
  0
LINE
  8
0
 62
     0
 10
217.883
 20
46.8768
 30
0.0
 11
217.883
 21
47.8772
 31
0.0
  0
LINE
  8
0
 62
     0
 10
217.883
 20
47.8772
 30
0.0
 11
218.682
 21
47.8772
 31
0.0
  0
LINE
  8
0
 62
     0
 10
218.682
 20
47.8772
 30
0.0
 11
218.682
 21
50.9764
 31
0.0
  0
LINE
  8
0
 62
     0
 10
218.682
 20
50.9764
 30
0.0
 11
217.883
 21
50.9764
 31
0.0
  0
LINE
  8
0
 62
     0
 10
217.883
 20
50.9764
 30
0.0
 11
217.883
 21
56.7764
 31
0.0
  0
LINE
  8
0
 62
     0
 10
217.883
 20
56.7764
 30
0.0
 11
218.682
 21
56.7764
 31
0.0
  0
LINE
  8
0
 62
     0
 10
218.682
 20
56.7764
 30
0.0
 11
218.682
 21
59.877
 31
0.0
  0
LINE
  8
0
 62
     0
 10
218.682
 20
59.877
 30
0.0
 11
217.883
 21
59.877
 31
0.0
  0
LINE
  8
0
 62
     0
 10
217.883
 20
59.877
 30
0.0
 11
217.883
 21
60.8764
 31
0.0
  0
LINE
  8
0
 62
     0
 10
217.883
 20
60.8764
 30
0.0
 11
203.882
 21
60.8764
 31
0.0
  0
LINE
  8
0
 62
     0
 10
184.832
 20
60.8764
 30
0.0
 11
184.832
 21
59.877
 31
0.0
  0
LINE
  8
0
 62
     0
 10
184.832
 20
59.877
 30
0.0
 11
184.033
 21
59.877
 31
0.0
  0
LINE
  8
0
 62
     0
 10
184.033
 20
59.877
 30
0.0
 11
184.033
 21
56.7764
 31
0.0
  0
LINE
  8
0
 62
     0
 10
184.033
 20
56.7764
 30
0.0
 11
184.832
 21
56.7764
 31
0.0
  0
LINE
  8
0
 62
     0
 10
184.832
 20
56.7764
 30
0.0
 11
184.832
 21
50.9764
 31
0.0
  0
LINE
  8
0
 62
     0
 10
184.832
 20
50.9764
 30
0.0
 11
184.033
 21
50.9764
 31
0.0
  0
LINE
  8
0
 62
     0
 10
184.033
 20
50.9764
 30
0.0
 11
184.033
 21
47.8772
 31
0.0
  0
LINE
  8
0
 62
     0
 10
184.033
 20
47.8772
 30
0.0
 11
184.832
 21
47.8772
 31
0.0
  0
LINE
  8
0
 62
     0
 10
184.832
 20
47.8772
 30
0.0
 11
184.832
 21
46.8768
 31
0.0
  0
LINE
  8
0
 62
     0
 10
184.832
 20
46.8768
 30
0.0
 11
198.833
 21
46.8768
 31
0.0
  0
LINE
  8
0
 62
     0
 10
198.833
 20
46.8768
 30
0.0
 11
198.833
 21
47.8772
 31
0.0
  0
LINE
  8
0
 62
     0
 10
198.833
 20
47.8772
 30
0.0
 11
199.632
 21
47.8772
 31
0.0
  0
LINE
  8
0
 62
     0
 10
199.632
 20
47.8772
 30
0.0
 11
199.632
 21
50.9764
 31
0.0
  0
LINE
  8
0
 62
     0
 10
199.632
 20
50.9764
 30
0.0
 11
198.833
 21
50.9764
 31
0.0
  0
LINE
  8
0
 62
     0
 10
198.833
 20
50.9764
 30
0.0
 11
198.833
 21
56.7764
 31
0.0
  0
LINE
  8
0
 62
     0
 10
198.833
 20
56.7764
 30
0.0
 11
199.632
 21
56.7764
 31
0.0
  0
LINE
  8
0
 62
     0
 10
199.632
 20
56.7764
 30
0.0
 11
199.632
 21
59.877
 31
0.0
  0
LINE
  8
0
 62
     0
 10
199.632
 20
59.877
 30
0.0
 11
198.833
 21
59.877
 31
0.0
  0
LINE
  8
0
 62
     0
 10
198.833
 20
59.877
 30
0.0
 11
198.833
 21
60.8764
 31
0.0
  0
LINE
  8
0
 62
     0
 10
198.833
 20
60.8764
 30
0.0
 11
184.832
 21
60.8764
 31
0.0
  0
LINE
  8
0
 62
     0
 10
165.782
 20
60.8764
 30
0.0
 11
165.782
 21
59.877
 31
0.0
  0
LINE
  8
0
 62
     0
 10
165.782
 20
59.877
 30
0.0
 11
164.983
 21
59.877
 31
0.0
  0
LINE
  8
0
 62
     0
 10
164.983
 20
59.877
 30
0.0
 11
164.983
 21
56.7764
 31
0.0
  0
LINE
  8
0
 62
     0
 10
164.983
 20
56.7764
 30
0.0
 11
165.782
 21
56.7764
 31
0.0
  0
LINE
  8
0
 62
     0
 10
165.782
 20
56.7764
 30
0.0
 11
165.782
 21
50.9764
 31
0.0
  0
LINE
  8
0
 62
     0
 10
165.782
 20
50.9764
 30
0.0
 11
164.983
 21
50.9764
 31
0.0
  0
LINE
  8
0
 62
     0
 10
164.983
 20
50.9764
 30
0.0
 11
164.983
 21
47.8772
 31
0.0
  0
LINE
  8
0
 62
     0
 10
164.983
 20
47.8772
 30
0.0
 11
165.782
 21
47.8772
 31
0.0
  0
LINE
  8
0
 62
     0
 10
165.782
 20
47.8772
 30
0.0
 11
165.782
 21
46.8768
 31
0.0
  0
LINE
  8
0
 62
     0
 10
165.782
 20
46.8768
 30
0.0
 11
179.783
 21
46.8768
 31
0.0
  0
LINE
  8
0
 62
     0
 10
179.783
 20
46.8768
 30
0.0
 11
179.783
 21
47.8772
 31
0.0
  0
LINE
  8
0
 62
     0
 10
179.783
 20
47.8772
 30
0.0
 11
180.582
 21
47.8772
 31
0.0
  0
LINE
  8
0
 62
     0
 10
180.582
 20
47.8772
 30
0.0
 11
180.582
 21
50.9764
 31
0.0
  0
LINE
  8
0
 62
     0
 10
180.582
 20
50.9764
 30
0.0
 11
179.783
 21
50.9764
 31
0.0
  0
LINE
  8
0
 62
     0
 10
179.783
 20
50.9764
 30
0.0
 11
179.783
 21
56.7764
 31
0.0
  0
LINE
  8
0
 62
     0
 10
179.783
 20
56.7764
 30
0.0
 11
180.582
 21
56.7764
 31
0.0
  0
LINE
  8
0
 62
     0
 10
180.582
 20
56.7764
 30
0.0
 11
180.582
 21
59.877
 31
0.0
  0
LINE
  8
0
 62
     0
 10
180.582
 20
59.877
 30
0.0
 11
179.783
 21
59.877
 31
0.0
  0
LINE
  8
0
 62
     0
 10
179.783
 20
59.877
 30
0.0
 11
179.783
 21
60.8764
 31
0.0
  0
LINE
  8
0
 62
     0
 10
179.783
 20
60.8764
 30
0.0
 11
165.782
 21
60.8764
 31
0.0
  0
LINE
  8
0
 62
     0
 10
146.732
 20
60.8764
 30
0.0
 11
146.732
 21
59.877
 31
0.0
  0
LINE
  8
0
 62
     0
 10
146.732
 20
59.877
 30
0.0
 11
145.933
 21
59.877
 31
0.0
  0
LINE
  8
0
 62
     0
 10
145.933
 20
59.877
 30
0.0
 11
145.933
 21
56.7764
 31
0.0
  0
LINE
  8
0
 62
     0
 10
145.933
 20
56.7764
 30
0.0
 11
146.732
 21
56.7764
 31
0.0
  0
LINE
  8
0
 62
     0
 10
146.732
 20
56.7764
 30
0.0
 11
146.732
 21
50.9764
 31
0.0
  0
LINE
  8
0
 62
     0
 10
146.732
 20
50.9764
 30
0.0
 11
145.933
 21
50.9764
 31
0.0
  0
LINE
  8
0
 62
     0
 10
145.933
 20
50.9764
 30
0.0
 11
145.933
 21
47.8772
 31
0.0
  0
LINE
  8
0
 62
     0
 10
145.933
 20
47.8772
 30
0.0
 11
146.732
 21
47.8772
 31
0.0
  0
LINE
  8
0
 62
     0
 10
146.732
 20
47.8772
 30
0.0
 11
146.732
 21
46.8768
 31
0.0
  0
LINE
  8
0
 62
     0
 10
146.732
 20
46.8768
 30
0.0
 11
160.733
 21
46.8768
 31
0.0
  0
LINE
  8
0
 62
     0
 10
160.733
 20
46.8768
 30
0.0
 11
160.733
 21
47.8772
 31
0.0
  0
LINE
  8
0
 62
     0
 10
160.733
 20
47.8772
 30
0.0
 11
161.532
 21
47.8772
 31
0.0
  0
LINE
  8
0
 62
     0
 10
161.532
 20
47.8772
 30
0.0
 11
161.532
 21
50.9764
 31
0.0
  0
LINE
  8
0
 62
     0
 10
161.532
 20
50.9764
 30
0.0
 11
160.733
 21
50.9764
 31
0.0
  0
LINE
  8
0
 62
     0
 10
160.733
 20
50.9764
 30
0.0
 11
160.733
 21
56.7764
 31
0.0
  0
LINE
  8
0
 62
     0
 10
160.733
 20
56.7764
 30
0.0
 11
161.532
 21
56.7764
 31
0.0
  0
LINE
  8
0
 62
     0
 10
161.532
 20
56.7764
 30
0.0
 11
161.532
 21
59.877
 31
0.0
  0
LINE
  8
0
 62
     0
 10
161.532
 20
59.877
 30
0.0
 11
160.733
 21
59.877
 31
0.0
  0
LINE
  8
0
 62
     0
 10
160.733
 20
59.877
 30
0.0
 11
160.733
 21
60.8764
 31
0.0
  0
LINE
  8
0
 62
     0
 10
160.733
 20
60.8764
 30
0.0
 11
146.732
 21
60.8764
 31
0.0
  0
LINE
  8
0
 62
     0
 10
127.682
 20
60.8764
 30
0.0
 11
127.682
 21
59.877
 31
0.0
  0
LINE
  8
0
 62
     0
 10
127.682
 20
59.877
 30
0.0
 11
126.883
 21
59.877
 31
0.0
  0
LINE
  8
0
 62
     0
 10
126.883
 20
59.877
 30
0.0
 11
126.883
 21
56.7764
 31
0.0
  0
LINE
  8
0
 62
     0
 10
126.883
 20
56.7764
 30
0.0
 11
127.682
 21
56.7764
 31
0.0
  0
LINE
  8
0
 62
     0
 10
127.682
 20
56.7764
 30
0.0
 11
127.682
 21
50.9764
 31
0.0
  0
LINE
  8
0
 62
     0
 10
127.682
 20
50.9764
 30
0.0
 11
126.883
 21
50.9764
 31
0.0
  0
LINE
  8
0
 62
     0
 10
126.883
 20
50.9764
 30
0.0
 11
126.883
 21
47.8772
 31
0.0
  0
LINE
  8
0
 62
     0
 10
126.883
 20
47.8772
 30
0.0
 11
127.682
 21
47.8772
 31
0.0
  0
LINE
  8
0
 62
     0
 10
127.682
 20
47.8772
 30
0.0
 11
127.682
 21
46.8768
 31
0.0
  0
LINE
  8
0
 62
     0
 10
127.682
 20
46.8768
 30
0.0
 11
141.683
 21
46.8768
 31
0.0
  0
LINE
  8
0
 62
     0
 10
141.683
 20
46.8768
 30
0.0
 11
141.683
 21
47.8772
 31
0.0
  0
LINE
  8
0
 62
     0
 10
141.683
 20
47.8772
 30
0.0
 11
142.482
 21
47.8772
 31
0.0
  0
LINE
  8
0
 62
     0
 10
142.482
 20
47.8772
 30
0.0
 11
142.482
 21
50.9764
 31
0.0
  0
LINE
  8
0
 62
     0
 10
142.482
 20
50.9764
 30
0.0
 11
141.683
 21
50.9764
 31
0.0
  0
LINE
  8
0
 62
     0
 10
141.683
 20
50.9764
 30
0.0
 11
141.683
 21
56.7764
 31
0.0
  0
LINE
  8
0
 62
     0
 10
141.683
 20
56.7764
 30
0.0
 11
142.482
 21
56.7764
 31
0.0
  0
LINE
  8
0
 62
     0
 10
142.482
 20
56.7764
 30
0.0
 11
142.482
 21
59.877
 31
0.0
  0
LINE
  8
0
 62
     0
 10
142.482
 20
59.877
 30
0.0
 11
141.683
 21
59.877
 31
0.0
  0
LINE
  8
0
 62
     0
 10
141.683
 20
59.877
 30
0.0
 11
141.683
 21
60.8764
 31
0.0
  0
LINE
  8
0
 62
     0
 10
141.683
 20
60.8764
 30
0.0
 11
127.682
 21
60.8764
 31
0.0
  0
LINE
  8
0
 62
     0
 10
108.632
 20
60.8764
 30
0.0
 11
108.632
 21
59.877
 31
0.0
  0
LINE
  8
0
 62
     0
 10
108.632
 20
59.877
 30
0.0
 11
107.833
 21
59.877
 31
0.0
  0
LINE
  8
0
 62
     0
 10
107.833
 20
59.877
 30
0.0
 11
107.833
 21
56.7764
 31
0.0
  0
LINE
  8
0
 62
     0
 10
107.833
 20
56.7764
 30
0.0
 11
108.632
 21
56.7764
 31
0.0
  0
LINE
  8
0
 62
     0
 10
108.632
 20
56.7764
 30
0.0
 11
108.632
 21
50.9764
 31
0.0
  0
LINE
  8
0
 62
     0
 10
108.632
 20
50.9764
 30
0.0
 11
107.833
 21
50.9764
 31
0.0
  0
LINE
  8
0
 62
     0
 10
107.833
 20
50.9764
 30
0.0
 11
107.833
 21
47.8772
 31
0.0
  0
LINE
  8
0
 62
     0
 10
107.833
 20
47.8772
 30
0.0
 11
108.632
 21
47.8772
 31
0.0
  0
LINE
  8
0
 62
     0
 10
108.632
 20
47.8772
 30
0.0
 11
108.632
 21
46.8768
 31
0.0
  0
LINE
  8
0
 62
     0
 10
108.632
 20
46.8768
 30
0.0
 11
122.633
 21
46.8768
 31
0.0
  0
LINE
  8
0
 62
     0
 10
122.633
 20
46.8768
 30
0.0
 11
122.633
 21
47.8772
 31
0.0
  0
LINE
  8
0
 62
     0
 10
122.633
 20
47.8772
 30
0.0
 11
123.431
 21
47.8772
 31
0.0
  0
LINE
  8
0
 62
     0
 10
123.431
 20
47.8772
 30
0.0
 11
123.431
 21
50.9764
 31
0.0
  0
LINE
  8
0
 62
     0
 10
123.431
 20
50.9764
 30
0.0
 11
122.633
 21
50.9764
 31
0.0
  0
LINE
  8
0
 62
     0
 10
122.633
 20
50.9764
 30
0.0
 11
122.633
 21
56.7764
 31
0.0
  0
LINE
  8
0
 62
     0
 10
122.633
 20
56.7764
 30
0.0
 11
123.431
 21
56.7764
 31
0.0
  0
LINE
  8
0
 62
     0
 10
123.431
 20
56.7764
 30
0.0
 11
123.431
 21
59.877
 31
0.0
  0
LINE
  8
0
 62
     0
 10
123.431
 20
59.877
 30
0.0
 11
122.633
 21
59.877
 31
0.0
  0
LINE
  8
0
 62
     0
 10
122.633
 20
59.877
 30
0.0
 11
122.633
 21
60.8764
 31
0.0
  0
LINE
  8
0
 62
     0
 10
122.633
 20
60.8764
 30
0.0
 11
108.632
 21
60.8764
 31
0.0
  0
LINE
  8
0
 62
     0
 10
89.5823
 20
60.8764
 30
0.0
 11
89.5823
 21
59.877
 31
0.0
  0
LINE
  8
0
 62
     0
 10
89.5823
 20
59.877
 30
0.0
 11
88.7829
 21
59.877
 31
0.0
  0
LINE
  8
0
 62
     0
 10
88.7829
 20
59.877
 30
0.0
 11
88.7829
 21
56.7764
 31
0.0
  0
LINE
  8
0
 62
     0
 10
88.7829
 20
56.7764
 30
0.0
 11
89.5823
 21
56.7764
 31
0.0
  0
LINE
  8
0
 62
     0
 10
89.5823
 20
56.7764
 30
0.0
 11
89.5823
 21
50.9764
 31
0.0
  0
LINE
  8
0
 62
     0
 10
89.5823
 20
50.9764
 30
0.0
 11
88.7829
 21
50.9764
 31
0.0
  0
LINE
  8
0
 62
     0
 10
88.7829
 20
50.9764
 30
0.0
 11
88.7829
 21
47.8772
 31
0.0
  0
LINE
  8
0
 62
     0
 10
88.7829
 20
47.8772
 30
0.0
 11
89.5823
 21
47.8772
 31
0.0
  0
LINE
  8
0
 62
     0
 10
89.5823
 20
47.8772
 30
0.0
 11
89.5823
 21
46.8768
 31
0.0
  0
LINE
  8
0
 62
     0
 10
89.5823
 20
46.8768
 30
0.0
 11
103.583
 21
46.8768
 31
0.0
  0
LINE
  8
0
 62
     0
 10
103.583
 20
46.8768
 30
0.0
 11
103.583
 21
47.8772
 31
0.0
  0
LINE
  8
0
 62
     0
 10
103.583
 20
47.8772
 30
0.0
 11
104.382
 21
47.8772
 31
0.0
  0
LINE
  8
0
 62
     0
 10
104.382
 20
47.8772
 30
0.0
 11
104.382
 21
50.9764
 31
0.0
  0
LINE
  8
0
 62
     0
 10
104.382
 20
50.9764
 30
0.0
 11
103.583
 21
50.9764
 31
0.0
  0
LINE
  8
0
 62
     0
 10
103.583
 20
50.9764
 30
0.0
 11
103.583
 21
56.7764
 31
0.0
  0
LINE
  8
0
 62
     0
 10
103.583
 20
56.7764
 30
0.0
 11
104.382
 21
56.7764
 31
0.0
  0
LINE
  8
0
 62
     0
 10
104.382
 20
56.7764
 30
0.0
 11
104.382
 21
59.877
 31
0.0
  0
LINE
  8
0
 62
     0
 10
104.382
 20
59.877
 30
0.0
 11
103.583
 21
59.877
 31
0.0
  0
LINE
  8
0
 62
     0
 10
103.583
 20
59.877
 30
0.0
 11
103.583
 21
60.8764
 31
0.0
  0
LINE
  8
0
 62
     0
 10
103.583
 20
60.8764
 30
0.0
 11
89.5823
 21
60.8764
 31
0.0
  0
LINE
  8
0
 62
     0
 10
70.5323
 20
60.8764
 30
0.0
 11
70.5323
 21
59.877
 31
0.0
  0
LINE
  8
0
 62
     0
 10
70.5323
 20
59.877
 30
0.0
 11
69.7329
 21
59.877
 31
0.0
  0
LINE
  8
0
 62
     0
 10
69.7329
 20
59.877
 30
0.0
 11
69.7329
 21
56.7764
 31
0.0
  0
LINE
  8
0
 62
     0
 10
69.7329
 20
56.7764
 30
0.0
 11
70.5323
 21
56.7764
 31
0.0
  0
LINE
  8
0
 62
     0
 10
70.5323
 20
56.7764
 30
0.0
 11
70.5323
 21
50.9764
 31
0.0
  0
LINE
  8
0
 62
     0
 10
70.5323
 20
50.9764
 30
0.0
 11
69.7329
 21
50.9764
 31
0.0
  0
LINE
  8
0
 62
     0
 10
69.7329
 20
50.9764
 30
0.0
 11
69.7329
 21
47.8772
 31
0.0
  0
LINE
  8
0
 62
     0
 10
69.7329
 20
47.8772
 30
0.0
 11
70.5323
 21
47.8772
 31
0.0
  0
LINE
  8
0
 62
     0
 10
70.5323
 20
47.8772
 30
0.0
 11
70.5323
 21
46.8768
 31
0.0
  0
LINE
  8
0
 62
     0
 10
70.5323
 20
46.8768
 30
0.0
 11
84.533
 21
46.8768
 31
0.0
  0
LINE
  8
0
 62
     0
 10
84.533
 20
46.8768
 30
0.0
 11
84.533
 21
47.8772
 31
0.0
  0
LINE
  8
0
 62
     0
 10
84.533
 20
47.8772
 30
0.0
 11
85.3324
 21
47.8772
 31
0.0
  0
LINE
  8
0
 62
     0
 10
85.3324
 20
47.8772
 30
0.0
 11
85.3324
 21
50.9764
 31
0.0
  0
LINE
  8
0
 62
     0
 10
85.3324
 20
50.9764
 30
0.0
 11
84.533
 21
50.9764
 31
0.0
  0
LINE
  8
0
 62
     0
 10
84.533
 20
50.9764
 30
0.0
 11
84.533
 21
56.7764
 31
0.0
  0
LINE
  8
0
 62
     0
 10
84.533
 20
56.7764
 30
0.0
 11
85.3324
 21
56.7764
 31
0.0
  0
LINE
  8
0
 62
     0
 10
85.3324
 20
56.7764
 30
0.0
 11
85.3324
 21
59.877
 31
0.0
  0
LINE
  8
0
 62
     0
 10
85.3324
 20
59.877
 30
0.0
 11
84.533
 21
59.877
 31
0.0
  0
LINE
  8
0
 62
     0
 10
84.533
 20
59.877
 30
0.0
 11
84.533
 21
60.8764
 31
0.0
  0
LINE
  8
0
 62
     0
 10
84.533
 20
60.8764
 30
0.0
 11
70.5323
 21
60.8764
 31
0.0
  0
LINE
  8
0
 62
     0
 10
51.4823
 20
60.8764
 30
0.0
 11
51.4823
 21
59.877
 31
0.0
  0
LINE
  8
0
 62
     0
 10
51.4823
 20
59.877
 30
0.0
 11
50.6829
 21
59.877
 31
0.0
  0
LINE
  8
0
 62
     0
 10
50.6829
 20
59.877
 30
0.0
 11
50.6829
 21
56.7764
 31
0.0
  0
LINE
  8
0
 62
     0
 10
50.6829
 20
56.7764
 30
0.0
 11
51.4823
 21
56.7764
 31
0.0
  0
LINE
  8
0
 62
     0
 10
51.4823
 20
56.7764
 30
0.0
 11
51.4823
 21
50.9764
 31
0.0
  0
LINE
  8
0
 62
     0
 10
51.4823
 20
50.9764
 30
0.0
 11
50.6829
 21
50.9764
 31
0.0
  0
LINE
  8
0
 62
     0
 10
50.6829
 20
50.9764
 30
0.0
 11
50.6829
 21
47.8772
 31
0.0
  0
LINE
  8
0
 62
     0
 10
50.6829
 20
47.8772
 30
0.0
 11
51.4823
 21
47.8772
 31
0.0
  0
LINE
  8
0
 62
     0
 10
51.4823
 20
47.8772
 30
0.0
 11
51.4823
 21
46.8768
 31
0.0
  0
LINE
  8
0
 62
     0
 10
51.4823
 20
46.8768
 30
0.0
 11
65.483
 21
46.8768
 31
0.0
  0
LINE
  8
0
 62
     0
 10
65.483
 20
46.8768
 30
0.0
 11
65.483
 21
47.8772
 31
0.0
  0
LINE
  8
0
 62
     0
 10
65.483
 20
47.8772
 30
0.0
 11
66.2824
 21
47.8772
 31
0.0
  0
LINE
  8
0
 62
     0
 10
66.2824
 20
47.8772
 30
0.0
 11
66.2824
 21
50.9764
 31
0.0
  0
LINE
  8
0
 62
     0
 10
66.2824
 20
50.9764
 30
0.0
 11
65.483
 21
50.9764
 31
0.0
  0
LINE
  8
0
 62
     0
 10
65.483
 20
50.9764
 30
0.0
 11
65.483
 21
56.7764
 31
0.0
  0
LINE
  8
0
 62
     0
 10
65.483
 20
56.7764
 30
0.0
 11
66.2824
 21
56.7764
 31
0.0
  0
LINE
  8
0
 62
     0
 10
66.2824
 20
56.7764
 30
0.0
 11
66.2824
 21
59.877
 31
0.0
  0
LINE
  8
0
 62
     0
 10
66.2824
 20
59.877
 30
0.0
 11
65.483
 21
59.877
 31
0.0
  0
LINE
  8
0
 62
     0
 10
65.483
 20
59.877
 30
0.0
 11
65.483
 21
60.8764
 31
0.0
  0
LINE
  8
0
 62
     0
 10
65.483
 20
60.8764
 30
0.0
 11
51.4823
 21
60.8764
 31
0.0
  0
LINE
  8
0
 62
     0
 10
32.4321
 20
60.8764
 30
0.0
 11
32.4321
 21
59.877
 31
0.0
  0
LINE
  8
0
 62
     0
 10
32.4321
 20
59.877
 30
0.0
 11
31.6329
 21
59.877
 31
0.0
  0
LINE
  8
0
 62
     0
 10
31.6329
 20
59.877
 30
0.0
 11
31.6329
 21
56.7764
 31
0.0
  0
LINE
  8
0
 62
     0
 10
31.6329
 20
56.7764
 30
0.0
 11
32.4321
 21
56.7764
 31
0.0
  0
LINE
  8
0
 62
     0
 10
32.4321
 20
56.7764
 30
0.0
 11
32.4321
 21
50.9764
 31
0.0
  0
LINE
  8
0
 62
     0
 10
32.4321
 20
50.9764
 30
0.0
 11
31.6329
 21
50.9764
 31
0.0
  0
LINE
  8
0
 62
     0
 10
31.6329
 20
50.9764
 30
0.0
 11
31.6329
 21
47.8772
 31
0.0
  0
LINE
  8
0
 62
     0
 10
31.6329
 20
47.8772
 30
0.0
 11
32.4321
 21
47.8772
 31
0.0
  0
LINE
  8
0
 62
     0
 10
32.4321
 20
47.8772
 30
0.0
 11
32.4321
 21
46.8768
 31
0.0
  0
LINE
  8
0
 62
     0
 10
32.4321
 20
46.8768
 30
0.0
 11
46.433
 21
46.8768
 31
0.0
  0
LINE
  8
0
 62
     0
 10
46.433
 20
46.8768
 30
0.0
 11
46.433
 21
47.8772
 31
0.0
  0
LINE
  8
0
 62
     0
 10
46.433
 20
47.8772
 30
0.0
 11
47.2324
 21
47.8772
 31
0.0
  0
LINE
  8
0
 62
     0
 10
47.2324
 20
47.8772
 30
0.0
 11
47.2324
 21
50.9764
 31
0.0
  0
LINE
  8
0
 62
     0
 10
47.2324
 20
50.9764
 30
0.0
 11
46.433
 21
50.9764
 31
0.0
  0
LINE
  8
0
 62
     0
 10
46.433
 20
50.9764
 30
0.0
 11
46.433
 21
56.7764
 31
0.0
  0
LINE
  8
0
 62
     0
 10
46.433
 20
56.7764
 30
0.0
 11
47.2324
 21
56.7764
 31
0.0
  0
LINE
  8
0
 62
     0
 10
47.2324
 20
56.7764
 30
0.0
 11
47.2324
 21
59.877
 31
0.0
  0
LINE
  8
0
 62
     0
 10
47.2324
 20
59.877
 30
0.0
 11
46.433
 21
59.877
 31
0.0
  0
LINE
  8
0
 62
     0
 10
46.433
 20
59.877
 30
0.0
 11
46.433
 21
60.8764
 31
0.0
  0
LINE
  8
0
 62
     0
 10
46.433
 20
60.8764
 30
0.0
 11
32.4321
 21
60.8764
 31
0.0
  0
LINE
  8
0
 62
     0
 10
11.0009
 20
60.8764
 30
0.0
 11
11.0009
 21
59.877
 31
0.0
  0
LINE
  8
0
 62
     0
 10
11.0009
 20
59.877
 30
0.0
 11
10.2016
 21
59.877
 31
0.0
  0
LINE
  8
0
 62
     0
 10
10.2016
 20
59.877
 30
0.0
 11
10.2016
 21
56.7764
 31
0.0
  0
LINE
  8
0
 62
     0
 10
10.2016
 20
56.7764
 30
0.0
 11
11.0009
 21
56.7764
 31
0.0
  0
LINE
  8
0
 62
     0
 10
11.0009
 20
56.7764
 30
0.0
 11
11.0009
 21
50.9764
 31
0.0
  0
LINE
  8
0
 62
     0
 10
11.0009
 20
50.9764
 30
0.0
 11
10.2016
 21
50.9764
 31
0.0
  0
LINE
  8
0
 62
     0
 10
10.2016
 20
50.9764
 30
0.0
 11
10.2016
 21
47.8772
 31
0.0
  0
LINE
  8
0
 62
     0
 10
10.2016
 20
47.8772
 30
0.0
 11
11.0009
 21
47.8772
 31
0.0
  0
LINE
  8
0
 62
     0
 10
11.0009
 20
47.8772
 30
0.0
 11
11.0009
 21
46.8768
 31
0.0
  0
LINE
  8
0
 62
     0
 10
11.0009
 20
46.8768
 30
0.0
 11
25.0017
 21
46.8768
 31
0.0
  0
LINE
  8
0
 62
     0
 10
25.0017
 20
46.8768
 30
0.0
 11
25.0017
 21
47.8772
 31
0.0
  0
LINE
  8
0
 62
     0
 10
25.0017
 20
47.8772
 30
0.0
 11
25.801
 21
47.8772
 31
0.0
  0
LINE
  8
0
 62
     0
 10
25.801
 20
47.8772
 30
0.0
 11
25.801
 21
50.9764
 31
0.0
  0
LINE
  8
0
 62
     0
 10
25.801
 20
50.9764
 30
0.0
 11
25.0017
 21
50.9764
 31
0.0
  0
LINE
  8
0
 62
     0
 10
25.0017
 20
50.9764
 30
0.0
 11
25.0017
 21
56.7764
 31
0.0
  0
LINE
  8
0
 62
     0
 10
25.0017
 20
56.7764
 30
0.0
 11
25.801
 21
56.7764
 31
0.0
  0
LINE
  8
0
 62
     0
 10
25.801
 20
56.7764
 30
0.0
 11
25.801
 21
59.877
 31
0.0
  0
LINE
  8
0
 62
     0
 10
25.801
 20
59.877
 30
0.0
 11
25.0017
 21
59.877
 31
0.0
  0
LINE
  8
0
 62
     0
 10
25.0017
 20
59.877
 30
0.0
 11
25.0017
 21
60.8764
 31
0.0
  0
LINE
  8
0
 62
     0
 10
25.0017
 20
60.8764
 30
0.0
 11
11.0009
 21
60.8764
 31
0.0
  0
LINE
  8
0
 62
     0
 10
237.221
 20
79.9274
 30
0.0
 11
237.221
 21
78.927
 31
0.0
  0
LINE
  8
0
 62
     0
 10
237.221
 20
78.927
 30
0.0
 11
236.42
 21
78.927
 31
0.0
  0
LINE
  8
0
 62
     0
 10
236.42
 20
78.927
 30
0.0
 11
236.42
 21
75.8264
 31
0.0
  0
LINE
  8
0
 62
     0
 10
236.42
 20
75.8264
 30
0.0
 11
237.221
 21
75.8264
 31
0.0
  0
LINE
  8
0
 62
     0
 10
237.221
 20
75.8264
 30
0.0
 11
237.221
 21
70.0278
 31
0.0
  0
LINE
  8
0
 62
     0
 10
237.221
 20
70.0278
 30
0.0
 11
236.42
 21
70.0278
 31
0.0
  0
LINE
  8
0
 62
     0
 10
236.42
 20
70.0278
 30
0.0
 11
236.42
 21
66.9272
 31
0.0
  0
LINE
  8
0
 62
     0
 10
236.42
 20
66.9272
 30
0.0
 11
237.221
 21
66.9272
 31
0.0
  0
LINE
  8
0
 62
     0
 10
237.221
 20
66.9272
 30
0.0
 11
237.221
 21
65.9268
 31
0.0
  0
LINE
  8
0
 62
     0
 10
237.221
 20
65.9268
 30
0.0
 11
251.22
 21
65.9268
 31
0.0
  0
LINE
  8
0
 62
     0
 10
251.22
 20
65.9268
 30
0.0
 11
251.22
 21
66.9272
 31
0.0
  0
LINE
  8
0
 62
     0
 10
251.22
 20
66.9272
 30
0.0
 11
252.021
 21
66.9272
 31
0.0
  0
LINE
  8
0
 62
     0
 10
252.021
 20
66.9272
 30
0.0
 11
252.021
 21
70.0278
 31
0.0
  0
LINE
  8
0
 62
     0
 10
252.021
 20
70.0278
 30
0.0
 11
251.22
 21
70.0278
 31
0.0
  0
LINE
  8
0
 62
     0
 10
251.22
 20
70.0278
 30
0.0
 11
251.22
 21
75.8264
 31
0.0
  0
LINE
  8
0
 62
     0
 10
251.22
 20
75.8264
 30
0.0
 11
252.021
 21
75.8264
 31
0.0
  0
LINE
  8
0
 62
     0
 10
252.021
 20
75.8264
 30
0.0
 11
252.021
 21
78.927
 31
0.0
  0
LINE
  8
0
 62
     0
 10
252.021
 20
78.927
 30
0.0
 11
251.22
 21
78.927
 31
0.0
  0
LINE
  8
0
 62
     0
 10
251.22
 20
78.927
 30
0.0
 11
251.22
 21
79.9274
 31
0.0
  0
LINE
  8
0
 62
     0
 10
251.22
 20
79.9274
 30
0.0
 11
237.221
 21
79.9274
 31
0.0
  0
LINE
  8
0
 62
     0
 10
218.171
 20
79.9274
 30
0.0
 11
218.171
 21
78.927
 31
0.0
  0
LINE
  8
0
 62
     0
 10
218.171
 20
78.927
 30
0.0
 11
217.37
 21
78.927
 31
0.0
  0
LINE
  8
0
 62
     0
 10
217.37
 20
78.927
 30
0.0
 11
217.37
 21
75.8264
 31
0.0
  0
LINE
  8
0
 62
     0
 10
217.37
 20
75.8264
 30
0.0
 11
218.171
 21
75.8264
 31
0.0
  0
LINE
  8
0
 62
     0
 10
218.171
 20
75.8264
 30
0.0
 11
218.171
 21
70.0278
 31
0.0
  0
LINE
  8
0
 62
     0
 10
218.171
 20
70.0278
 30
0.0
 11
217.37
 21
70.0278
 31
0.0
  0
LINE
  8
0
 62
     0
 10
217.37
 20
70.0278
 30
0.0
 11
217.37
 21
66.9272
 31
0.0
  0
LINE
  8
0
 62
     0
 10
217.37
 20
66.9272
 30
0.0
 11
218.171
 21
66.9272
 31
0.0
  0
LINE
  8
0
 62
     0
 10
218.171
 20
66.9272
 30
0.0
 11
218.171
 21
65.9268
 31
0.0
  0
LINE
  8
0
 62
     0
 10
218.171
 20
65.9268
 30
0.0
 11
232.17
 21
65.9268
 31
0.0
  0
LINE
  8
0
 62
     0
 10
232.17
 20
65.9268
 30
0.0
 11
232.17
 21
66.9272
 31
0.0
  0
LINE
  8
0
 62
     0
 10
232.17
 20
66.9272
 30
0.0
 11
232.971
 21
66.9272
 31
0.0
  0
LINE
  8
0
 62
     0
 10
232.971
 20
66.9272
 30
0.0
 11
232.971
 21
70.0278
 31
0.0
  0
LINE
  8
0
 62
     0
 10
232.971
 20
70.0278
 30
0.0
 11
232.17
 21
70.0278
 31
0.0
  0
LINE
  8
0
 62
     0
 10
232.17
 20
70.0278
 30
0.0
 11
232.17
 21
75.8264
 31
0.0
  0
LINE
  8
0
 62
     0
 10
232.17
 20
75.8264
 30
0.0
 11
232.971
 21
75.8264
 31
0.0
  0
LINE
  8
0
 62
     0
 10
232.971
 20
75.8264
 30
0.0
 11
232.971
 21
78.927
 31
0.0
  0
LINE
  8
0
 62
     0
 10
232.971
 20
78.927
 30
0.0
 11
232.17
 21
78.927
 31
0.0
  0
LINE
  8
0
 62
     0
 10
232.17
 20
78.927
 30
0.0
 11
232.17
 21
79.9274
 31
0.0
  0
LINE
  8
0
 62
     0
 10
232.17
 20
79.9274
 30
0.0
 11
218.171
 21
79.9274
 31
0.0
  0
LINE
  8
0
 62
     0
 10
199.121
 20
79.9274
 30
0.0
 11
199.121
 21
78.927
 31
0.0
  0
LINE
  8
0
 62
     0
 10
199.121
 20
78.927
 30
0.0
 11
198.32
 21
78.927
 31
0.0
  0
LINE
  8
0
 62
     0
 10
198.32
 20
78.927
 30
0.0
 11
198.32
 21
75.8264
 31
0.0
  0
LINE
  8
0
 62
     0
 10
198.32
 20
75.8264
 30
0.0
 11
199.121
 21
75.8264
 31
0.0
  0
LINE
  8
0
 62
     0
 10
199.121
 20
75.8264
 30
0.0
 11
199.121
 21
70.0278
 31
0.0
  0
LINE
  8
0
 62
     0
 10
199.121
 20
70.0278
 30
0.0
 11
198.32
 21
70.0278
 31
0.0
  0
LINE
  8
0
 62
     0
 10
198.32
 20
70.0278
 30
0.0
 11
198.32
 21
66.9272
 31
0.0
  0
LINE
  8
0
 62
     0
 10
198.32
 20
66.9272
 30
0.0
 11
199.121
 21
66.9272
 31
0.0
  0
LINE
  8
0
 62
     0
 10
199.121
 20
66.9272
 30
0.0
 11
199.121
 21
65.9268
 31
0.0
  0
LINE
  8
0
 62
     0
 10
199.121
 20
65.9268
 30
0.0
 11
213.12
 21
65.9268
 31
0.0
  0
LINE
  8
0
 62
     0
 10
213.12
 20
65.9268
 30
0.0
 11
213.12
 21
66.9272
 31
0.0
  0
LINE
  8
0
 62
     0
 10
213.12
 20
66.9272
 30
0.0
 11
213.921
 21
66.9272
 31
0.0
  0
LINE
  8
0
 62
     0
 10
213.921
 20
66.9272
 30
0.0
 11
213.921
 21
70.0278
 31
0.0
  0
LINE
  8
0
 62
     0
 10
213.921
 20
70.0278
 30
0.0
 11
213.12
 21
70.0278
 31
0.0
  0
LINE
  8
0
 62
     0
 10
213.12
 20
70.0278
 30
0.0
 11
213.12
 21
75.8264
 31
0.0
  0
LINE
  8
0
 62
     0
 10
213.12
 20
75.8264
 30
0.0
 11
213.921
 21
75.8264
 31
0.0
  0
LINE
  8
0
 62
     0
 10
213.921
 20
75.8264
 30
0.0
 11
213.921
 21
78.927
 31
0.0
  0
LINE
  8
0
 62
     0
 10
213.921
 20
78.927
 30
0.0
 11
213.12
 21
78.927
 31
0.0
  0
LINE
  8
0
 62
     0
 10
213.12
 20
78.927
 30
0.0
 11
213.12
 21
79.9274
 31
0.0
  0
LINE
  8
0
 62
     0
 10
213.12
 20
79.9274
 30
0.0
 11
199.121
 21
79.9274
 31
0.0
  0
LINE
  8
0
 62
     0
 10
180.071
 20
79.9274
 30
0.0
 11
180.071
 21
78.927
 31
0.0
  0
LINE
  8
0
 62
     0
 10
180.071
 20
78.927
 30
0.0
 11
179.27
 21
78.927
 31
0.0
  0
LINE
  8
0
 62
     0
 10
179.27
 20
78.927
 30
0.0
 11
179.27
 21
75.8264
 31
0.0
  0
LINE
  8
0
 62
     0
 10
179.27
 20
75.8264
 30
0.0
 11
180.071
 21
75.8264
 31
0.0
  0
LINE
  8
0
 62
     0
 10
180.071
 20
75.8264
 30
0.0
 11
180.071
 21
70.0278
 31
0.0
  0
LINE
  8
0
 62
     0
 10
180.071
 20
70.0278
 30
0.0
 11
179.27
 21
70.0278
 31
0.0
  0
LINE
  8
0
 62
     0
 10
179.27
 20
70.0278
 30
0.0
 11
179.27
 21
66.9272
 31
0.0
  0
LINE
  8
0
 62
     0
 10
179.27
 20
66.9272
 30
0.0
 11
180.071
 21
66.9272
 31
0.0
  0
LINE
  8
0
 62
     0
 10
180.071
 20
66.9272
 30
0.0
 11
180.071
 21
65.9268
 31
0.0
  0
LINE
  8
0
 62
     0
 10
180.071
 20
65.9268
 30
0.0
 11
194.07
 21
65.9268
 31
0.0
  0
LINE
  8
0
 62
     0
 10
194.07
 20
65.9268
 30
0.0
 11
194.07
 21
66.9272
 31
0.0
  0
LINE
  8
0
 62
     0
 10
194.07
 20
66.9272
 30
0.0
 11
194.871
 21
66.9272
 31
0.0
  0
LINE
  8
0
 62
     0
 10
194.871
 20
66.9272
 30
0.0
 11
194.871
 21
70.0278
 31
0.0
  0
LINE
  8
0
 62
     0
 10
194.871
 20
70.0278
 30
0.0
 11
194.07
 21
70.0278
 31
0.0
  0
LINE
  8
0
 62
     0
 10
194.07
 20
70.0278
 30
0.0
 11
194.07
 21
75.8264
 31
0.0
  0
LINE
  8
0
 62
     0
 10
194.07
 20
75.8264
 30
0.0
 11
194.871
 21
75.8264
 31
0.0
  0
LINE
  8
0
 62
     0
 10
194.871
 20
75.8264
 30
0.0
 11
194.871
 21
78.927
 31
0.0
  0
LINE
  8
0
 62
     0
 10
194.871
 20
78.927
 30
0.0
 11
194.07
 21
78.927
 31
0.0
  0
LINE
  8
0
 62
     0
 10
194.07
 20
78.927
 30
0.0
 11
194.07
 21
79.9274
 31
0.0
  0
LINE
  8
0
 62
     0
 10
194.07
 20
79.9274
 30
0.0
 11
180.071
 21
79.9274
 31
0.0
  0
LINE
  8
0
 62
     0
 10
161.021
 20
79.9274
 30
0.0
 11
161.021
 21
78.927
 31
0.0
  0
LINE
  8
0
 62
     0
 10
161.021
 20
78.927
 30
0.0
 11
160.22
 21
78.927
 31
0.0
  0
LINE
  8
0
 62
     0
 10
160.22
 20
78.927
 30
0.0
 11
160.22
 21
75.8264
 31
0.0
  0
LINE
  8
0
 62
     0
 10
160.22
 20
75.8264
 30
0.0
 11
161.021
 21
75.8264
 31
0.0
  0
LINE
  8
0
 62
     0
 10
161.021
 20
75.8264
 30
0.0
 11
161.021
 21
70.0278
 31
0.0
  0
LINE
  8
0
 62
     0
 10
161.021
 20
70.0278
 30
0.0
 11
160.22
 21
70.0278
 31
0.0
  0
LINE
  8
0
 62
     0
 10
160.22
 20
70.0278
 30
0.0
 11
160.22
 21
66.9272
 31
0.0
  0
LINE
  8
0
 62
     0
 10
160.22
 20
66.9272
 30
0.0
 11
161.021
 21
66.9272
 31
0.0
  0
LINE
  8
0
 62
     0
 10
161.021
 20
66.9272
 30
0.0
 11
161.021
 21
65.9268
 31
0.0
  0
LINE
  8
0
 62
     0
 10
161.021
 20
65.9268
 30
0.0
 11
175.02
 21
65.9268
 31
0.0
  0
LINE
  8
0
 62
     0
 10
175.02
 20
65.9268
 30
0.0
 11
175.02
 21
66.9272
 31
0.0
  0
LINE
  8
0
 62
     0
 10
175.02
 20
66.9272
 30
0.0
 11
175.821
 21
66.9272
 31
0.0
  0
LINE
  8
0
 62
     0
 10
175.821
 20
66.9272
 30
0.0
 11
175.821
 21
70.0278
 31
0.0
  0
LINE
  8
0
 62
     0
 10
175.821
 20
70.0278
 30
0.0
 11
175.02
 21
70.0278
 31
0.0
  0
LINE
  8
0
 62
     0
 10
175.02
 20
70.0278
 30
0.0
 11
175.02
 21
75.8264
 31
0.0
  0
LINE
  8
0
 62
     0
 10
175.02
 20
75.8264
 30
0.0
 11
175.821
 21
75.8264
 31
0.0
  0
LINE
  8
0
 62
     0
 10
175.821
 20
75.8264
 30
0.0
 11
175.821
 21
78.927
 31
0.0
  0
LINE
  8
0
 62
     0
 10
175.821
 20
78.927
 30
0.0
 11
175.02
 21
78.927
 31
0.0
  0
LINE
  8
0
 62
     0
 10
175.02
 20
78.927
 30
0.0
 11
175.02
 21
79.9274
 31
0.0
  0
LINE
  8
0
 62
     0
 10
175.02
 20
79.9274
 30
0.0
 11
161.021
 21
79.9274
 31
0.0
  0
LINE
  8
0
 62
     0
 10
141.971
 20
79.9274
 30
0.0
 11
141.971
 21
78.927
 31
0.0
  0
LINE
  8
0
 62
     0
 10
141.971
 20
78.927
 30
0.0
 11
141.17
 21
78.927
 31
0.0
  0
LINE
  8
0
 62
     0
 10
141.17
 20
78.927
 30
0.0
 11
141.17
 21
75.8264
 31
0.0
  0
LINE
  8
0
 62
     0
 10
141.17
 20
75.8264
 30
0.0
 11
141.971
 21
75.8264
 31
0.0
  0
LINE
  8
0
 62
     0
 10
141.971
 20
75.8264
 30
0.0
 11
141.971
 21
70.0278
 31
0.0
  0
LINE
  8
0
 62
     0
 10
141.971
 20
70.0278
 30
0.0
 11
141.17
 21
70.0278
 31
0.0
  0
LINE
  8
0
 62
     0
 10
141.17
 20
70.0278
 30
0.0
 11
141.17
 21
66.9272
 31
0.0
  0
LINE
  8
0
 62
     0
 10
141.17
 20
66.9272
 30
0.0
 11
141.971
 21
66.9272
 31
0.0
  0
LINE
  8
0
 62
     0
 10
141.971
 20
66.9272
 30
0.0
 11
141.971
 21
65.9268
 31
0.0
  0
LINE
  8
0
 62
     0
 10
141.971
 20
65.9268
 30
0.0
 11
155.97
 21
65.9268
 31
0.0
  0
LINE
  8
0
 62
     0
 10
155.97
 20
65.9268
 30
0.0
 11
155.97
 21
66.9272
 31
0.0
  0
LINE
  8
0
 62
     0
 10
155.97
 20
66.9272
 30
0.0
 11
156.771
 21
66.9272
 31
0.0
  0
LINE
  8
0
 62
     0
 10
156.771
 20
66.9272
 30
0.0
 11
156.771
 21
70.0278
 31
0.0
  0
LINE
  8
0
 62
     0
 10
156.771
 20
70.0278
 30
0.0
 11
155.97
 21
70.0278
 31
0.0
  0
LINE
  8
0
 62
     0
 10
155.97
 20
70.0278
 30
0.0
 11
155.97
 21
75.8264
 31
0.0
  0
LINE
  8
0
 62
     0
 10
155.97
 20
75.8264
 30
0.0
 11
156.771
 21
75.8264
 31
0.0
  0
LINE
  8
0
 62
     0
 10
156.771
 20
75.8264
 30
0.0
 11
156.771
 21
78.927
 31
0.0
  0
LINE
  8
0
 62
     0
 10
156.771
 20
78.927
 30
0.0
 11
155.97
 21
78.927
 31
0.0
  0
LINE
  8
0
 62
     0
 10
155.97
 20
78.927
 30
0.0
 11
155.97
 21
79.9274
 31
0.0
  0
LINE
  8
0
 62
     0
 10
155.97
 20
79.9274
 30
0.0
 11
141.971
 21
79.9274
 31
0.0
  0
LINE
  8
0
 62
     0
 10
122.92
 20
79.9274
 30
0.0
 11
122.92
 21
78.927
 31
0.0
  0
LINE
  8
0
 62
     0
 10
122.92
 20
78.927
 30
0.0
 11
122.119
 21
78.927
 31
0.0
  0
LINE
  8
0
 62
     0
 10
122.119
 20
78.927
 30
0.0
 11
122.119
 21
75.8264
 31
0.0
  0
LINE
  8
0
 62
     0
 10
122.119
 20
75.8264
 30
0.0
 11
122.92
 21
75.8264
 31
0.0
  0
LINE
  8
0
 62
     0
 10
122.92
 20
75.8264
 30
0.0
 11
122.92
 21
70.0278
 31
0.0
  0
LINE
  8
0
 62
     0
 10
122.92
 20
70.0278
 30
0.0
 11
122.119
 21
70.0278
 31
0.0
  0
LINE
  8
0
 62
     0
 10
122.119
 20
70.0278
 30
0.0
 11
122.119
 21
66.9272
 31
0.0
  0
LINE
  8
0
 62
     0
 10
122.119
 20
66.9272
 30
0.0
 11
122.92
 21
66.9272
 31
0.0
  0
LINE
  8
0
 62
     0
 10
122.92
 20
66.9272
 30
0.0
 11
122.92
 21
65.9268
 31
0.0
  0
LINE
  8
0
 62
     0
 10
122.92
 20
65.9268
 30
0.0
 11
136.92
 21
65.9268
 31
0.0
  0
LINE
  8
0
 62
     0
 10
136.92
 20
65.9268
 30
0.0
 11
136.92
 21
66.9272
 31
0.0
  0
LINE
  8
0
 62
     0
 10
136.92
 20
66.9272
 30
0.0
 11
137.721
 21
66.9272
 31
0.0
  0
LINE
  8
0
 62
     0
 10
137.721
 20
66.9272
 30
0.0
 11
137.721
 21
70.0278
 31
0.0
  0
LINE
  8
0
 62
     0
 10
137.721
 20
70.0278
 30
0.0
 11
136.92
 21
70.0278
 31
0.0
  0
LINE
  8
0
 62
     0
 10
136.92
 20
70.0278
 30
0.0
 11
136.92
 21
75.8264
 31
0.0
  0
LINE
  8
0
 62
     0
 10
136.92
 20
75.8264
 30
0.0
 11
137.721
 21
75.8264
 31
0.0
  0
LINE
  8
0
 62
     0
 10
137.721
 20
75.8264
 30
0.0
 11
137.721
 21
78.927
 31
0.0
  0
LINE
  8
0
 62
     0
 10
137.721
 20
78.927
 30
0.0
 11
136.92
 21
78.927
 31
0.0
  0
LINE
  8
0
 62
     0
 10
136.92
 20
78.927
 30
0.0
 11
136.92
 21
79.9274
 31
0.0
  0
LINE
  8
0
 62
     0
 10
136.92
 20
79.9274
 30
0.0
 11
122.92
 21
79.9274
 31
0.0
  0
LINE
  8
0
 62
     0
 10
103.87
 20
79.9274
 30
0.0
 11
103.87
 21
78.927
 31
0.0
  0
LINE
  8
0
 62
     0
 10
103.87
 20
78.927
 30
0.0
 11
103.07
 21
78.927
 31
0.0
  0
LINE
  8
0
 62
     0
 10
103.07
 20
78.927
 30
0.0
 11
103.07
 21
75.8264
 31
0.0
  0
LINE
  8
0
 62
     0
 10
103.07
 20
75.8264
 30
0.0
 11
103.87
 21
75.8264
 31
0.0
  0
LINE
  8
0
 62
     0
 10
103.87
 20
75.8264
 30
0.0
 11
103.87
 21
70.0278
 31
0.0
  0
LINE
  8
0
 62
     0
 10
103.87
 20
70.0278
 30
0.0
 11
103.07
 21
70.0278
 31
0.0
  0
LINE
  8
0
 62
     0
 10
103.07
 20
70.0278
 30
0.0
 11
103.07
 21
66.9272
 31
0.0
  0
LINE
  8
0
 62
     0
 10
103.07
 20
66.9272
 30
0.0
 11
103.87
 21
66.9272
 31
0.0
  0
LINE
  8
0
 62
     0
 10
103.87
 20
66.9272
 30
0.0
 11
103.87
 21
65.9268
 31
0.0
  0
LINE
  8
0
 62
     0
 10
103.87
 20
65.9268
 30
0.0
 11
117.869
 21
65.9268
 31
0.0
  0
LINE
  8
0
 62
     0
 10
117.869
 20
65.9268
 30
0.0
 11
117.869
 21
66.9272
 31
0.0
  0
LINE
  8
0
 62
     0
 10
117.869
 20
66.9272
 30
0.0
 11
118.67
 21
66.9272
 31
0.0
  0
LINE
  8
0
 62
     0
 10
118.67
 20
66.9272
 30
0.0
 11
118.67
 21
70.0278
 31
0.0
  0
LINE
  8
0
 62
     0
 10
118.67
 20
70.0278
 30
0.0
 11
117.869
 21
70.0278
 31
0.0
  0
LINE
  8
0
 62
     0
 10
117.869
 20
70.0278
 30
0.0
 11
117.869
 21
75.8264
 31
0.0
  0
LINE
  8
0
 62
     0
 10
117.869
 20
75.8264
 30
0.0
 11
118.67
 21
75.8264
 31
0.0
  0
LINE
  8
0
 62
     0
 10
118.67
 20
75.8264
 30
0.0
 11
118.67
 21
78.927
 31
0.0
  0
LINE
  8
0
 62
     0
 10
118.67
 20
78.927
 30
0.0
 11
117.869
 21
78.927
 31
0.0
  0
LINE
  8
0
 62
     0
 10
117.869
 20
78.927
 30
0.0
 11
117.869
 21
79.9274
 31
0.0
  0
LINE
  8
0
 62
     0
 10
117.869
 20
79.9274
 30
0.0
 11
103.87
 21
79.9274
 31
0.0
  0
LINE
  8
0
 62
     0
 10
84.8212
 20
79.9274
 30
0.0
 11
84.8212
 21
78.927
 31
0.0
  0
LINE
  8
0
 62
     0
 10
84.8212
 20
78.927
 30
0.0
 11
84.0204
 21
78.927
 31
0.0
  0
LINE
  8
0
 62
     0
 10
84.0204
 20
78.927
 30
0.0
 11
84.0204
 21
75.8264
 31
0.0
  0
LINE
  8
0
 62
     0
 10
84.0204
 20
75.8264
 30
0.0
 11
84.8212
 21
75.8264
 31
0.0
  0
LINE
  8
0
 62
     0
 10
84.8212
 20
75.8264
 30
0.0
 11
84.8212
 21
70.0278
 31
0.0
  0
LINE
  8
0
 62
     0
 10
84.8212
 20
70.0278
 30
0.0
 11
84.0204
 21
70.0278
 31
0.0
  0
LINE
  8
0
 62
     0
 10
84.0204
 20
70.0278
 30
0.0
 11
84.0204
 21
66.9272
 31
0.0
  0
LINE
  8
0
 62
     0
 10
84.0204
 20
66.9272
 30
0.0
 11
84.8212
 21
66.9272
 31
0.0
  0
LINE
  8
0
 62
     0
 10
84.8212
 20
66.9272
 30
0.0
 11
84.8212
 21
65.9268
 31
0.0
  0
LINE
  8
0
 62
     0
 10
84.8212
 20
65.9268
 30
0.0
 11
98.8205
 21
65.9268
 31
0.0
  0
LINE
  8
0
 62
     0
 10
98.8205
 20
65.9268
 30
0.0
 11
98.8205
 21
66.9272
 31
0.0
  0
LINE
  8
0
 62
     0
 10
98.8205
 20
66.9272
 30
0.0
 11
99.6199
 21
66.9272
 31
0.0
  0
LINE
  8
0
 62
     0
 10
99.6199
 20
66.9272
 30
0.0
 11
99.6199
 21
70.0278
 31
0.0
  0
LINE
  8
0
 62
     0
 10
99.6199
 20
70.0278
 30
0.0
 11
98.8205
 21
70.0278
 31
0.0
  0
LINE
  8
0
 62
     0
 10
98.8205
 20
70.0278
 30
0.0
 11
98.8205
 21
75.8264
 31
0.0
  0
LINE
  8
0
 62
     0
 10
98.8205
 20
75.8264
 30
0.0
 11
99.6199
 21
75.8264
 31
0.0
  0
LINE
  8
0
 62
     0
 10
99.6199
 20
75.8264
 30
0.0
 11
99.6199
 21
78.927
 31
0.0
  0
LINE
  8
0
 62
     0
 10
99.6199
 20
78.927
 30
0.0
 11
98.8205
 21
78.927
 31
0.0
  0
LINE
  8
0
 62
     0
 10
98.8205
 20
78.927
 30
0.0
 11
98.8205
 21
79.9274
 31
0.0
  0
LINE
  8
0
 62
     0
 10
98.8205
 20
79.9274
 30
0.0
 11
84.8212
 21
79.9274
 31
0.0
  0
LINE
  8
0
 62
     0
 10
65.7712
 20
79.9274
 30
0.0
 11
65.7712
 21
78.927
 31
0.0
  0
LINE
  8
0
 62
     0
 10
65.7712
 20
78.927
 30
0.0
 11
64.9704
 21
78.927
 31
0.0
  0
LINE
  8
0
 62
     0
 10
64.9704
 20
78.927
 30
0.0
 11
64.9704
 21
75.8264
 31
0.0
  0
LINE
  8
0
 62
     0
 10
64.9704
 20
75.8264
 30
0.0
 11
65.7712
 21
75.8264
 31
0.0
  0
LINE
  8
0
 62
     0
 10
65.7712
 20
75.8264
 30
0.0
 11
65.7712
 21
70.0278
 31
0.0
  0
LINE
  8
0
 62
     0
 10
65.7712
 20
70.0278
 30
0.0
 11
64.9704
 21
70.0278
 31
0.0
  0
LINE
  8
0
 62
     0
 10
64.9704
 20
70.0278
 30
0.0
 11
64.9704
 21
66.9272
 31
0.0
  0
LINE
  8
0
 62
     0
 10
64.9704
 20
66.9272
 30
0.0
 11
65.7712
 21
66.9272
 31
0.0
  0
LINE
  8
0
 62
     0
 10
65.7712
 20
66.9272
 30
0.0
 11
65.7712
 21
65.9268
 31
0.0
  0
LINE
  8
0
 62
     0
 10
65.7712
 20
65.9268
 30
0.0
 11
79.7705
 21
65.9268
 31
0.0
  0
LINE
  8
0
 62
     0
 10
79.7705
 20
65.9268
 30
0.0
 11
79.7705
 21
66.9272
 31
0.0
  0
LINE
  8
0
 62
     0
 10
79.7705
 20
66.9272
 30
0.0
 11
80.5713
 21
66.9272
 31
0.0
  0
LINE
  8
0
 62
     0
 10
80.5713
 20
66.9272
 30
0.0
 11
80.5713
 21
70.0278
 31
0.0
  0
LINE
  8
0
 62
     0
 10
80.5713
 20
70.0278
 30
0.0
 11
79.7705
 21
70.0278
 31
0.0
  0
LINE
  8
0
 62
     0
 10
79.7705
 20
70.0278
 30
0.0
 11
79.7705
 21
75.8264
 31
0.0
  0
LINE
  8
0
 62
     0
 10
79.7705
 20
75.8264
 30
0.0
 11
80.5713
 21
75.8264
 31
0.0
  0
LINE
  8
0
 62
     0
 10
80.5713
 20
75.8264
 30
0.0
 11
80.5713
 21
78.927
 31
0.0
  0
LINE
  8
0
 62
     0
 10
80.5713
 20
78.927
 30
0.0
 11
79.7705
 21
78.927
 31
0.0
  0
LINE
  8
0
 62
     0
 10
79.7705
 20
78.927
 30
0.0
 11
79.7705
 21
79.9274
 31
0.0
  0
LINE
  8
0
 62
     0
 10
79.7705
 20
79.9274
 30
0.0
 11
65.7712
 21
79.9274
 31
0.0
  0
LINE
  8
0
 62
     0
 10
46.7212
 20
79.9274
 30
0.0
 11
46.7212
 21
78.927
 31
0.0
  0
LINE
  8
0
 62
     0
 10
46.7212
 20
78.927
 30
0.0
 11
45.9204
 21
78.927
 31
0.0
  0
LINE
  8
0
 62
     0
 10
45.9204
 20
78.927
 30
0.0
 11
45.9204
 21
75.8264
 31
0.0
  0
LINE
  8
0
 62
     0
 10
45.9204
 20
75.8264
 30
0.0
 11
46.7212
 21
75.8264
 31
0.0
  0
LINE
  8
0
 62
     0
 10
46.7212
 20
75.8264
 30
0.0
 11
46.7212
 21
70.0278
 31
0.0
  0
LINE
  8
0
 62
     0
 10
46.7212
 20
70.0278
 30
0.0
 11
45.9204
 21
70.0278
 31
0.0
  0
LINE
  8
0
 62
     0
 10
45.9204
 20
70.0278
 30
0.0
 11
45.9204
 21
66.9272
 31
0.0
  0
LINE
  8
0
 62
     0
 10
45.9204
 20
66.9272
 30
0.0
 11
46.7212
 21
66.9272
 31
0.0
  0
LINE
  8
0
 62
     0
 10
46.7212
 20
66.9272
 30
0.0
 11
46.7212
 21
65.9268
 31
0.0
  0
LINE
  8
0
 62
     0
 10
46.7212
 20
65.9268
 30
0.0
 11
60.7205
 21
65.9268
 31
0.0
  0
LINE
  8
0
 62
     0
 10
60.7205
 20
65.9268
 30
0.0
 11
60.7205
 21
66.9272
 31
0.0
  0
LINE
  8
0
 62
     0
 10
60.7205
 20
66.9272
 30
0.0
 11
61.5213
 21
66.9272
 31
0.0
  0
LINE
  8
0
 62
     0
 10
61.5213
 20
66.9272
 30
0.0
 11
61.5213
 21
70.0278
 31
0.0
  0
LINE
  8
0
 62
     0
 10
61.5213
 20
70.0278
 30
0.0
 11
60.7205
 21
70.0278
 31
0.0
  0
LINE
  8
0
 62
     0
 10
60.7205
 20
70.0278
 30
0.0
 11
60.7205
 21
75.8264
 31
0.0
  0
LINE
  8
0
 62
     0
 10
60.7205
 20
75.8264
 30
0.0
 11
61.5213
 21
75.8264
 31
0.0
  0
LINE
  8
0
 62
     0
 10
61.5213
 20
75.8264
 30
0.0
 11
61.5213
 21
78.927
 31
0.0
  0
LINE
  8
0
 62
     0
 10
61.5213
 20
78.927
 30
0.0
 11
60.7205
 21
78.927
 31
0.0
  0
LINE
  8
0
 62
     0
 10
60.7205
 20
78.927
 30
0.0
 11
60.7205
 21
79.9274
 31
0.0
  0
LINE
  8
0
 62
     0
 10
60.7205
 20
79.9274
 30
0.0
 11
46.7212
 21
79.9274
 31
0.0
  0
LINE
  8
0
 62
     0
 10
27.671
 20
79.9274
 30
0.0
 11
27.671
 21
78.927
 31
0.0
  0
LINE
  8
0
 62
     0
 10
27.671
 20
78.927
 30
0.0
 11
26.8704
 21
78.927
 31
0.0
  0
LINE
  8
0
 62
     0
 10
26.8704
 20
78.927
 30
0.0
 11
26.8704
 21
75.8264
 31
0.0
  0
LINE
  8
0
 62
     0
 10
26.8704
 20
75.8264
 30
0.0
 11
27.671
 21
75.8264
 31
0.0
  0
LINE
  8
0
 62
     0
 10
27.671
 20
75.8264
 30
0.0
 11
27.671
 21
70.0278
 31
0.0
  0
LINE
  8
0
 62
     0
 10
27.671
 20
70.0278
 30
0.0
 11
26.8704
 21
70.0278
 31
0.0
  0
LINE
  8
0
 62
     0
 10
26.8704
 20
70.0278
 30
0.0
 11
26.8704
 21
66.9272
 31
0.0
  0
LINE
  8
0
 62
     0
 10
26.8704
 20
66.9272
 30
0.0
 11
27.671
 21
66.9272
 31
0.0
  0
LINE
  8
0
 62
     0
 10
27.671
 20
66.9272
 30
0.0
 11
27.671
 21
65.9268
 31
0.0
  0
LINE
  8
0
 62
     0
 10
27.671
 20
65.9268
 30
0.0
 11
41.6705
 21
65.9268
 31
0.0
  0
LINE
  8
0
 62
     0
 10
41.6705
 20
65.9268
 30
0.0
 11
41.6705
 21
66.9272
 31
0.0
  0
LINE
  8
0
 62
     0
 10
41.6705
 20
66.9272
 30
0.0
 11
42.4713
 21
66.9272
 31
0.0
  0
LINE
  8
0
 62
     0
 10
42.4713
 20
66.9272
 30
0.0
 11
42.4713
 21
70.0278
 31
0.0
  0
LINE
  8
0
 62
     0
 10
42.4713
 20
70.0278
 30
0.0
 11
41.6705
 21
70.0278
 31
0.0
  0
LINE
  8
0
 62
     0
 10
41.6705
 20
70.0278
 30
0.0
 11
41.6705
 21
75.8264
 31
0.0
  0
LINE
  8
0
 62
     0
 10
41.6705
 20
75.8264
 30
0.0
 11
42.4713
 21
75.8264
 31
0.0
  0
LINE
  8
0
 62
     0
 10
42.4713
 20
75.8264
 30
0.0
 11
42.4713
 21
78.927
 31
0.0
  0
LINE
  8
0
 62
     0
 10
42.4713
 20
78.927
 30
0.0
 11
41.6705
 21
78.927
 31
0.0
  0
LINE
  8
0
 62
     0
 10
41.6705
 20
78.927
 30
0.0
 11
41.6705
 21
79.9274
 31
0.0
  0
LINE
  8
0
 62
     0
 10
41.6705
 20
79.9274
 30
0.0
 11
27.671
 21
79.9274
 31
0.0
  0
LINE
  8
0
 62
     0
 10
8.61963
 20
79.9274
 30
0.0
 11
8.61963
 21
78.927
 31
0.0
  0
LINE
  8
0
 62
     0
 10
8.61963
 20
78.927
 30
0.0
 11
7.819
 21
78.927
 31
0.0
  0
LINE
  8
0
 62
     0
 10
7.819
 20
78.927
 30
0.0
 11
7.819
 21
75.8264
 31
0.0
  0
LINE
  8
0
 62
     0
 10
7.819
 20
75.8264
 30
0.0
 11
8.61963
 21
75.8264
 31
0.0
  0
LINE
  8
0
 62
     0
 10
8.61963
 20
75.8264
 30
0.0
 11
8.61963
 21
70.0278
 31
0.0
  0
LINE
  8
0
 62
     0
 10
8.61963
 20
70.0278
 30
0.0
 11
7.819
 21
70.0278
 31
0.0
  0
LINE
  8
0
 62
     0
 10
7.819
 20
70.0278
 30
0.0
 11
7.819
 21
66.9272
 31
0.0
  0
LINE
  8
0
 62
     0
 10
7.819
 20
66.9272
 30
0.0
 11
8.61963
 21
66.9272
 31
0.0
  0
LINE
  8
0
 62
     0
 10
8.61963
 20
66.9272
 30
0.0
 11
8.61963
 21
65.9268
 31
0.0
  0
LINE
  8
0
 62
     0
 10
8.61963
 20
65.9268
 30
0.0
 11
22.6205
 21
65.9268
 31
0.0
  0
LINE
  8
0
 62
     0
 10
22.6205
 20
65.9268
 30
0.0
 11
22.6205
 21
66.9272
 31
0.0
  0
LINE
  8
0
 62
     0
 10
22.6205
 20
66.9272
 30
0.0
 11
23.4211
 21
66.9272
 31
0.0
  0
LINE
  8
0
 62
     0
 10
23.4211
 20
66.9272
 30
0.0
 11
23.4211
 21
70.0278
 31
0.0
  0
LINE
  8
0
 62
     0
 10
23.4211
 20
70.0278
 30
0.0
 11
22.6205
 21
70.0278
 31
0.0
  0
LINE
  8
0
 62
     0
 10
22.6205
 20
70.0278
 30
0.0
 11
22.6205
 21
75.8264
 31
0.0
  0
LINE
  8
0
 62
     0
 10
22.6205
 20
75.8264
 30
0.0
 11
23.4211
 21
75.8264
 31
0.0
  0
LINE
  8
0
 62
     0
 10
23.4211
 20
75.8264
 30
0.0
 11
23.4211
 21
78.927
 31
0.0
  0
LINE
  8
0
 62
     0
 10
23.4211
 20
78.927
 30
0.0
 11
22.6205
 21
78.927
 31
0.0
  0
LINE
  8
0
 62
     0
 10
22.6205
 20
78.927
 30
0.0
 11
22.6205
 21
79.9274
 31
0.0
  0
LINE
  8
0
 62
     0
 10
22.6205
 20
79.9274
 30
0.0
 11
8.61963
 21
79.9274
 31
0.0
  0
LINE
  8
0
 62
     0
 10
2.78501
 20
86.4044
 30
0.0
 11
2.50803
 21
86.2612
 31
0.0
  0
LINE
  8
0
 62
     0
 10
2.50803
 20
86.2612
 30
0.0
 11
2.28617
 21
86.0393
 31
0.0
  0
LINE
  8
0
 62
     0
 10
2.28617
 20
86.0393
 30
0.0
 11
2.14285
 21
85.762
 31
0.0
  0
LINE
  8
0
 62
     0
 10
2.14285
 20
85.762
 30
0.0
 11
2.09462
 21
85.4523
 31
0.0
  0
LINE
  8
0
 62
     0
 10
2.09462
 20
85.4523
 30
0.0
 11
2.14285
 21
85.1422
 31
0.0
  0
LINE
  8
0
 62
     0
 10
2.14285
 20
85.1422
 30
0.0
 11
2.28617
 21
84.8653
 31
0.0
  0
LINE
  8
0
 62
     0
 10
2.28617
 20
84.8653
 30
0.0
 11
2.50803
 21
84.6434
 31
0.0
  0
LINE
  8
0
 62
     0
 10
2.50803
 20
84.6434
 30
0.0
 11
2.78501
 21
84.5012
 31
0.0
  0
LINE
  8
0
 62
     0
 10
2.78501
 20
84.5012
 30
0.0
 11
3.09507
 21
84.4518
 31
0.0
  0
LINE
  8
0
 62
     0
 10
3.09507
 20
84.4518
 30
0.0
 11
3.40513
 21
84.5012
 31
0.0
  0
LINE
  8
0
 62
     0
 10
3.40513
 20
84.5012
 30
0.0
 11
3.68212
 21
84.6434
 31
0.0
  0
LINE
  8
0
 62
     0
 10
3.68212
 20
84.6434
 30
0.0
 11
3.90398
 21
84.8653
 31
0.0
  0
LINE
  8
0
 62
     0
 10
3.90398
 20
84.8653
 30
0.0
 11
4.04594
 21
85.1422
 31
0.0
  0
LINE
  8
0
 62
     0
 10
4.04594
 20
85.1422
 30
0.0
 11
4.09554
 21
85.4523
 31
0.0
  0
LINE
  8
0
 62
     0
 10
4.09554
 20
85.4523
 30
0.0
 11
4.04594
 21
85.762
 31
0.0
  0
LINE
  8
0
 62
     0
 10
4.04594
 20
85.762
 30
0.0
 11
3.90398
 21
86.0393
 31
0.0
  0
LINE
  8
0
 62
     0
 10
3.90398
 20
86.0393
 30
0.0
 11
3.68212
 21
86.2612
 31
0.0
  0
LINE
  8
0
 62
     0
 10
3.68212
 20
86.2612
 30
0.0
 11
3.40513
 21
86.4044
 31
0.0
  0
LINE
  8
0
 62
     0
 10
3.40513
 20
86.4044
 30
0.0
 11
3.09507
 21
86.4514
 31
0.0
  0
LINE
  8
0
 62
     0
 10
3.09507
 20
86.4514
 30
0.0
 11
2.78501
 21
86.4044
 31
0.0
  0
LINE
  8
0
 62
     0
 10
256.436
 20
86.4044
 30
0.0
 11
256.158
 21
86.2612
 31
0.0
  0
LINE
  8
0
 62
     0
 10
256.158
 20
86.2612
 30
0.0
 11
255.936
 21
86.0393
 31
0.0
  0
LINE
  8
0
 62
     0
 10
255.936
 20
86.0393
 30
0.0
 11
255.794
 21
85.762
 31
0.0
  0
LINE
  8
0
 62
     0
 10
255.794
 20
85.762
 30
0.0
 11
255.746
 21
85.4523
 31
0.0
  0
LINE
  8
0
 62
     0
 10
255.746
 20
85.4523
 30
0.0
 11
255.794
 21
85.1422
 31
0.0
  0
LINE
  8
0
 62
     0
 10
255.794
 20
85.1422
 30
0.0
 11
255.936
 21
84.8653
 31
0.0
  0
LINE
  8
0
 62
     0
 10
255.936
 20
84.8653
 30
0.0
 11
256.158
 21
84.6434
 31
0.0
  0
LINE
  8
0
 62
     0
 10
256.158
 20
84.6434
 30
0.0
 11
256.436
 21
84.5012
 31
0.0
  0
LINE
  8
0
 62
     0
 10
256.436
 20
84.5012
 30
0.0
 11
256.746
 21
84.4518
 31
0.0
  0
LINE
  8
0
 62
     0
 10
256.746
 20
84.4518
 30
0.0
 11
257.055
 21
84.5012
 31
0.0
  0
LINE
  8
0
 62
     0
 10
257.055
 20
84.5012
 30
0.0
 11
257.333
 21
84.6434
 31
0.0
  0
LINE
  8
0
 62
     0
 10
257.333
 20
84.6434
 30
0.0
 11
257.555
 21
84.8653
 31
0.0
  0
LINE
  8
0
 62
     0
 10
257.555
 20
84.8653
 30
0.0
 11
257.697
 21
85.1422
 31
0.0
  0
LINE
  8
0
 62
     0
 10
257.697
 20
85.1422
 30
0.0
 11
257.747
 21
85.4523
 31
0.0
  0
LINE
  8
0
 62
     0
 10
257.747
 20
85.4523
 30
0.0
 11
257.697
 21
85.762
 31
0.0
  0
LINE
  8
0
 62
     0
 10
257.697
 20
85.762
 30
0.0
 11
257.555
 21
86.0393
 31
0.0
  0
LINE
  8
0
 62
     0
 10
257.555
 20
86.0393
 30
0.0
 11
257.333
 21
86.2612
 31
0.0
  0
LINE
  8
0
 62
     0
 10
257.333
 20
86.2612
 30
0.0
 11
257.055
 21
86.4044
 31
0.0
  0
LINE
  8
0
 62
     0
 10
257.055
 20
86.4044
 30
0.0
 11
256.746
 21
86.4514
 31
0.0
  0
LINE
  8
0
 62
     0
 10
256.746
 20
86.4514
 30
0.0
 11
256.436
 21
86.4044
 31
0.0
  0
LINE
  8
0
 62
     0
 10
129.611
 20
86.4044
 30
0.0
 11
129.333
 21
86.2612
 31
0.0
  0
LINE
  8
0
 62
     0
 10
129.333
 20
86.2612
 30
0.0
 11
129.111
 21
86.0393
 31
0.0
  0
LINE
  8
0
 62
     0
 10
129.111
 20
86.0393
 30
0.0
 11
128.969
 21
85.762
 31
0.0
  0
LINE
  8
0
 62
     0
 10
128.969
 20
85.762
 30
0.0
 11
128.921
 21
85.4523
 31
0.0
  0
LINE
  8
0
 62
     0
 10
128.921
 20
85.4523
 30
0.0
 11
128.969
 21
85.1422
 31
0.0
  0
LINE
  8
0
 62
     0
 10
128.969
 20
85.1422
 30
0.0
 11
129.111
 21
84.8653
 31
0.0
  0
LINE
  8
0
 62
     0
 10
129.111
 20
84.8653
 30
0.0
 11
129.333
 21
84.6434
 31
0.0
  0
LINE
  8
0
 62
     0
 10
129.333
 20
84.6434
 30
0.0
 11
129.611
 21
84.5012
 31
0.0
  0
LINE
  8
0
 62
     0
 10
129.611
 20
84.5012
 30
0.0
 11
129.92
 21
84.4518
 31
0.0
  0
LINE
  8
0
 62
     0
 10
129.92
 20
84.4518
 30
0.0
 11
130.23
 21
84.5012
 31
0.0
  0
LINE
  8
0
 62
     0
 10
130.23
 20
84.5012
 30
0.0
 11
130.508
 21
84.6434
 31
0.0
  0
LINE
  8
0
 62
     0
 10
130.508
 20
84.6434
 30
0.0
 11
130.729
 21
84.8653
 31
0.0
  0
LINE
  8
0
 62
     0
 10
130.729
 20
84.8653
 30
0.0
 11
130.871
 21
85.1422
 31
0.0
  0
LINE
  8
0
 62
     0
 10
130.871
 20
85.1422
 30
0.0
 11
130.92
 21
85.4523
 31
0.0
  0
LINE
  8
0
 62
     0
 10
130.92
 20
85.4523
 30
0.0
 11
130.871
 21
85.762
 31
0.0
  0
LINE
  8
0
 62
     0
 10
130.871
 20
85.762
 30
0.0
 11
130.729
 21
86.0393
 31
0.0
  0
LINE
  8
0
 62
     0
 10
130.729
 20
86.0393
 30
0.0
 11
130.508
 21
86.2612
 31
0.0
  0
LINE
  8
0
 62
     0
 10
130.508
 20
86.2612
 30
0.0
 11
130.23
 21
86.4044
 31
0.0
  0
LINE
  8
0
 62
     0
 10
130.23
 20
86.4044
 30
0.0
 11
129.92
 21
86.4514
 31
0.0
  0
LINE
  8
0
 62
     0
 10
129.92
 20
86.4514
 30
0.0
 11
129.611
 21
86.4044
 31
0.0
  0
ENDSEC
  0
EOF
