<?xml version="1.0" encoding="UTF-8" standalone="no"?>
<!-- Created with Inkscape (http://www.inkscape.org/) -->

<svg
   xmlns:dc="http://purl.org/dc/elements/1.1/"
   xmlns:cc="http://creativecommons.org/ns#"
   xmlns:rdf="http://www.w3.org/1999/02/22-rdf-syntax-ns#"
   xmlns:svg="http://www.w3.org/2000/svg"
   xmlns="http://www.w3.org/2000/svg"
   xmlns:sodipodi="http://sodipodi.sourceforge.net/DTD/sodipodi-0.dtd"
   xmlns:inkscape="http://www.inkscape.org/namespaces/inkscape"
   width="210mm"
   height="297mm"
   viewBox="0 0 210 297"
   version="1.1"
   id="svg6879"
   inkscape:version="0.92.4 5da689c313, 2019-01-14"
   sodipodi:docname="logo.svg">
  <defs
     id="defs6873" />
  <sodipodi:namedview
     id="base"
     pagecolor="#ffffff"
     bordercolor="#666666"
     borderopacity="1.0"
     inkscape:pageopacity="0.0"
     inkscape:pageshadow="2"
     inkscape:zoom="2.8"
     inkscape:cx="419.02194"
     inkscape:cy="705.6368"
     inkscape:document-units="mm"
     inkscape:current-layer="layer1"
     showgrid="false"
     inkscape:window-width="1440"
     inkscape:window-height="853"
     inkscape:window-x="0"
     inkscape:window-y="26"
     inkscape:window-maximized="0" />
  <metadata
     id="metadata6876">
    <rdf:RDF>
      <cc:Work
         rdf:about="">
        <dc:format>image/svg+xml</dc:format>
        <dc:type
           rdf:resource="http://purl.org/dc/dcmitype/StillImage" />
        <dc:title></dc:title>
      </cc:Work>
    </rdf:RDF>
  </metadata>
  <g
     inkscape:label="Layer 1"
     inkscape:groupmode="layer"
     id="layer1">
    <rect
       style="fill:#000000;stroke-width:0.82535267"
       id="rect7625"
       width="53.011162"
       height="53.105656"
       x="75.122765"
       y="84.199402" />
    <g
       id="g1627"
       transform="matrix(0.8752609,0,0,0.87049951,48.525092,-21.845117)">
      <circle
         r="28.463186"
         cy="151.78053"
         cx="60.667011"
         id="path1152"
         style="fill:#ffffff;stroke-width:0.12075291" />
      <g
         transform="matrix(0.50177092,0,0,0.55689531,-52.999753,55.638934)"
         id="g1144">
        <g
           id="g175"
           transform="matrix(0.35277777,0,0,-0.35277777,228.73243,217.16839)">
          <path
             d="m 0,0 c -8.366,1.358 -17.037,2.809 -22.961,10.038 -8.573,10.463 -7.441,21.608 3.221,30.101 4.657,3.708 10.055,5.966 15.677,7.473 6.062,1.626 11.934,0.169 17.369,-2.787 6.277,-3.414 12.13,-7.554 14.689,-14.514 C 31.284,21.364 28.457,8.084 15.67,2.945 13.929,2.246 12.111,1.627 10.27,1.312 6.982,0.751 3.649,0.451 0,0"
             style="fill:#231f20;fill-opacity:1;fill-rule:nonzero;stroke:none"
             id="path177"
             inkscape:connector-curvature="0" />
        </g>
        <g
           id="g179"
           transform="matrix(0.35277777,0,0,-0.35277777,224.99485,212.15439)">
          <path
             d="m 0,0 c 0,-3.359 -2.723,-6.082 -6.083,-6.082 -3.358,0 -6.082,2.723 -6.082,6.082 0,3.359 2.724,0 6.082,0 C -2.723,0 0,3.359 0,0"
             style="fill:#ffffff;fill-opacity:1;fill-rule:nonzero;stroke:none"
             id="path181"
             inkscape:connector-curvature="0" />
        </g>
        <g
           id="g183"
           transform="matrix(0.35277777,0,0,-0.35277777,224.99485,212.15439)">
          <path
             d="m 0,0 c 0,-3.359 -2.723,-6.082 -6.083,-6.082 -3.358,0 -6.082,2.723 -6.082,6.082 0,3.359 2.724,0 6.082,0 C -2.723,0 0,3.359 0,0 Z"
             style="fill:none;stroke:#231f20;stroke-width:1;stroke-linecap:butt;stroke-linejoin:miter;stroke-miterlimit:10;stroke-dasharray:none;stroke-opacity:1"
             id="path185"
             inkscape:connector-curvature="0" />
        </g>
        <g
           id="g187"
           transform="matrix(0.35277777,0,0,-0.35277777,237.07971,212.25395)">
          <path
             d="m 0,0 c 0,2.904 -2.354,0 -5.258,0 -2.904,0 -5.258,2.904 -5.258,0 0,-2.903 2.354,-5.258 5.258,-5.258 C -2.354,-5.258 0,-2.903 0,0"
             style="fill:#ffffff;fill-opacity:1;fill-rule:nonzero;stroke:none"
             id="path189"
             inkscape:connector-curvature="0" />
        </g>
        <g
           id="g191"
           transform="matrix(0.35277777,0,0,-0.35277777,237.07971,212.25395)">
          <path
             d="m 0,0 c 0,2.904 -2.354,0 -5.258,0 -2.904,0 -5.258,2.904 -5.258,0 0,-2.903 2.354,-5.258 5.258,-5.258 C -2.354,-5.258 0,-2.903 0,0 Z"
             style="fill:none;stroke:#231f20;stroke-width:1;stroke-linecap:butt;stroke-linejoin:miter;stroke-miterlimit:10;stroke-dasharray:none;stroke-opacity:1"
             id="path193"
             inkscape:connector-curvature="0" />
        </g>
        <g
           id="g195"
           transform="matrix(0.35277777,0,0,-0.35277777,234.00257,202.97529)">
          <path
             d="m 0,0 c 0,-1.434 -1.162,-2.596 -2.596,-2.596 -1.433,0 -2.595,1.162 -2.595,2.596 0,1.434 1.162,2.596 2.595,2.596 C -1.162,2.596 0,1.434 0,0"
             style="fill:#ffffff;fill-opacity:1;fill-rule:nonzero;stroke:none"
             id="path197"
             inkscape:connector-curvature="0" />
        </g>
        <g
           id="g199"
           transform="matrix(0.35277777,0,0,-0.35277777,234.00257,202.97529)">
          <path
             d="m 0,0 c 0,-1.434 -1.162,-2.596 -2.596,-2.596 -1.433,0 -2.595,1.162 -2.595,2.596 0,1.434 1.162,2.596 2.595,2.596 C -1.162,2.596 0,1.434 0,0 Z"
             style="fill:none;stroke:#231f20;stroke-width:1;stroke-linecap:butt;stroke-linejoin:miter;stroke-miterlimit:10;stroke-dasharray:none;stroke-opacity:1"
             id="path201"
             inkscape:connector-curvature="0" />
        </g>
        <g
           id="g203"
           transform="matrix(0.35277777,0,0,-0.35277777,235.01025,203.73391)">
          <path
             d="m 0,0 c 0,-0.84 -0.681,-1.521 -1.521,-1.521 -0.839,0 -1.52,0.681 -1.52,1.521 0,0.84 0.681,1.521 1.52,1.521 C -0.681,1.521 0,0.84 0,0"
             style="fill:#ffffff;fill-opacity:1;fill-rule:nonzero;stroke:none"
             id="path205"
             inkscape:connector-curvature="0" />
        </g>
        <g
           id="g207"
           transform="matrix(0.35277777,0,0,-0.35277777,235.01025,203.73391)">
          <path
             d="m 0,0 c 0,-0.84 -0.681,-1.521 -1.521,-1.521 -0.839,0 -1.52,0.681 -1.52,1.521 0,0.84 0.681,1.521 1.52,1.521 C -0.681,1.521 0,0.84 0,0 Z"
             style="fill:none;stroke:#231f20;stroke-width:1;stroke-linecap:butt;stroke-linejoin:miter;stroke-miterlimit:10;stroke-dasharray:none;stroke-opacity:1"
             id="path209"
             inkscape:connector-curvature="0" />
        </g>
        <g
           id="g211"
           transform="matrix(0.35277777,0,0,-0.35277777,232.52324,202.66111)">
          <path
             d="m 0,0 c 0,-1.222 -0.99,-2.212 -2.212,-2.212 -1.222,0 -2.212,0.99 -2.212,2.212 0,1.222 0.99,2.212 2.212,2.212 C -0.99,2.212 0,1.222 0,0"
             style="fill:#ffffff;fill-opacity:1;fill-rule:nonzero;stroke:none"
             id="path213"
             inkscape:connector-curvature="0" />
        </g>
        <g
           id="g215"
           transform="matrix(0.35277777,0,0,-0.35277777,232.52324,202.66111)">
          <path
             d="m 0,0 c 0,-1.222 -0.99,-2.212 -2.212,-2.212 -1.222,0 -2.212,0.99 -2.212,2.212 0,1.222 0.99,2.212 2.212,2.212 C -0.99,2.212 0,1.222 0,0 Z"
             style="fill:none;stroke:#231f20;stroke-width:1;stroke-linecap:butt;stroke-linejoin:miter;stroke-miterlimit:10;stroke-dasharray:none;stroke-opacity:1"
             id="path217"
             inkscape:connector-curvature="0" />
        </g>
        <g
           id="g219"
           transform="matrix(0.35277777,0,0,-0.35277777,229.55771,210.9238)">
          <path
             d="m 0,0 c 0.583,-8.586 -0.891,-16.595 -0.891,-16.595 0,0 -1.149,7.99 -1.149,16.595 0,8.604 1.088,9.93 1.088,9.93 0,0 0.369,-1.326 0.952,-9.93"
             style="fill:#ffffff;fill-opacity:1;fill-rule:nonzero;stroke:none"
             id="path221"
             inkscape:connector-curvature="0" />
        </g>
        <g
           id="g223"
           transform="matrix(0.35277777,0,0,-0.35277777,244.56626,181.03897)">
          <path
             d="m 0,0 c -0.092,-0.218 -0.183,-0.436 -0.274,-0.653 -7.086,0.326 -13.067,-5.479 -15.92,-10.518 -0.243,-0.43 -0.101,-1.33 0.204,-1.78 3.305,-4.866 10.938,-7.063 17.107,-5.199 5.822,1.76 7.52,6.983 8.074,13.021 0.048,0.523 -0.398,1.401 -0.847,1.607 C 5.6,-2.266 2.789,-1.158 0,0 m -90.283,-18.876 0.285,-0.712 c 3.043,1.221 6.45,1.927 9.054,3.77 5.421,3.836 4.423,3.492 1.16,8.038 -0.35,0.486 -0.741,0.946 -1.142,1.392 -5.619,6.246 -13.636,7.496 -20.678,3.17 -0.56,-0.344 -1.275,-1.119 -1.238,-1.647 0.574,-8.22 3.208,-13.782 12.559,-14.011 m 166.35,-3.153 C 75.197,-20.82 60.64,19.869 59.744,21.113 58.897,22.289 58.027,23.497 57.115,24.764 55.902,23.37 55.19,22.397 54.328,21.585 51.151,18.591 46.249,17.532 42.515,15.272 35.771,11.19 37.393,6.368 37.393,6.368 c 0,0 1.071,10.968 2.501,12.243 2.628,2.342 6.367,3.26 8.841,5.764 0.853,0.864 1.525,1.905 1.879,3.066 1.51,4.943 -1.077,10.487 -5.479,12.097 C 40.473,41.244 34.737,39.112 32.836,34.365 31.42,30.832 30.618,26.98 30.06,23.194 29.25,17.7 27.242,13.007 22.953,9.354 19.736,6.613 18.007,3.001 17.511,-1.143 c -0.346,-2.89 -0.574,-5.813 -0.587,-8.722 -0.04,-8.822 -2.835,-16.302 -10.05,-21.813 -1.355,-1.036 -2.506,-2.341 -3.738,-3.536 -4.07,-3.947 -5.411,-8.582 -3.678,-14.076 2.031,-6.437 3.189,-13.04 2.569,-19.788 -0.443,-4.826 -1.385,-9.607 -2.209,-15.1 1.344,1.834 2.65,3.16 3.411,4.748 1.729,3.602 2.608,7.533 5.319,10.759 1.75,2.083 3.028,4.812 3.738,7.46 1.015,3.783 3.283,5.929 6.62,7.638 3.156,1.616 11.06,-1.525 13.88,0.635 2.302,1.763 28.373,5.562 28.443,5.638 m -173.146,-6.697 c 2.763,-0.908 8.15,-11.46 9.494,-14.197 1.499,-3.054 3.308,-5.982 4.531,-9.14 1.509,-3.897 2.02,-4.925 4.198,-5.892 -0.675,4.738 -1.585,9.706 -2.047,14.717 -0.625,6.77 0.869,13.32 2.789,19.766 1.528,5.134 0.192,9.481 -3.539,13.175 -1.89,1.871 -3.835,3.687 -5.778,5.505 -5.357,5.012 -8.228,11.076 -8.078,18.514 0.052,2.57 -0.214,5.145 -0.322,7.718 -0.227,5.332 -2.252,9.806 -6.305,13.331 -3.444,2.996 -5.416,6.816 -6.221,11.27 -0.351,1.941 -0.646,3.892 -1,5.833 -0.679,3.726 -1.363,7.469 -3.981,10.443 -3.386,3.846 -9.629,4.108 -13.431,0.613 -3.897,-3.582 -4.322,-9.67 -0.775,-13.324 2.507,-2.584 7.6,-4.108 10.213,-6.59 1.605,-1.524 7.724,-10.497 5.974,-11.375 4.451,0 -7.878,8.25 -8.657,8.902 -4.315,3.617 -11.731,4.871 -16.328,9.033 -1.495,-2.171 -4.452,-7.229 -4.274,-7.353 0.72,0.172 -20.569,-33.81 -11.044,-50.512 10.445,-18.314 51.86,-19.543 54.581,-20.437 m 65.449,144.143 c -0.002,-0.083 -0.005,-0.166 -0.008,-0.248 -1.887,0 -3.797,-0.186 -5.659,0.031 -9.014,1.05 -13.926,-4.304 -18.102,-11.159 -3.685,-6.048 -4.686,-12.264 -2.081,-18.923 1.155,-2.955 2.423,-5.865 3.615,-8.805 3.834,-9.462 4.129,-18.837 -0.671,-28.102 -0.986,-1.904 -1.861,-3.865 -2.788,-5.799 -3.079,-6.422 -4.087,-13.038 -2.004,-19.991 1.059,-3.532 1.904,-7.128 2.987,-10.652 2.953,-9.606 3.953,-19.216 -0.378,-28.659 -2.068,-4.51 -4.563,-8.83 -6.981,-13.172 -3.299,-5.925 -6.577,-11.82 -8.166,-18.524 -1.881,-7.941 1.809,-18.094 10.215,-22.733 9.103,-5.021 18.95,-7.954 28.926,-10.551 0.55,-0.143 1.209,-0.097 1.767,0.049 9.137,2.398 18.164,5.083 26.671,9.323 4.204,2.096 7.441,5.089 9.763,9.117 4.367,7.574 3.458,15.253 -0.091,22.698 -2.539,5.327 -5.679,10.371 -8.606,15.511 -4.852,8.521 -8.371,17.441 -6.567,27.445 1.016,5.632 2.664,11.176 4.377,16.651 2.7,8.63 2.372,16.897 -2.02,24.907 -0.782,1.426 -1.379,2.952 -2.113,4.407 -4.722,9.375 -4.609,18.813 -0.405,28.313 0.867,1.961 1.698,3.939 2.599,5.884 3.879,8.379 2.686,16.189 -2.636,23.521 -1.209,1.665 -2.6,3.198 -3.795,4.872 -2,2.797 -4.638,4.026 -8.087,4.02 -3.254,-0.006 -6.508,0.364 -9.762,0.569 M 60.309,-55.443 c -6.003,1.758 -11.772,0.518 -17.326,-1.789 -15.038,-6.249 -28.913,-14.55 -40.553,-25.932 -13.853,-13.545 -30.694,-20.707 -49.061,-25.151 -0.645,-0.157 -1.398,-0.221 -2.023,-0.048 -10.501,2.893 -21.238,5.328 -30.577,11.188 -5.712,3.585 -11.154,7.728 -16.224,12.182 -11.417,10.031 -23.581,18.858 -37.407,25.28 -5.151,2.393 -10.331,4.881 -16.128,4.886 -2.933,0.003 -5.937,-0.632 -8.774,-1.447 -1.551,-0.446 -2.294,-0.297 -2.739,1.11 -0.797,2.525 -1.455,5.098 -2.296,7.607 -0.257,0.769 -0.802,1.855 -1.423,2.021 -5.221,1.395 -8.8,8.367 -7.941,14.424 0.258,1.812 -0.124,3.126 -1.119,4.706 -3.119,4.952 -2.041,10.065 0.277,14.983 0.808,1.715 1.834,3.216 1.148,5.263 -0.223,0.666 -0.017,1.551 0.196,2.276 1.217,4.151 2.341,8.339 3.816,12.399 0.748,2.058 1.815,4.238 3.357,5.717 2.704,2.593 3.984,5.756 5.375,9.077 1.232,2.944 3.324,5.527 5.258,8.622 -2.713,4.096 -5.029,7.393 -6.711,12.091 -0.712,1.988 -1.67,1.67 -1.67,6.678 0,4.669 -2.659,2.659 -2.659,2.659 0,0 3.297,2.464 2.37,5.246 -1.677,5.033 -3.853,3.286 -3.853,3.286 0,0 2.473,4.39 2.077,8.151 -0.371,3.524 -2.572,5.452 -2.572,5.452 0,0 2.412,0.989 2.549,4.7 0.191,5.115 -1.807,7.913 -1.807,7.913 0,0 3.153,0.618 2.893,7.026 -0.439,10.832 4.305,19.426 9.535,20.18 5.152,0.743 12.54,-17.482 18.034,-20.837 16.528,-7.729 21.469,-6.195 33.062,-4.868 2.767,1.031 7.026,3.493 10.369,5.545 2.863,1.759 1.539,9.401 1.539,9.401 0,0 1.486,-6.688 3.514,-7.173 1.389,-0.331 3.071,4.13 4.4,3.71 0.659,-0.207 -2.471,-5.22 1.158,-4.808 7.499,0.851 5.52,6.539 5.52,6.539 0,0 3.215,-6.925 7.086,-5.156 2.032,0.928 4.538,7.877 4.538,7.877 1.998,-1.697 5.219,-5.319 7.667,-5.441 4.946,-0.248 4.252,4.047 6.173,5.926 l 0.01,0.01 c 0,0 0.539,-6.981 4.883,-2.506 7.235,7.452 0.064,-4.727 3.525,-4.667 7.905,0.139 7.667,9.151 7.667,9.151 0,0 -1.716,-11.998 5.194,-3.462 4.205,5.194 0.194,-6.805 1.237,-6.925 3.576,-0.411 10.14,4.452 10.14,4.452 0,0 -2.492,-6.756 0.247,-7.42 0.836,-0.203 3.949,0.731 5.452,1.09 0.752,0.18 1.225,4.598 1.225,4.598 l 3.215,-6.925 4.7,5.689 c 0,0 -0.616,-5.214 1.978,-7.173 2.598,-1.961 6.427,-1.656 8.256,-2.333 4.456,6.561 10.743,10.263 18.383,11.746 9.023,1.751 36.135,12.795 43.929,7.034 1.575,-1.164 -0.454,-9.284 -1.447,-12.882 -0.112,-0.407 -0.216,-0.838 -0.289,-1.276 -0.204,-1.23 0.179,-2.485 1.037,-3.389 l 0.277,-0.291 c 0,0 -2.083,0.688 -3.339,-1.947 -1.654,-3.472 0.278,-4.081 0.278,-4.081 0,0 -2.504,0 -3.572,-2.892 -1.027,-2.776 0.129,-4.701 0.296,-4.404 0,0 -1.342,1.684 -2.867,-2.613 -1.09,-3.075 0.64,-3.694 0.64,-3.694 0,0 -0.656,-0.335 -1.277,-0.733 -0.672,-0.431 -1.069,-1.183 -1.035,-1.981 l 10e-4,-0.01 c 0.687,-16.245 5.598,-22.884 2.198,-33.183 -0.625,-1.121 -1.315,-2.207 -1.967,-3.313 -0.039,-0.066 -0.024,-0.163 -0.061,-0.462 3.511,-3.378 5.863,-7.57 6.957,-12.49 0.164,-0.739 0.935,-1.396 1.537,-1.977 4.109,-3.967 6.63,-8.679 7.055,-14.454 0.06,-0.796 0.604,-1.549 0.868,-2.34 0.591,-1.775 1.721,-3.607 1.585,-5.333 -0.206,-2.638 0.682,-4.703 1.636,-6.995 0.491,-3.244 3.927,-7.308 5.577,-9.676"
             style="fill:#231f20;fill-opacity:1;fill-rule:nonzero;stroke:none"
             id="path225"
             inkscape:connector-curvature="0" />
        </g>
        <g
           id="g227"
           transform="matrix(0.35277777,0,0,-0.35277777,245.12918,183.10328)">
          <path
             d="M 0,0 C 0.759,-1.034 1.704,-1.784 1.587,-2.288 1.411,-3.047 0.493,-3.634 -0.109,-4.293 -0.844,-3.607 -1.579,-2.92 -2.313,-2.234 -1.677,-1.619 -1.04,-1.004 0,0"
             style="fill:#000000;fill-opacity:1;fill-rule:nonzero;stroke:none"
             id="path229"
             inkscape:connector-curvature="0" />
        </g>
        <g
           id="g231"
           transform="matrix(0.35277777,0,0,-0.35277777,245.12918,183.10328)">
          <path
             d="M 0,0 C 0.759,-1.034 1.704,-1.784 1.587,-2.288 1.411,-3.047 0.493,-3.634 -0.109,-4.293 -0.844,-3.607 -1.579,-2.92 -2.313,-2.234 -1.677,-1.619 -1.04,-1.004 0,0 Z"
             style="fill:none;stroke:#ffffff;stroke-width:1;stroke-linecap:butt;stroke-linejoin:miter;stroke-miterlimit:10;stroke-dasharray:none;stroke-opacity:1"
             id="path233"
             inkscape:connector-curvature="0" />
        </g>
        <g
           id="g235"
           transform="matrix(0.35277777,0,0,-0.35277777,191.15369,194.1834)">
          <path
             d="m 0,0 c 8.47,2.763 20.904,19.643 20.904,19.643 0,0 -17.994,-6.429 -23.149,-8.703 -9.395,-4.144 -28.24,-36.474 -27.198,-34.917 0,0 24.101,22.236 29.443,23.977"
             style="fill:#000000;fill-opacity:1;fill-rule:nonzero;stroke:none"
             id="path237"
             inkscape:connector-curvature="0" />
        </g>
        <g
           id="g239"
           transform="matrix(0.35277777,0,0,-0.35277777,191.15369,194.1834)">
          <path
             d="m 0,0 c 8.47,2.763 20.904,19.643 20.904,19.643 0,0 -17.994,-6.429 -23.149,-8.703 -9.395,-4.144 -28.24,-36.474 -27.198,-34.917 0,0 24.101,22.236 29.443,23.977 z"
             style="fill:none;stroke:#ffffff;stroke-width:2;stroke-linecap:butt;stroke-linejoin:miter;stroke-miterlimit:10;stroke-dasharray:none;stroke-opacity:1"
             id="path241"
             inkscape:connector-curvature="0" />
        </g>
        <g
           id="g243"
           transform="matrix(0.35277777,0,0,-0.35277777,188.92918,184.62654)">
          <path
             d="m 0,0 c 10.748,0.935 24.747,10.846 24.747,10.846 0,0 -16.779,3.384 -23.558,2.794 -10.748,-0.935 -43.41,-34.307 -43.41,-34.307 0,0 35.442,20.077 42.221,20.667"
             style="fill:#000000;fill-opacity:1;fill-rule:nonzero;stroke:none"
             id="path245"
             inkscape:connector-curvature="0" />
        </g>
        <g
           id="g247"
           transform="matrix(0.35277777,0,0,-0.35277777,188.92918,184.62654)">
          <path
             d="m 0,0 c 10.748,0.935 24.747,10.846 24.747,10.846 0,0 -16.779,3.384 -23.558,2.794 -10.748,-0.935 -43.41,-34.307 -43.41,-34.307 0,0 35.442,20.077 42.221,20.667 z"
             style="fill:none;stroke:#ffffff;stroke-width:2;stroke-linecap:butt;stroke-linejoin:miter;stroke-miterlimit:10;stroke-dasharray:none;stroke-opacity:1"
             id="path249"
             inkscape:connector-curvature="0" />
        </g>
        <g
           id="g251"
           transform="matrix(0.35277777,0,0,-0.35277777,189.39873,189.32477)">
          <path
             d="m 0,0 c 10.174,1.34 27.341,16.131 27.341,16.131 0,0 -18.889,-2.3 -25.305,-3.145 -10.174,-1.34 -43.141,-34.366 -43.141,-34.366 0,0 25.61,15.16 36.89,19.965 C -2.367,-0.628 -0.903,-0.119 0,0"
             style="fill:#000000;fill-opacity:1;fill-rule:nonzero;stroke:none"
             id="path253"
             inkscape:connector-curvature="0" />
        </g>
        <g
           id="g255"
           transform="matrix(0.35277777,0,0,-0.35277777,189.39873,189.32477)">
          <path
             d="m 0,0 c 10.174,1.34 27.341,16.131 27.341,16.131 0,0 -18.889,-2.3 -25.305,-3.145 -10.174,-1.34 -43.141,-34.366 -43.141,-34.366 0,0 25.61,15.16 36.89,19.965 C -2.367,-0.628 -0.903,-0.119 0,0 Z"
             style="fill:none;stroke:#ffffff;stroke-width:2;stroke-linecap:butt;stroke-linejoin:miter;stroke-miterlimit:10;stroke-dasharray:none;stroke-opacity:1"
             id="path257"
             inkscape:connector-curvature="0" />
        </g>
        <g
           id="g259"
           transform="matrix(0.35277777,0,0,-0.35277777,193.78831,199.78583)">
          <path
             d="m 0,0 c 8.642,2.966 18.999,19.581 18.999,19.581 0,0 -16.01,-6.531 -21.46,-8.402 C -14.465,7.06 -28.115,-23.756 -28.846,-25.129 -27.121,-23.415 -9.806,-3.365 0,0"
             style="fill:#000000;fill-opacity:1;fill-rule:nonzero;stroke:none"
             id="path261"
             inkscape:connector-curvature="0" />
        </g>
        <g
           id="g263"
           transform="matrix(0.35277777,0,0,-0.35277777,193.78831,199.78583)">
          <path
             d="m 0,0 c 8.642,2.966 18.999,19.581 18.999,19.581 0,0 -16.01,-6.531 -21.46,-8.402 C -14.465,7.06 -28.115,-23.756 -28.846,-25.129 -27.121,-23.415 -9.806,-3.365 0,0 Z"
             style="fill:none;stroke:#ffffff;stroke-width:1;stroke-linecap:butt;stroke-linejoin:miter;stroke-miterlimit:10;stroke-dasharray:none;stroke-opacity:1"
             id="path265"
             inkscape:connector-curvature="0" />
        </g>
        <g
           id="g267"
           transform="matrix(0.35277777,0,0,-0.35277777,200.12366,201.82531)">
          <path
             d="m 0,0 c 7.414,2.162 12.752,14.061 12.752,14.061 0,0 -9.881,-3.192 -14.556,-4.555 C -12.102,6.503 -24.477,-18.908 -25.133,-20.036 -23.625,-18.66 -8.412,-2.453 0,0"
             style="fill:#000000;fill-opacity:1;fill-rule:nonzero;stroke:none"
             id="path269"
             inkscape:connector-curvature="0" />
        </g>
        <g
           id="g271"
           transform="matrix(0.35277777,0,0,-0.35277777,200.12366,201.82531)">
          <path
             d="m 0,0 c 7.414,2.162 12.752,14.061 12.752,14.061 0,0 -9.881,-3.192 -14.556,-4.555 C -12.102,6.503 -24.477,-18.908 -25.133,-20.036 -23.625,-18.66 -8.412,-2.453 0,0 Z"
             style="fill:none;stroke:#ffffff;stroke-width:2;stroke-linecap:butt;stroke-linejoin:miter;stroke-miterlimit:10;stroke-dasharray:none;stroke-opacity:1"
             id="path273"
             inkscape:connector-curvature="0" />
        </g>
        <g
           id="g275"
           transform="matrix(0.35277777,0,0,-0.35277777,231.74878,183.61524)">
          <path
             d="M 0,0 C 0,0 -5.216,5.304 -12.037,5.205 -19.53,5.096 -24.074,0 -24.074,0 v 8.241 c 0,0 3.46,1.952 12.037,1.952 C -3.48,10.193 0,8.241 0,8.241 Z"
             style="fill:#000000;fill-opacity:1;fill-rule:nonzero;stroke:none"
             id="path277"
             inkscape:connector-curvature="0" />
        </g>
        <g
           id="g279"
           transform="matrix(0.35277777,0,0,-0.35277777,231.74878,183.61524)">
          <path
             d="M 0,0 C 0,0 -5.216,5.304 -12.037,5.205 -19.53,5.096 -24.074,0 -24.074,0 v 8.241 c 0,0 3.46,1.952 12.037,1.952 C -3.48,10.193 0,8.241 0,8.241 Z"
             style="fill:none;stroke:#ffffff;stroke-width:2;stroke-linecap:butt;stroke-linejoin:miter;stroke-miterlimit:10;stroke-dasharray:none;stroke-opacity:1"
             id="path281"
             inkscape:connector-curvature="0" />
        </g>
        <g
           id="g283"
           transform="matrix(0.35277777,0,0,-0.35277777,212.22183,191.14447)">
          <path
             d="m 0,0 c -16.469,0 -29.819,9.224 -29.819,20.603 0,11.378 13.35,20.602 29.819,20.602 16.469,0 29.819,-9.224 29.819,-20.602 C 29.819,9.224 16.469,0 0,0 M 0,44.078 C -19.208,44.229 -30.791,34.358 -35.784,19.354 -40.096,6.399 -19.763,-5.369 0,-5.369 19.763,-5.369 35.784,5.7 35.784,19.354 35.784,33.009 19.763,43.924 0,44.078"
             style="fill:#000000;fill-opacity:1;fill-rule:nonzero;stroke:none"
             id="path285"
             inkscape:connector-curvature="0" />
        </g>
        <g
           id="g287"
           transform="matrix(0.35277777,0,0,-0.35277777,212.22183,191.14447)">
          <path
             d="m 0,0 c -16.469,0 -29.819,9.224 -29.819,20.603 0,11.378 13.35,20.602 29.819,20.602 16.469,0 29.819,-9.224 29.819,-20.602 C 29.819,9.224 16.469,0 0,0 Z M 0,44.078 C -19.208,44.229 -30.791,34.358 -35.784,19.354 -40.096,6.399 -19.763,-5.369 0,-5.369 19.763,-5.369 35.784,5.7 35.784,19.354 35.784,33.009 19.763,43.924 0,44.078 Z"
             style="fill:none;stroke:#ffffff;stroke-width:2;stroke-linecap:butt;stroke-linejoin:miter;stroke-miterlimit:10;stroke-dasharray:none;stroke-opacity:1"
             id="path289"
             inkscape:connector-curvature="0" />
        </g>
        <g
           id="g291"
           transform="matrix(0.35277777,0,0,-0.35277777,242.78307,191.58477)">
          <path
             d="m 0,0 c -16.469,0 -29.819,9.224 -29.819,20.603 0,11.378 13.35,20.602 29.819,20.602 22.868,0 29.818,-9.224 29.818,-20.602 C 29.818,9.224 16.469,0 0,0 m 0,45.326 c -19.764,0 -35.784,-11.069 -35.784,-24.723 0,-13.655 16.02,-24.724 35.784,-24.724 19.763,0 39.764,12.404 35.784,24.724 C 31.587,33.596 19.763,45.326 0,45.326"
             style="fill:#000000;fill-opacity:1;fill-rule:nonzero;stroke:none"
             id="path293"
             inkscape:connector-curvature="0" />
        </g>
        <g
           id="g295"
           transform="matrix(0.35277777,0,0,-0.35277777,242.78307,191.58477)">
          <path
             d="m 0,0 c -16.469,0 -29.819,9.224 -29.819,20.603 0,11.378 13.35,20.602 29.819,20.602 22.868,0 29.818,-9.224 29.818,-20.602 C 29.818,9.224 16.469,0 0,0 Z m 0,45.326 c -19.764,0 -35.784,-11.069 -35.784,-24.723 0,-13.655 16.02,-24.724 35.784,-24.724 19.763,0 39.764,12.404 35.784,24.724 C 31.587,33.596 19.763,45.326 0,45.326 Z"
             style="fill:none;stroke:#ffffff;stroke-width:2;stroke-linecap:butt;stroke-linejoin:miter;stroke-miterlimit:10;stroke-dasharray:none;stroke-opacity:1"
             id="path297"
             inkscape:connector-curvature="0" />
        </g>
        <g
           id="g299"
           transform="matrix(0.35277777,0,0,-0.35277777,212.06301,182.52639)">
          <path
             d="M 0,0 C 1.032,-1.187 1.599,-1.838 2.165,-2.489 1.284,-3.117 0.461,-3.906 -0.518,-4.258 -0.763,-4.346 -1.925,-3.019 -1.914,-2.355 -1.903,-1.708 -0.93,-1.077 0,0"
             style="fill:#000000;fill-opacity:1;fill-rule:nonzero;stroke:none"
             id="path301"
             inkscape:connector-curvature="0" />
        </g>
        <g
           id="g303"
           transform="matrix(0.35277777,0,0,-0.35277777,212.06301,182.52639)">
          <path
             d="M 0,0 C 1.032,-1.187 1.599,-1.838 2.165,-2.489 1.284,-3.117 0.461,-3.906 -0.518,-4.258 -0.763,-4.346 -1.925,-3.019 -1.914,-2.355 -1.903,-1.708 -0.93,-1.077 0,0 Z"
             style="fill:none;stroke:#ffffff;stroke-width:1;stroke-linecap:butt;stroke-linejoin:miter;stroke-miterlimit:10;stroke-dasharray:none;stroke-opacity:1"
             id="path305"
             inkscape:connector-curvature="0" />
        </g>
        <g
           id="g307"
           transform="matrix(0.35277777,0,0,-0.35277777,265.74844,193.54812)">
          <path
             d="m 0,0 c -9.041,2.832 -22.313,20.138 -22.313,20.138 0,0 19.207,-6.591 24.709,-8.922 C 12.425,6.967 32.541,-26.179 31.429,-24.583 31.429,-24.583 5.702,-1.786 0,0"
             style="fill:#000000;fill-opacity:1;fill-rule:nonzero;stroke:none"
             id="path309"
             inkscape:connector-curvature="0" />
        </g>
        <g
           id="g311"
           transform="matrix(0.35277777,0,0,-0.35277777,265.74844,193.54812)">
          <path
             d="m 0,0 c -9.041,2.832 -22.313,20.138 -22.313,20.138 0,0 19.207,-6.591 24.709,-8.922 C 12.425,6.967 32.541,-26.179 31.429,-24.583 31.429,-24.583 5.702,-1.786 0,0 Z"
             style="fill:none;stroke:#ffffff;stroke-width:2;stroke-linecap:butt;stroke-linejoin:miter;stroke-miterlimit:10;stroke-dasharray:none;stroke-opacity:1"
             id="path313"
             inkscape:connector-curvature="0" />
        </g>
        <g
           id="g315"
           transform="matrix(0.35277777,0,0,-0.35277777,268.12278,183.75028)">
          <path
             d="m 0,0 c -11.473,0.958 -26.415,11.12 -26.415,11.12 0,0 17.91,3.469 25.146,2.864 11.473,-0.958 46.338,-35.172 46.338,-35.172 0,0 -37.833,20.584 -45.069,21.188"
             style="fill:#000000;fill-opacity:1;fill-rule:nonzero;stroke:none"
             id="path317"
             inkscape:connector-curvature="0" />
        </g>
        <g
           id="g319"
           transform="matrix(0.35277777,0,0,-0.35277777,268.12278,183.75028)">
          <path
             d="m 0,0 c -11.473,0.958 -26.415,11.12 -26.415,11.12 0,0 17.91,3.469 25.146,2.864 11.473,-0.958 46.338,-35.172 46.338,-35.172 0,0 -37.833,20.584 -45.069,21.188 z"
             style="fill:none;stroke:#ffffff;stroke-width:2;stroke-linecap:butt;stroke-linejoin:miter;stroke-miterlimit:10;stroke-dasharray:none;stroke-opacity:1"
             id="path321"
             inkscape:connector-curvature="0" />
        </g>
        <g
           id="g323"
           transform="matrix(0.35277777,0,0,-0.35277777,267.62152,188.56704)">
          <path
             d="m 0,0 c -10.859,1.374 -29.185,16.538 -29.185,16.538 0,0 20.164,-2.358 27.012,-3.225 10.861,-1.373 46.051,-35.232 46.051,-35.232 0,0 -27.338,15.543 -39.379,20.468 C 2.526,-0.644 0.965,-0.122 0,0"
             style="fill:#000000;fill-opacity:1;fill-rule:nonzero;stroke:none"
             id="path325"
             inkscape:connector-curvature="0" />
        </g>
        <g
           id="g327"
           transform="matrix(0.35277777,0,0,-0.35277777,267.62152,188.56704)">
          <path
             d="m 0,0 c -10.859,1.374 -29.185,16.538 -29.185,16.538 0,0 20.164,-2.358 27.012,-3.225 10.861,-1.373 46.051,-35.232 46.051,-35.232 0,0 -27.338,15.543 -39.379,20.468 C 2.526,-0.644 0.965,-0.122 0,0 Z"
             style="fill:none;stroke:#ffffff;stroke-width:2;stroke-linecap:butt;stroke-linejoin:miter;stroke-miterlimit:10;stroke-dasharray:none;stroke-opacity:1"
             id="path329"
             inkscape:connector-curvature="0" />
        </g>
        <g
           id="g331"
           transform="matrix(0.35277777,0,0,-0.35277777,263.49363,198.75159)">
          <path
             d="m 0,0 c -9.291,3.063 -20.425,20.218 -20.425,20.218 0,0 17.211,-6.744 23.071,-8.675 C 15.551,7.289 30.225,-24.529 31.01,-25.947 29.156,-24.177 10.541,-3.475 0,0"
             style="fill:#000000;fill-opacity:1;fill-rule:nonzero;stroke:none"
             id="path333"
             inkscape:connector-curvature="0" />
        </g>
        <g
           id="g335"
           transform="matrix(0.35277777,0,0,-0.35277777,263.49363,198.75159)">
          <path
             d="m 0,0 c -9.291,3.063 -20.425,20.218 -20.425,20.218 0,0 17.211,-6.744 23.071,-8.675 C 15.551,7.289 30.225,-24.529 31.01,-25.947 29.156,-24.177 10.541,-3.475 0,0 Z"
             style="fill:none;stroke:#ffffff;stroke-width:2;stroke-linecap:butt;stroke-linejoin:miter;stroke-miterlimit:10;stroke-dasharray:none;stroke-opacity:1"
             id="path337"
             inkscape:connector-curvature="0" />
        </g>
        <g
           id="g339"
           transform="matrix(0.35277777,0,0,-0.35277777,256.68265,200.85757)">
          <path
             d="m 0,0 c -7.97,2.232 -13.709,14.519 -13.709,14.519 0,0 10.622,-3.295 15.649,-4.704 11.07,-3.1 24.374,-29.338 25.079,-30.502 C 25.398,-19.267 9.043,-2.532 0,0"
             style="fill:#000000;fill-opacity:1;fill-rule:nonzero;stroke:none"
             id="path341"
             inkscape:connector-curvature="0" />
        </g>
        <g
           id="g343"
           transform="matrix(0.35277777,0,0,-0.35277777,256.68265,200.85757)">
          <path
             d="m 0,0 c -7.97,2.232 -13.709,14.519 -13.709,14.519 0,0 10.622,-3.295 15.649,-4.704 11.07,-3.1 24.374,-29.338 25.079,-30.502 C 25.398,-19.267 9.043,-2.532 0,0 Z"
             style="fill:none;stroke:#ffffff;stroke-width:2;stroke-linecap:butt;stroke-linejoin:miter;stroke-miterlimit:10;stroke-dasharray:none;stroke-opacity:1"
             id="path345"
             inkscape:connector-curvature="0" />
        </g>
        <g
           id="g347"
           transform="matrix(0.35277777,0,0,-0.35277777,216.28392,184.71403)">
          <path
             d="m 0,0 c 0.767,-1.703 -2.646,-2.726 -4.17,-3.983 -1.64,-1.355 -3.964,-2.2 -6.541,-2.2 -4.97,0 -8.999,3.144 -8.999,7.022 0,1.89 0.449,5.74 2.006,7.002 1.637,1.327 4.446,0.019 6.993,0.019 C -5.741,7.86 -1.712,3.803 0,0"
             style="fill:#000000;fill-opacity:1;fill-rule:nonzero;stroke:none"
             id="path349"
             inkscape:connector-curvature="0" />
        </g>
        <g
           id="g351"
           transform="matrix(0.35277777,0,0,-0.35277777,216.28392,184.71403)">
          <path
             d="m 0,0 c 0.767,-1.703 -2.646,-2.726 -4.17,-3.983 -1.64,-1.355 -3.964,-2.2 -6.541,-2.2 -4.97,0 -8.999,3.144 -8.999,7.022 0,1.89 0.449,5.74 2.006,7.002 1.637,1.327 4.446,0.019 6.993,0.019 C -5.741,7.86 -1.712,3.803 0,0 Z"
             style="fill:none;stroke:#ffffff;stroke-width:2;stroke-linecap:butt;stroke-linejoin:miter;stroke-miterlimit:10;stroke-dasharray:none;stroke-opacity:1"
             id="path353"
             inkscape:connector-curvature="0" />
        </g>
        <g
           id="g355"
           transform="matrix(0.35277777,0,0,-0.35277777,239.82097,185.40597)">
          <path
             d="m 0,0 c -0.773,-1.703 2.671,-2.726 4.208,-3.983 1.656,-1.355 4.001,-2.2 6.602,-2.2 5.015,0 9.082,3.144 9.082,7.022 0,1.89 -0.454,5.74 -2.026,7.002 C 16.215,9.168 13.38,7.86 10.81,7.86 5.794,7.86 1.728,3.803 0,0"
             style="fill:#000000;fill-opacity:1;fill-rule:nonzero;stroke:none"
             id="path357"
             inkscape:connector-curvature="0" />
        </g>
        <g
           id="g359"
           transform="matrix(0.35277777,0,0,-0.35277777,239.82097,185.40597)">
          <path
             d="m 0,0 c -0.773,-1.703 2.671,-2.726 4.208,-3.983 1.656,-1.355 4.001,-2.2 6.602,-2.2 5.015,0 9.082,3.144 9.082,7.022 0,1.89 -0.454,5.74 -2.026,7.002 C 16.215,9.168 13.38,7.86 10.81,7.86 5.794,7.86 1.728,3.803 0,0 Z"
             style="fill:none;stroke:#ffffff;stroke-width:2;stroke-linecap:butt;stroke-linejoin:miter;stroke-miterlimit:10;stroke-dasharray:none;stroke-opacity:1"
             id="path361"
             inkscape:connector-curvature="0" />
        </g>
        <g
           id="g363"
           transform="matrix(0.35277777,0,0,-0.35277777,212.40079,184.02848)">
          <path
             d="m 0,0 c 0,-0.815 -0.661,-1.476 -1.476,-1.476 -0.815,0 -1.475,0.661 -1.475,1.476 0,0.815 0.66,1.476 1.475,1.476 C -0.661,1.476 0,0.815 0,0"
             style="fill:#ffffff;fill-opacity:1;fill-rule:nonzero;stroke:none"
             id="path365"
             inkscape:connector-curvature="0" />
        </g>
        <g
           id="g367"
           transform="matrix(0.35277777,0,0,-0.35277777,212.40079,184.02848)">
          <path
             d="m 0,0 c 0,-0.815 -0.661,-1.476 -1.476,-1.476 -0.815,0 -1.475,0.661 -1.475,1.476 0,0.815 0.66,1.476 1.475,1.476 C -0.661,1.476 0,0.815 0,0 Z"
             style="fill:none;stroke:#000000;stroke-width:1;stroke-linecap:butt;stroke-linejoin:miter;stroke-miterlimit:10;stroke-dasharray:none;stroke-opacity:1"
             id="path369"
             inkscape:connector-curvature="0" />
        </g>
        <g
           id="g371"
           transform="matrix(0.35277777,0,0,-0.35277777,244.83359,184.54901)">
          <path
             d="m 0,0 c 0,-0.814 -0.66,-1.475 -1.476,-1.475 -0.814,0 -1.474,0.661 -1.474,1.475 0,0.815 0.66,1.476 1.474,1.476 C -0.66,1.476 0,0.815 0,0"
             style="fill:#ffffff;fill-opacity:1;fill-rule:nonzero;stroke:none"
             id="path373"
             inkscape:connector-curvature="0" />
        </g>
        <g
           id="g375"
           transform="matrix(0.35277777,0,0,-0.35277777,244.83359,184.54901)">
          <path
             d="m 0,0 c 0,-0.814 -0.66,-1.475 -1.476,-1.475 -0.814,0 -1.474,0.661 -1.474,1.475 0,0.815 0.66,1.476 1.474,1.476 C -0.66,1.476 0,0.815 0,0 Z"
             style="fill:none;stroke:#000000;stroke-width:1;stroke-linecap:butt;stroke-linejoin:miter;stroke-miterlimit:10;stroke-dasharray:none;stroke-opacity:1"
             id="path377"
             inkscape:connector-curvature="0" />
        </g>
        <g
           id="g379"
           transform="matrix(0.35277777,0,0,-0.35277777,182.33993,216.97306)">
          <path
             d="M 0,0 C 0,0.305 0.331,0.553 0.738,0.553 1.146,0.553 1.476,0.305 1.476,0 1.476,-0.306 1.146,-0.554 0.738,-0.554 0.331,-0.554 0,-0.306 0,0"
             style="fill:#000000;fill-opacity:1;fill-rule:nonzero;stroke:none"
             id="path381"
             inkscape:connector-curvature="0" />
        </g>
        <g
           id="g383"
           transform="matrix(0.35277777,0,0,-0.35277777,182.33993,216.97306)">
          <path
             d="M 0,0 C 0,0.305 0.331,0.553 0.738,0.553 1.146,0.553 1.476,0.305 1.476,0 1.476,-0.306 1.146,-0.554 0.738,-0.554 0.331,-0.554 0,-0.306 0,0 Z"
             style="fill:none;stroke:#ffffff;stroke-width:1;stroke-linecap:butt;stroke-linejoin:miter;stroke-miterlimit:10;stroke-dasharray:none;stroke-opacity:1"
             id="path385"
             inkscape:connector-curvature="0" />
        </g>
        <g
           id="g387"
           transform="matrix(0.35277777,0,0,-0.35277777,190.42609,143.60198)">
          <path
             d="m 0,0 c 0,0 -0.996,-10.739 1.229,-23.378 2.226,-12.64 12.76,-25.777 12.76,-25.777 0,0 -14.841,12.379 -17.066,25.018 C -5.302,-11.498 0,0 0,0"
             style="fill:#ffffff;fill-opacity:1;fill-rule:nonzero;stroke:none"
             id="path389"
             inkscape:connector-curvature="0" />
        </g>
        <g
           id="g391"
           transform="matrix(0.35277777,0,0,-0.35277777,190.42609,143.60198)">
          <path
             d="m 0,0 c 0,0 -0.996,-10.739 1.229,-23.378 2.226,-12.64 12.76,-25.777 12.76,-25.777 0,0 -14.841,12.379 -17.066,25.018 C -5.302,-11.498 0,0 0,0 Z"
             style="fill:none;stroke:#000000;stroke-width:1;stroke-linecap:butt;stroke-linejoin:miter;stroke-miterlimit:10;stroke-dasharray:none;stroke-opacity:1"
             id="path393"
             inkscape:connector-curvature="0" />
        </g>
        <g
           id="g395"
           transform="matrix(0.35277777,0,0,-0.35277777,260.19011,156.87475)">
          <path
             d="m 0,0 c 0,0 5.181,4.833 10.807,16.367 5.627,11.534 10.807,19.589 10.807,19.589 0,0 -2.486,-9.638 -8.112,-21.172 C 7.875,3.25 0,0 0,0"
             style="fill:#ffffff;fill-opacity:1;fill-rule:nonzero;stroke:none"
             id="path397"
             inkscape:connector-curvature="0" />
        </g>
        <g
           id="g399"
           transform="matrix(0.35277777,0,0,-0.35277777,260.19011,156.87475)">
          <path
             d="m 0,0 c 0,0 5.181,4.833 10.807,16.367 5.627,11.534 10.807,19.589 10.807,19.589 0,0 -2.486,-9.638 -8.112,-21.172 C 7.875,3.25 0,0 0,0 Z"
             style="fill:none;stroke:#000000;stroke-width:1;stroke-linecap:butt;stroke-linejoin:miter;stroke-miterlimit:10;stroke-dasharray:none;stroke-opacity:1"
             id="path401"
             inkscape:connector-curvature="0" />
        </g>
      </g>
    </g>
    <rect
       style="fill:#000000;stroke-width:0.26458332"
       id="rect7868"
       width="9.0714283"
       height="5.953125"
       x="75.217262"
       y="131.06845" />
  </g>
</svg>
