<?xml version="1.0" encoding="UTF-8" standalone="no"?>
<!-- Created with Inkscape (http://www.inkscape.org/) -->

<svg
   xmlns:dc="http://purl.org/dc/elements/1.1/"
   xmlns:cc="http://creativecommons.org/ns#"
   xmlns:rdf="http://www.w3.org/1999/02/22-rdf-syntax-ns#"
   xmlns:svg="http://www.w3.org/2000/svg"
   xmlns="http://www.w3.org/2000/svg"
   xmlns:sodipodi="http://sodipodi.sourceforge.net/DTD/sodipodi-0.dtd"
   xmlns:inkscape="http://www.inkscape.org/namespaces/inkscape"
   width="210mm"
   height="297mm"
   viewBox="0 0 210 297"
   version="1.1"
   id="svg756"
   inkscape:version="0.92.4 5da689c313, 2019-01-14"
   sodipodi:docname="nameandpaw.svg">
  <defs
     id="defs750" />
  <sodipodi:namedview
     id="base"
     pagecolor="#ffffff"
     bordercolor="#666666"
     borderopacity="1.0"
     inkscape:pageopacity="0.0"
     inkscape:pageshadow="2"
     inkscape:zoom="256"
     inkscape:cx="329.5878"
     inkscape:cy="1116.5015"
     inkscape:document-units="mm"
     inkscape:current-layer="layer1"
     showgrid="false"
     inkscape:window-width="1440"
     inkscape:window-height="853"
     inkscape:window-x="0"
     inkscape:window-y="26"
     inkscape:window-maximized="0" />
  <metadata
     id="metadata753">
    <rdf:RDF>
      <cc:Work
         rdf:about="">
        <dc:format>image/svg+xml</dc:format>
        <dc:type
           rdf:resource="http://purl.org/dc/dcmitype/StillImage" />
        <dc:title />
      </cc:Work>
    </rdf:RDF>
  </metadata>
  <g
     inkscape:label="Layer 1"
     inkscape:groupmode="layer"
     id="layer1">
    <text
       xml:space="preserve"
       style="font-style:normal;font-variant:normal;font-weight:500;font-stretch:normal;font-size:12.69999981px;line-height:1.25;font-family:'3270Medium Nerd Font';-inkscape-font-specification:'3270Medium Nerd Font, Medium';font-variant-ligatures:normal;font-variant-caps:normal;font-variant-numeric:normal;font-feature-settings:normal;text-align:start;letter-spacing:0px;word-spacing:0px;writing-mode:lr-tb;text-anchor:start;fill:#000000;fill-opacity:1;stroke:none;stroke-width:0.26458332"
       x="33.261902"
       y="77.017853"
       id="text774"><tspan
         sodipodi:role="line"
         id="tspan772"
         x="33.261902"
         y="88.76535"
         style="font-style:normal;font-variant:normal;font-weight:normal;font-stretch:normal;font-size:12.69999981px;font-family:'SF Comic Script Extended';-inkscape-font-specification:'SF Comic Script Extended, Normal';font-variant-ligatures:normal;font-variant-caps:normal;font-variant-numeric:normal;font-feature-settings:normal;text-align:start;writing-mode:lr-tb;text-anchor:start;stroke-width:0.26458332" /></text>
    <text
       xml:space="preserve"
       style="font-style:normal;font-variant:normal;font-weight:500;font-stretch:normal;font-size:12.69999981px;line-height:1.25;font-family:'3270Medium Nerd Font';-inkscape-font-specification:'3270Medium Nerd Font, Medium';font-variant-ligatures:normal;font-variant-caps:normal;font-variant-numeric:normal;font-feature-settings:normal;text-align:start;letter-spacing:0px;word-spacing:0px;writing-mode:lr-tb;text-anchor:start;fill:#000000;fill-opacity:1;stroke:none;stroke-width:0.26458332"
       x="38.55357"
       y="89.113098"
       id="text778"><tspan
         sodipodi:role="line"
         id="tspan776"
         x="38.55357"
         y="100.8606"
         style="font-style:normal;font-variant:normal;font-weight:normal;font-stretch:normal;font-size:12.69999981px;font-family:'SF Comic Script Extended';-inkscape-font-specification:'SF Comic Script Extended, Normal';font-variant-ligatures:normal;font-variant-caps:normal;font-variant-numeric:normal;font-feature-settings:normal;text-align:start;writing-mode:lr-tb;text-anchor:start;stroke-width:0.26458332" /></text>
    <g
       aria-label="the "
       style="font-style:normal;font-variant:normal;font-weight:500;font-stretch:normal;font-size:12.69999981px;line-height:1.25;font-family:'3270Medium Nerd Font';-inkscape-font-specification:'3270Medium Nerd Font, Medium';font-variant-ligatures:normal;font-variant-caps:normal;font-variant-numeric:normal;font-feature-settings:normal;text-align:start;letter-spacing:0px;word-spacing:0px;writing-mode:lr-tb;text-anchor:start;fill:#000000;fill-opacity:1;stroke:none;stroke-width:0.26458332"
       id="text760"
       transform="translate(-26.192414,-22.990551)">
      <path
         d="m 31.114441,25.974465 -0.334864,1.012859 -1.360123,0.05788 q -0.310059,1.02526 -0.570508,1.984375 -0.260449,0.963249 -0.487826,1.971973 l -1.318782,0.115755 q 0.23151,-1.124479 0.520898,-2.195215 0.227377,-0.859896 0.529167,-1.79834 l -1.327051,0.04961 0.338998,-1.025261 z"
         style="font-style:normal;font-variant:normal;font-weight:normal;font-stretch:normal;font-size:8.46666622px;font-family:'SF Comic Script Extended';-inkscape-font-specification:'SF Comic Script Extended, Normal';font-variant-ligatures:normal;font-variant-caps:normal;font-variant-numeric:normal;font-feature-settings:normal;text-align:start;writing-mode:lr-tb;text-anchor:start;stroke-width:0.26458332"
         id="path1026"
         inkscape:connector-curvature="0" />
      <path
         d="m 36.083646,25.829771 q -0.487825,1.413868 -0.81442,2.633431 -0.310059,1.165821 -0.533301,2.372982 l -1.298112,0.04134 0.37207,-1.694987 -1.546159,-0.02067 q -0.16123,0.450618 -0.281119,0.888834 -0.132292,0.500228 -0.239779,1.045931 l -1.289844,0.04134 q 0.148828,-0.727604 0.330729,-1.405599 0.479558,-1.785937 1.099675,-3.604947 l 1.30638,-0.04134 -0.636654,2.017447 1.525489,0.0083 0.119889,-0.458887 q 0.02067,-0.06615 0.198437,-0.587044 l 0.388607,-1.190625 z"
         style="font-style:normal;font-variant:normal;font-weight:normal;font-stretch:normal;font-size:8.46666622px;font-family:'SF Comic Script Extended';-inkscape-font-specification:'SF Comic Script Extended, Normal';font-variant-ligatures:normal;font-variant-caps:normal;font-variant-numeric:normal;font-feature-settings:normal;text-align:start;writing-mode:lr-tb;text-anchor:start;stroke-width:0.26458332"
         id="path1028"
         inkscape:connector-curvature="0" />
      <path
         d="m 40.945365,25.825637 -0.326595,0.992188 q -0.570508,0.02894 -1.207161,0.08682 -0.537435,0.04961 -0.979785,0.09922 -0.06201,0.202572 -0.128158,0.429948 -0.07855,0.28112 -0.124023,0.578776 0.454752,-0.06615 0.963248,-0.107487 0.516765,-0.04134 0.967383,-0.06201 l -0.272851,1.016992 q -0.496094,0.0041 -0.963249,0.04961 -0.463021,0.04134 -0.971517,0.119889 -0.119889,0.264583 -0.181901,0.51263 -0.07028,0.248047 -0.08682,0.500228 0.516764,-0.06201 1.099674,-0.119889 0.574642,-0.04961 1.087272,-0.07028 l -0.268717,1.016992 q -0.909505,0.04134 -1.748731,0.111621 -0.830957,0.07855 -1.765267,0.190169 0.227377,-1.079004 0.525033,-2.166276 0.268717,-1.000455 0.570508,-1.938899 l -0.520899,0.02067 0.223243,-0.938444 q 1.504817,-0.07441 2.68304,-0.173633 0.698665,-0.06614 1.426269,-0.148828 z"
         style="font-style:normal;font-variant:normal;font-weight:normal;font-stretch:normal;font-size:8.46666622px;font-family:'SF Comic Script Extended';-inkscape-font-specification:'SF Comic Script Extended, Normal';font-variant-ligatures:normal;font-variant-caps:normal;font-variant-numeric:normal;font-feature-settings:normal;text-align:start;writing-mode:lr-tb;text-anchor:start;stroke-width:0.26458332"
         id="path1030"
         inkscape:connector-curvature="0" />
    </g>
    <g
       aria-label="Forty"
       style="font-style:normal;font-variant:normal;font-weight:500;font-stretch:normal;font-size:12.69999981px;line-height:1.25;font-family:'3270Medium Nerd Font';-inkscape-font-specification:'3270Medium Nerd Font, Medium';font-variant-ligatures:normal;font-variant-caps:normal;font-variant-numeric:normal;font-feature-settings:normal;text-align:start;letter-spacing:0px;word-spacing:0px;writing-mode:lr-tb;text-anchor:start;fill:#000000;fill-opacity:1;stroke:none;stroke-width:0.26458332"
       id="text906"
       transform="translate(-26.192414,-22.990551)">
      <path
         d="m 50.032588,24.757784 -0.601514,1.872754 q -0.837158,0.03721 -1.792138,0.117823 l -1.128614,0.105419 q -0.626318,0.05581 -1.196826,0.130225 -0.136425,0.347266 -0.235644,0.706934 -0.10542,0.446484 -0.241846,1.172021 0.911572,-0.111621 1.810742,-0.198437 0.911572,-0.07441 1.810742,-0.117823 l -0.508496,1.90376 q -0.886767,0.0124 -1.810742,0.09922 -0.89917,0.07441 -1.816943,0.223242 -0.310059,0.905371 -0.58291,1.916162 -0.266651,0.992188 -0.434082,1.891358 l -2.480469,0.210839 q 0.359668,-1.767334 1.116211,-4.557861 0.378271,-1.438672 0.905371,-3.050976 l -1.00459,-0.0124 0.47749,-1.79834 q 2.864942,-0.155029 5.134571,-0.359668 1.513085,-0.124023 2.579687,-0.254248 z"
         style="font-style:normal;font-variant:normal;font-weight:normal;font-stretch:normal;font-size:12.69999981px;font-family:'SF Comic Script Extended';-inkscape-font-specification:'SF Comic Script Extended, Normal';font-variant-ligatures:normal;font-variant-caps:normal;font-variant-numeric:normal;font-feature-settings:normal;text-align:start;writing-mode:lr-tb;text-anchor:start;stroke-width:0.26458332"
         id="path1015"
         inkscape:connector-curvature="0" />
      <path
         d="m 56.829072,28.856759 q -0.378272,1.382861 -1.637109,2.48667 -1.370459,1.196826 -2.988965,1.345654 -1.649512,0.136426 -2.306836,-1.041797 -0.58291,-1.023193 -0.21084,-2.455664 0.403076,-1.469677 1.618506,-2.641699 1.358056,-1.345654 3.063379,-1.494482 2.201416,-0.192237 2.833935,1.314648 l -0.644922,0.434082 q 0.601514,0.812354 0.272852,2.052588 z m -1.351856,-1.506885 q -0.328662,-0.768945 -1.544091,-0.663525 -0.923975,0.08682 -1.624707,0.917773 -0.570508,0.657324 -0.79375,1.506885 -0.229444,0.843359 -0.03101,1.413867 0.248047,0.731738 1.16582,0.651123 0.837158,-0.07441 1.525488,-0.775146 0.601514,-0.63252 0.806153,-1.364258 0.198437,-0.750342 -0.179834,-1.240234 z"
         style="font-style:normal;font-variant:normal;font-weight:normal;font-stretch:normal;font-size:12.69999981px;font-family:'SF Comic Script Extended';-inkscape-font-specification:'SF Comic Script Extended, Normal';font-variant-ligatures:normal;font-variant-caps:normal;font-variant-numeric:normal;font-feature-settings:normal;text-align:start;writing-mode:lr-tb;text-anchor:start;stroke-width:0.26458332"
         id="path1017"
         inkscape:connector-curvature="0" />
      <path
         d="m 65.293672,27.015011 q -0.254248,0.985986 -1.277442,1.860351 -0.973584,0.824756 -2.22622,1.258838 1.401464,0.570508 2.052587,2.139405 l -2.052587,0.539502 q -0.378272,-1.568897 -1.934766,-2.22002 -0.465088,1.364258 -0.68833,2.189014 l -1.928564,0.167431 q 0.607714,-2.095996 2.139404,-6.232177 -0.285254,0.03101 -0.644922,0.117822 l 0.117822,-1.389063 q 0.551904,-0.124023 1.11001,-0.167431 2.412256,-0.21084 3.609082,-0.03101 2.114599,0.328662 1.723926,1.767334 z m -2.127002,0.5271 q 0.21084,-0.781348 -0.930176,-0.911573 -0.235645,-0.03101 -1.928564,0.0248 l 0.74414,0.31626 -0.750342,2.244824 q 0.89917,-0.08682 1.723926,-0.496094 0.961182,-0.489892 1.141016,-1.178222 z"
         style="font-style:normal;font-variant:normal;font-weight:normal;font-stretch:normal;font-size:12.69999981px;font-family:'SF Comic Script Extended';-inkscape-font-specification:'SF Comic Script Extended, Normal';font-variant-ligatures:normal;font-variant-caps:normal;font-variant-numeric:normal;font-feature-settings:normal;text-align:start;writing-mode:lr-tb;text-anchor:start;stroke-width:0.26458332"
         id="path1019"
         inkscape:connector-curvature="0" />
      <path
         d="m 72.790888,25.111251 -0.502295,1.519287 -2.040186,0.08682 q -0.465088,1.53789 -0.855761,2.976562 -0.390674,1.444873 -0.731739,2.957959 l -1.978174,0.173633 q 0.347266,-1.686719 0.781348,-3.292822 0.341065,-1.289844 0.79375,-2.69751 l -1.990576,0.07441 0.508496,-1.537891 z"
         style="font-style:normal;font-variant:normal;font-weight:normal;font-stretch:normal;font-size:12.69999981px;font-family:'SF Comic Script Extended';-inkscape-font-specification:'SF Comic Script Extended, Normal';font-variant-ligatures:normal;font-variant-caps:normal;font-variant-numeric:normal;font-feature-settings:normal;text-align:start;writing-mode:lr-tb;text-anchor:start;stroke-width:0.26458332"
         id="path1021"
         inkscape:connector-curvature="0" />
      <path
         d="m 79.872626,25.222872 q -1.258838,1.463477 -3.057178,3.906739 -0.235645,0.316259 -0.644922,0.973583 -0.148828,0.297657 -0.310059,0.892969 -0.254248,0.94878 -0.421679,1.754932 l -1.947168,0.06201 q 0.198437,-0.917774 0.403076,-1.69292 0.155029,-0.626319 0.328662,-1.134815 -0.248047,-0.601513 -0.551904,-2.232422 -0.254248,-1.382861 -0.297656,-2.201416 l 2.009179,-0.334863 q 0.05581,0.725537 0.10542,1.457275 0.09922,0.855762 0.341065,1.364258 1.215429,-2.021582 2.17041,-2.926953 z"
         style="font-style:normal;font-variant:normal;font-weight:normal;font-stretch:normal;font-size:12.69999981px;font-family:'SF Comic Script Extended';-inkscape-font-specification:'SF Comic Script Extended, Normal';font-variant-ligatures:normal;font-variant-caps:normal;font-variant-numeric:normal;font-feature-settings:normal;text-align:start;writing-mode:lr-tb;text-anchor:start;stroke-width:0.26458332"
         id="path1023"
         inkscape:connector-curvature="0" />
    </g>
    <g
       aria-label="Five"
       style="font-style:normal;font-variant:normal;font-weight:500;font-stretch:normal;font-size:12.69999981px;line-height:1.25;font-family:'3270Medium Nerd Font';-inkscape-font-specification:'3270Medium Nerd Font, Medium';font-variant-ligatures:normal;font-variant-caps:normal;font-variant-numeric:normal;font-feature-settings:normal;text-align:start;letter-spacing:0px;word-spacing:0px;writing-mode:lr-tb;text-anchor:start;fill:#000000;fill-opacity:1;stroke:none;stroke-width:0.26458332"
       id="text910"
       transform="translate(-26.192414,-22.461384)">
      <path
         d="m 88.878573,24.135119 -0.601513,1.872754 q -0.837158,0.03721 -1.792139,0.117822 l -1.128613,0.10542 q -0.626318,0.05581 -1.196826,0.130225 -0.136426,0.347265 -0.235645,0.706933 -0.10542,0.446485 -0.241846,1.172022 0.911573,-0.111621 1.810743,-0.198438 0.911572,-0.07441 1.810742,-0.117822 l -0.508496,1.90376 q -0.886768,0.0124 -1.810742,0.09922 -0.89917,0.07442 -1.816944,0.223243 -0.310058,0.905371 -0.58291,1.916162 -0.26665,0.992187 -0.434082,1.891357 l -2.480469,0.21084 q 0.359668,-1.767334 1.116211,-4.557861 0.378272,-1.438672 0.905371,-3.050977 l -1.004589,-0.0124 0.47749,-1.79834 q 2.864941,-0.155029 5.13457,-0.359668 1.513086,-0.124023 2.579687,-0.254248 z"
         style="font-style:normal;font-variant:normal;font-weight:normal;font-stretch:normal;font-size:12.69999981px;font-family:'SF Comic Script Extended';-inkscape-font-specification:'SF Comic Script Extended, Normal';font-variant-ligatures:normal;font-variant-caps:normal;font-variant-numeric:normal;font-feature-settings:normal;text-align:start;writing-mode:lr-tb;text-anchor:start;stroke-width:0.26458332"
         id="path1006"
         inkscape:connector-curvature="0" />
      <path
         d="m 91.836532,24.656017 q -0.744141,2.145606 -1.227832,3.981153 -0.465088,1.742529 -0.806152,3.534668 l -1.965772,0.167431 q 0.359668,-1.990576 0.84336,-3.788916 0.508496,-1.897558 1.209228,-3.832324 z"
         style="font-style:normal;font-variant:normal;font-weight:normal;font-stretch:normal;font-size:12.69999981px;font-family:'SF Comic Script Extended';-inkscape-font-specification:'SF Comic Script Extended, Normal';font-variant-ligatures:normal;font-variant-caps:normal;font-variant-numeric:normal;font-feature-settings:normal;text-align:start;writing-mode:lr-tb;text-anchor:start;stroke-width:0.26458332"
         id="path1008"
         inkscape:connector-curvature="0" />
      <path
         d="m 99.339949,24.463781 q -0.837158,1.16582 -2.058789,3.274219 -1.513086,2.59209 -2.27583,4.260205 -0.843359,-0.04961 -1.754931,0.03101 -0.403077,0.03721 -0.73794,0.08682 -0.05581,-1.302246 0.03101,-3.373437 0.10542,-2.319239 0.285254,-3.981153 l 1.872754,-0.09302 q -0.372071,3.131592 -0.235645,5.004345 1.283643,-2.765722 2.852539,-5.109765 z"
         style="font-style:normal;font-variant:normal;font-weight:normal;font-stretch:normal;font-size:12.69999981px;font-family:'SF Comic Script Extended';-inkscape-font-specification:'SF Comic Script Extended, Normal';font-variant-ligatures:normal;font-variant-caps:normal;font-variant-numeric:normal;font-feature-settings:normal;text-align:start;writing-mode:lr-tb;text-anchor:start;stroke-width:0.26458332"
         id="path1010"
         inkscape:connector-curvature="0" />
      <path
         d="m 106.33487,24.265344 -0.48989,1.488281 q -0.85576,0.04341 -1.81074,0.130224 -0.80616,0.07441 -1.46968,0.148829 -0.093,0.303857 -0.19224,0.644921 -0.11782,0.42168 -0.18603,0.868164 0.68213,-0.09922 1.44487,-0.16123 0.77515,-0.06201 1.45107,-0.09302 l -0.40927,1.525489 q -0.74414,0.0062 -1.44488,0.07441 -0.69453,0.06201 -1.45727,0.179834 -0.17983,0.396875 -0.27285,0.768945 -0.10542,0.37207 -0.13023,0.750342 0.77515,-0.09302 1.64951,-0.179834 0.86197,-0.07441 1.63091,-0.10542 l -0.40307,1.525488 q -1.36426,0.06201 -2.6231,0.167432 -1.24643,0.117822 -2.647899,0.285254 0.341064,-1.618506 0.787548,-3.249414 0.403081,-1.500684 0.855761,-2.90835 l -0.781346,0.03101 0.334866,-1.407666 q 2.25722,-0.111621 4.02456,-0.260449 1.048,-0.09922 2.1394,-0.223242 z"
         style="font-style:normal;font-variant:normal;font-weight:normal;font-stretch:normal;font-size:12.69999981px;font-family:'SF Comic Script Extended';-inkscape-font-specification:'SF Comic Script Extended, Normal';font-variant-ligatures:normal;font-variant-caps:normal;font-variant-numeric:normal;font-feature-settings:normal;text-align:start;writing-mode:lr-tb;text-anchor:start;stroke-width:0.26458332"
         id="path1012"
         inkscape:connector-curvature="0" />
    </g>
    <g
       id="g415"
       transform="matrix(0.35200638,0.0181621,0.01904945,-0.34872309,83.766476,3.2236353)"
       style="fill:#000000"
       inkscape:export-xdpi="500"
       inkscape:export-ydpi="500">
      <path
         style="fill:#000000;fill-opacity:1;fill-rule:nonzero;stroke:none;stroke-width:0.86492324"
         d="m -4.8493208,-0.21993239 c 0.4999256,1.17975532 1.6326301,4.65652819 2.535506,3.51703889 0.2733413,-1.5004297 -0.4996551,-2.92395695 -0.8745057,-4.330718 0.042267,-1.1389798 -1.6930292,-2.7763151 -2.1206686,-1.1461993 0.05555,0.6747005 0.2595542,1.44320851 0.4596683,1.95987841 z M 18.662335,2.6903001 c 0.957678,-1.0539034 0.794068,-2.49775111 0.647032,-3.7939234 -0.09,-1.2430373 -0.27118,-3.4789732 -1.003194,-3.5479421 -1.304192,-0.1048823 -1.705536,1.758323 -1.322237,2.7830893 0.887227,1.86079327 0.867672,6.0292634 1.678399,4.5587762 z M 1.5753289,2.6005823 C 2.2964643,4.1567333 4.1466462,8.026541 4.886934,8.0743309 5.7670609,7.5665423 3.9089658,5.5823192 4.0227251,4.2680666 3.7937893,2.9027062 3.5623104,0.98713914 2.8942532,0.28375689 1.236777,-0.68795144 1.1393503,1.4994446 1.5753289,2.6005823 Z M 13.66609,1.7399837 c 0.90181,1.7968491 1.295527,4.9423338 2.349663,3.957627 0.901665,-1.1105997 0.243845,-2.6217777 0.02085,-3.8671884 -0.391816,-0.93493042 -1.188069,-3.4504553 -2.370609,-1.8887565 -0.319766,0.58172281 -0.12835,1.3742664 1.01e-4,1.7983179 z M 7.9299195,4.2050149 C 8.1504386,4.6662492 9.1007349,6.7700028 9.2590989,7.0971543 9.607285,7.9546955 11.427694,8.7189347 10.642694,6.8954476 10.589432,6.5322498 10.001661,4.7254495 9.827946,3.5437681 9.9585148,1.9788242 6.8684749,1.2799984 7.6672466,3.2437362 7.759476,3.5640639 7.9043783,3.868747 7.9299195,4.2050149 Z M 17.534892,-10.208066 c -0.254692,-1.301716 -1.54609,-1.741128 -2.658764,-1.96032 -0.669221,-0.116829 -0.682069,-0.03354 -1.161521,0.252663 -0.857497,0.731147 -0.587078,3.6578828 -0.587078,3.6578828 0.134555,0.7952552 1.033471,2.4120966 2.197552,3.1156567 0.404124,0.5049502 2.371168,0.4010314 2.281524,-0.8282994 1.351561,-1.1368301 0.793414,-2.9863303 -0.07171,-4.2375831 z M 1.2301527,-20.236104 c -2.256615,0.244038 -4.6248764,0.898129 -6.3076535,2.588286 -1.3257275,1.184546 -1.1152893,3.069743 -0.6877535,4.614541 0.2867428,0.352998 0.3700051,2.359935 2.9052117,3.3900867 1.597245,0.757389 3.47012559,0.673533 5.1059106,0.098947 1.0716021,-0.2205649 1.8151087,1.0366235 3.0925404,0.5053262 1.3919478,-0.4047253 2.7842566,-0.6868018 4.2360787,-0.8171829 1.4203029,-0.580936 2.2760039,-1.982499 3.4451869,-2.92155 1.091028,-0.987233 1.695199,-2.338858 1.977733,-3.752996 0.417456,-1.893733 -0.675109,-3.806102 -2.216816,-4.856239 -0.482792,-0.406371 -1.469585,-0.889955 -1.469585,-0.889955 -2.0849541,-0.324833 -3.2976915,1.377874 -5.5388836,1.769252 -4.361908,0.496561 -2.0054145,0.05607 -4.5419697,0.271484 z m -6.2309731,9.529036 c -0.8991669,-0.491478 -2.2752977,1.1480174 -2.321843,2.3604287 0.02643,1.2240801 0.1363944,2.6209735 1.0190175,3.5635443 0.7340341,0.4659183 1.6014511,0.802603 2.0238978,0.9418236 1.0259543,0.094601 1.4019634,-0.7796667 1.634687,-0.91784 1.0616299,-0.8718286 -0.1619748,-2.2902061 -0.3029301,-3.4501685 -0.457372,-1.0571559 -1.0219631,-2.0522751 -2.0528292,-2.4977881 z m 4.50638802,9.2234828 C 0.44730894,-0.55276428 1.2913141,0.39122417 2.5683283,-0.14740348 3.4926749,-0.75699687 3.6139984,-2.3118966 3.7270136,-3.1915213 3.6565301,-4.5968998 3.146369,-5.9231147 2.1933288,-6.9706295 1.1845471,-7.375265 -0.72278197,-7.388047 -1.0374221,-6.092379 c -0.6745303,1.6954436 -1.2684085,1.9883658 0.2163762,4.0902605 0.0962638,0.1842928 0.21500859,0.3419251 0.32661352,0.5185333 z M 4.9675578,-2.3450488 C 5.2938493,-1.3571231 5.8571971,0.20916477 6.2324432,0.74935326 6.2906525,2.0539978 8.5702516,1.7267415 9.4416297,0.95672812 11.204028,0.61938186 10.007739,-4.5990749 10.602948,-2.6686922 c 0.755602,0.8605275 1.481398,1.84159382 2.618343,1.73161035 1.255078,-0.42762915 1.643913,-2.23319645 1.673141,-3.39612805 -0.408915,-1.4749756 -2.550013,-4.5409685 -3.69207,-3.1429245 -0.962331,-0.3079735 -1.6724392,0.082267 -1.6490897,1.2286601 C 9.1694168,-4.943338 8.5428776,-5.1861709 8.4260222,-5.368357 7.7045663,-5.8878742 8.0287128,-6.3227868 6.8572819,-6.0057396 c -1.4680056,1.038151 -2.0078544,1.2511903 -1.9804502,3.1392892 0.032097,0.1734668 0.06429,0.3469568 0.090726,0.5214016 z"
         id="path417"
         inkscape:connector-curvature="0"
         sodipodi:nodetypes="cccccccccccccccccccccccccccccccccccccccccccccccccccccccccccccccccccccccccc" />
    </g>
  </g>
</svg>
