<?xml version="1.0" encoding="UTF-8" standalone="no"?>
<!-- Created with Inkscape (http://www.inkscape.org/) -->

<svg
   xmlns:dc="http://purl.org/dc/elements/1.1/"
   xmlns:cc="http://creativecommons.org/ns#"
   xmlns:rdf="http://www.w3.org/1999/02/22-rdf-syntax-ns#"
   xmlns:svg="http://www.w3.org/2000/svg"
   xmlns="http://www.w3.org/2000/svg"
   xmlns:sodipodi="http://sodipodi.sourceforge.net/DTD/sodipodi-0.dtd"
   xmlns:inkscape="http://www.inkscape.org/namespaces/inkscape"
   width="210mm"
   height="297mm"
   viewBox="0 0 210 297"
   version="1.1"
   id="svg756"
   inkscape:version="0.92.4 5da689c313, 2019-01-14"
   sodipodi:docname="nameandpawbackup.svg">
  <defs
     id="defs750" />
  <sodipodi:namedview
     id="base"
     pagecolor="#ffffff"
     bordercolor="#666666"
     borderopacity="1.0"
     inkscape:pageopacity="0.0"
     inkscape:pageshadow="2"
     inkscape:zoom="0.70710678"
     inkscape:cx="673.49708"
     inkscape:cy="1006.5845"
     inkscape:document-units="mm"
     inkscape:current-layer="layer1"
     showgrid="false"
     inkscape:window-width="1440"
     inkscape:window-height="853"
     inkscape:window-x="0"
     inkscape:window-y="26"
     inkscape:window-maximized="0" />
  <metadata
     id="metadata753">
    <rdf:RDF>
      <cc:Work
         rdf:about="">
        <dc:format>image/svg+xml</dc:format>
        <dc:type
           rdf:resource="http://purl.org/dc/dcmitype/StillImage" />
        <dc:title></dc:title>
      </cc:Work>
    </rdf:RDF>
  </metadata>
  <g
     inkscape:label="Layer 1"
     inkscape:groupmode="layer"
     id="layer1">
    <text
       xml:space="preserve"
       style="font-style:normal;font-variant:normal;font-weight:500;font-stretch:normal;font-size:12.69999981px;line-height:1.25;font-family:'3270Medium Nerd Font';-inkscape-font-specification:'3270Medium Nerd Font, Medium';font-variant-ligatures:normal;font-variant-caps:normal;font-variant-numeric:normal;font-feature-settings:normal;text-align:start;letter-spacing:0px;word-spacing:0px;writing-mode:lr-tb;text-anchor:start;fill:#000000;fill-opacity:1;stroke:none;stroke-width:0.26458332"
       x="33.261902"
       y="77.017853"
       id="text774"><tspan
         sodipodi:role="line"
         id="tspan772"
         x="33.261902"
         y="88.76535"
         style="font-style:normal;font-variant:normal;font-weight:normal;font-stretch:normal;font-size:12.69999981px;font-family:'SF Comic Script Extended';-inkscape-font-specification:'SF Comic Script Extended, Normal';font-variant-ligatures:normal;font-variant-caps:normal;font-variant-numeric:normal;font-feature-settings:normal;text-align:start;writing-mode:lr-tb;text-anchor:start;stroke-width:0.26458332" /></text>
    <text
       xml:space="preserve"
       style="font-style:normal;font-variant:normal;font-weight:500;font-stretch:normal;font-size:12.69999981px;line-height:1.25;font-family:'3270Medium Nerd Font';-inkscape-font-specification:'3270Medium Nerd Font, Medium';font-variant-ligatures:normal;font-variant-caps:normal;font-variant-numeric:normal;font-feature-settings:normal;text-align:start;letter-spacing:0px;word-spacing:0px;writing-mode:lr-tb;text-anchor:start;fill:#000000;fill-opacity:1;stroke:none;stroke-width:0.26458332"
       x="38.55357"
       y="89.113098"
       id="text778"><tspan
         sodipodi:role="line"
         id="tspan776"
         x="38.55357"
         y="100.8606"
         style="font-style:normal;font-variant:normal;font-weight:normal;font-stretch:normal;font-size:12.69999981px;font-family:'SF Comic Script Extended';-inkscape-font-specification:'SF Comic Script Extended, Normal';font-variant-ligatures:normal;font-variant-caps:normal;font-variant-numeric:normal;font-feature-settings:normal;text-align:start;writing-mode:lr-tb;text-anchor:start;stroke-width:0.26458332" /></text>
    <g
       aria-label="the "
       style="font-style:normal;font-variant:normal;font-weight:500;font-stretch:normal;font-size:12.69999981px;line-height:1.25;font-family:'3270Medium Nerd Font';-inkscape-font-specification:'3270Medium Nerd Font, Medium';font-variant-ligatures:normal;font-variant-caps:normal;font-variant-numeric:normal;font-feature-settings:normal;text-align:start;letter-spacing:0px;word-spacing:0px;writing-mode:lr-tb;text-anchor:start;fill:#000000;fill-opacity:1;stroke:none;stroke-width:0.26458332"
       id="text760"
       transform="translate(-26.192414,-22.990551)">
      <path
         d="m 31.114441,25.974465 -0.334864,1.012859 -1.360123,0.05788 q -0.310059,1.02526 -0.570508,1.984375 -0.260449,0.963249 -0.487826,1.971973 l -1.318782,0.115755 q 0.23151,-1.124479 0.520898,-2.195215 0.227377,-0.859896 0.529167,-1.79834 l -1.327051,0.04961 0.338998,-1.025261 z"
         style="font-style:normal;font-variant:normal;font-weight:normal;font-stretch:normal;font-size:8.46666622px;font-family:'SF Comic Script Extended';-inkscape-font-specification:'SF Comic Script Extended, Normal';font-variant-ligatures:normal;font-variant-caps:normal;font-variant-numeric:normal;font-feature-settings:normal;text-align:start;writing-mode:lr-tb;text-anchor:start;stroke-width:0.26458332"
         id="path1026"
         inkscape:connector-curvature="0" />
      <path
         d="m 36.083646,25.829771 q -0.487825,1.413868 -0.81442,2.633431 -0.310059,1.165821 -0.533301,2.372982 l -1.298112,0.04134 0.37207,-1.694987 -1.546159,-0.02067 q -0.16123,0.450618 -0.281119,0.888834 -0.132292,0.500228 -0.239779,1.045931 l -1.289844,0.04134 q 0.148828,-0.727604 0.330729,-1.405599 0.479558,-1.785937 1.099675,-3.604947 l 1.30638,-0.04134 -0.636654,2.017447 1.525489,0.0083 0.119889,-0.458887 q 0.02067,-0.06615 0.198437,-0.587044 l 0.388607,-1.190625 z"
         style="font-style:normal;font-variant:normal;font-weight:normal;font-stretch:normal;font-size:8.46666622px;font-family:'SF Comic Script Extended';-inkscape-font-specification:'SF Comic Script Extended, Normal';font-variant-ligatures:normal;font-variant-caps:normal;font-variant-numeric:normal;font-feature-settings:normal;text-align:start;writing-mode:lr-tb;text-anchor:start;stroke-width:0.26458332"
         id="path1028"
         inkscape:connector-curvature="0" />
      <path
         d="m 40.945365,25.825637 -0.326595,0.992188 q -0.570508,0.02894 -1.207161,0.08682 -0.537435,0.04961 -0.979785,0.09922 -0.06201,0.202572 -0.128158,0.429948 -0.07855,0.28112 -0.124023,0.578776 0.454752,-0.06615 0.963248,-0.107487 0.516765,-0.04134 0.967383,-0.06201 l -0.272851,1.016992 q -0.496094,0.0041 -0.963249,0.04961 -0.463021,0.04134 -0.971517,0.119889 -0.119889,0.264583 -0.181901,0.51263 -0.07028,0.248047 -0.08682,0.500228 0.516764,-0.06201 1.099674,-0.119889 0.574642,-0.04961 1.087272,-0.07028 l -0.268717,1.016992 q -0.909505,0.04134 -1.748731,0.111621 -0.830957,0.07855 -1.765267,0.190169 0.227377,-1.079004 0.525033,-2.166276 0.268717,-1.000455 0.570508,-1.938899 l -0.520899,0.02067 0.223243,-0.938444 q 1.504817,-0.07441 2.68304,-0.173633 0.698665,-0.06614 1.426269,-0.148828 z"
         style="font-style:normal;font-variant:normal;font-weight:normal;font-stretch:normal;font-size:8.46666622px;font-family:'SF Comic Script Extended';-inkscape-font-specification:'SF Comic Script Extended, Normal';font-variant-ligatures:normal;font-variant-caps:normal;font-variant-numeric:normal;font-feature-settings:normal;text-align:start;writing-mode:lr-tb;text-anchor:start;stroke-width:0.26458332"
         id="path1030"
         inkscape:connector-curvature="0" />
    </g>
    <g
       aria-label="Forty"
       style="font-style:normal;font-variant:normal;font-weight:500;font-stretch:normal;font-size:12.69999981px;line-height:1.25;font-family:'3270Medium Nerd Font';-inkscape-font-specification:'3270Medium Nerd Font, Medium';font-variant-ligatures:normal;font-variant-caps:normal;font-variant-numeric:normal;font-feature-settings:normal;text-align:start;letter-spacing:0px;word-spacing:0px;writing-mode:lr-tb;text-anchor:start;fill:#000000;fill-opacity:1;stroke:none;stroke-width:0.26458332"
       id="text906"
       transform="translate(-26.192414,-22.990551)">
      <path
         d="m 50.032588,24.757784 -0.601514,1.872754 q -0.837158,0.03721 -1.792138,0.117823 l -1.128614,0.105419 q -0.626318,0.05581 -1.196826,0.130225 -0.136425,0.347266 -0.235644,0.706934 -0.10542,0.446484 -0.241846,1.172021 0.911572,-0.111621 1.810742,-0.198437 0.911572,-0.07441 1.810742,-0.117823 l -0.508496,1.90376 q -0.886767,0.0124 -1.810742,0.09922 -0.89917,0.07441 -1.816943,0.223242 -0.310059,0.905371 -0.58291,1.916162 -0.266651,0.992188 -0.434082,1.891358 l -2.480469,0.210839 q 0.359668,-1.767334 1.116211,-4.557861 0.378271,-1.438672 0.905371,-3.050976 l -1.00459,-0.0124 0.47749,-1.79834 q 2.864942,-0.155029 5.134571,-0.359668 1.513085,-0.124023 2.579687,-0.254248 z"
         style="font-style:normal;font-variant:normal;font-weight:normal;font-stretch:normal;font-size:12.69999981px;font-family:'SF Comic Script Extended';-inkscape-font-specification:'SF Comic Script Extended, Normal';font-variant-ligatures:normal;font-variant-caps:normal;font-variant-numeric:normal;font-feature-settings:normal;text-align:start;writing-mode:lr-tb;text-anchor:start;stroke-width:0.26458332"
         id="path1015"
         inkscape:connector-curvature="0" />
      <path
         d="m 56.829072,28.856759 q -0.378272,1.382861 -1.637109,2.48667 -1.370459,1.196826 -2.988965,1.345654 -1.649512,0.136426 -2.306836,-1.041797 -0.58291,-1.023193 -0.21084,-2.455664 0.403076,-1.469677 1.618506,-2.641699 1.358056,-1.345654 3.063379,-1.494482 2.201416,-0.192237 2.833935,1.314648 l -0.644922,0.434082 q 0.601514,0.812354 0.272852,2.052588 z m -1.351856,-1.506885 q -0.328662,-0.768945 -1.544091,-0.663525 -0.923975,0.08682 -1.624707,0.917773 -0.570508,0.657324 -0.79375,1.506885 -0.229444,0.843359 -0.03101,1.413867 0.248047,0.731738 1.16582,0.651123 0.837158,-0.07441 1.525488,-0.775146 0.601514,-0.63252 0.806153,-1.364258 0.198437,-0.750342 -0.179834,-1.240234 z"
         style="font-style:normal;font-variant:normal;font-weight:normal;font-stretch:normal;font-size:12.69999981px;font-family:'SF Comic Script Extended';-inkscape-font-specification:'SF Comic Script Extended, Normal';font-variant-ligatures:normal;font-variant-caps:normal;font-variant-numeric:normal;font-feature-settings:normal;text-align:start;writing-mode:lr-tb;text-anchor:start;stroke-width:0.26458332"
         id="path1017"
         inkscape:connector-curvature="0" />
      <path
         d="m 65.293672,27.015011 q -0.254248,0.985986 -1.277442,1.860351 -0.973584,0.824756 -2.22622,1.258838 1.401464,0.570508 2.052587,2.139405 l -2.052587,0.539502 q -0.378272,-1.568897 -1.934766,-2.22002 -0.465088,1.364258 -0.68833,2.189014 l -1.928564,0.167431 q 0.607714,-2.095996 2.139404,-6.232177 -0.285254,0.03101 -0.644922,0.117822 l 0.117822,-1.389063 q 0.551904,-0.124023 1.11001,-0.167431 2.412256,-0.21084 3.609082,-0.03101 2.114599,0.328662 1.723926,1.767334 z m -2.127002,0.5271 q 0.21084,-0.781348 -0.930176,-0.911573 -0.235645,-0.03101 -1.928564,0.0248 l 0.74414,0.31626 -0.750342,2.244824 q 0.89917,-0.08682 1.723926,-0.496094 0.961182,-0.489892 1.141016,-1.178222 z"
         style="font-style:normal;font-variant:normal;font-weight:normal;font-stretch:normal;font-size:12.69999981px;font-family:'SF Comic Script Extended';-inkscape-font-specification:'SF Comic Script Extended, Normal';font-variant-ligatures:normal;font-variant-caps:normal;font-variant-numeric:normal;font-feature-settings:normal;text-align:start;writing-mode:lr-tb;text-anchor:start;stroke-width:0.26458332"
         id="path1019"
         inkscape:connector-curvature="0" />
      <path
         d="m 72.790888,25.111251 -0.502295,1.519287 -2.040186,0.08682 q -0.465088,1.53789 -0.855761,2.976562 -0.390674,1.444873 -0.731739,2.957959 l -1.978174,0.173633 q 0.347266,-1.686719 0.781348,-3.292822 0.341065,-1.289844 0.79375,-2.69751 l -1.990576,0.07441 0.508496,-1.537891 z"
         style="font-style:normal;font-variant:normal;font-weight:normal;font-stretch:normal;font-size:12.69999981px;font-family:'SF Comic Script Extended';-inkscape-font-specification:'SF Comic Script Extended, Normal';font-variant-ligatures:normal;font-variant-caps:normal;font-variant-numeric:normal;font-feature-settings:normal;text-align:start;writing-mode:lr-tb;text-anchor:start;stroke-width:0.26458332"
         id="path1021"
         inkscape:connector-curvature="0" />
      <path
         d="m 79.872626,25.222872 q -1.258838,1.463477 -3.057178,3.906739 -0.235645,0.316259 -0.644922,0.973583 -0.148828,0.297657 -0.310059,0.892969 -0.254248,0.94878 -0.421679,1.754932 l -1.947168,0.06201 q 0.198437,-0.917774 0.403076,-1.69292 0.155029,-0.626319 0.328662,-1.134815 -0.248047,-0.601513 -0.551904,-2.232422 -0.254248,-1.382861 -0.297656,-2.201416 l 2.009179,-0.334863 q 0.05581,0.725537 0.10542,1.457275 0.09922,0.855762 0.341065,1.364258 1.215429,-2.021582 2.17041,-2.926953 z"
         style="font-style:normal;font-variant:normal;font-weight:normal;font-stretch:normal;font-size:12.69999981px;font-family:'SF Comic Script Extended';-inkscape-font-specification:'SF Comic Script Extended, Normal';font-variant-ligatures:normal;font-variant-caps:normal;font-variant-numeric:normal;font-feature-settings:normal;text-align:start;writing-mode:lr-tb;text-anchor:start;stroke-width:0.26458332"
         id="path1023"
         inkscape:connector-curvature="0" />
    </g>
    <g
       aria-label="Five"
       style="font-style:normal;font-variant:normal;font-weight:500;font-stretch:normal;font-size:12.69999981px;line-height:1.25;font-family:'3270Medium Nerd Font';-inkscape-font-specification:'3270Medium Nerd Font, Medium';font-variant-ligatures:normal;font-variant-caps:normal;font-variant-numeric:normal;font-feature-settings:normal;text-align:start;letter-spacing:0px;word-spacing:0px;writing-mode:lr-tb;text-anchor:start;fill:#000000;fill-opacity:1;stroke:none;stroke-width:0.26458332"
       id="text910"
       transform="translate(-26.192414,-22.990551)">
      <path
         d="m 88.878573,24.135119 -0.601513,1.872754 q -0.837158,0.03721 -1.792139,0.117822 l -1.128613,0.10542 q -0.626318,0.05581 -1.196826,0.130225 -0.136426,0.347265 -0.235645,0.706933 -0.10542,0.446485 -0.241846,1.172022 0.911573,-0.111621 1.810743,-0.198438 0.911572,-0.07441 1.810742,-0.117822 l -0.508496,1.90376 q -0.886768,0.0124 -1.810742,0.09922 -0.89917,0.07442 -1.816944,0.223243 -0.310058,0.905371 -0.58291,1.916162 -0.26665,0.992187 -0.434082,1.891357 l -2.480469,0.21084 q 0.359668,-1.767334 1.116211,-4.557861 0.378272,-1.438672 0.905371,-3.050977 l -1.004589,-0.0124 0.47749,-1.79834 q 2.864941,-0.155029 5.13457,-0.359668 1.513086,-0.124023 2.579687,-0.254248 z"
         style="font-style:normal;font-variant:normal;font-weight:normal;font-stretch:normal;font-size:12.69999981px;font-family:'SF Comic Script Extended';-inkscape-font-specification:'SF Comic Script Extended, Normal';font-variant-ligatures:normal;font-variant-caps:normal;font-variant-numeric:normal;font-feature-settings:normal;text-align:start;writing-mode:lr-tb;text-anchor:start;stroke-width:0.26458332"
         id="path1006"
         inkscape:connector-curvature="0" />
      <path
         d="m 91.836532,24.656017 q -0.744141,2.145606 -1.227832,3.981153 -0.465088,1.742529 -0.806152,3.534668 l -1.965772,0.167431 q 0.359668,-1.990576 0.84336,-3.788916 0.508496,-1.897558 1.209228,-3.832324 z"
         style="font-style:normal;font-variant:normal;font-weight:normal;font-stretch:normal;font-size:12.69999981px;font-family:'SF Comic Script Extended';-inkscape-font-specification:'SF Comic Script Extended, Normal';font-variant-ligatures:normal;font-variant-caps:normal;font-variant-numeric:normal;font-feature-settings:normal;text-align:start;writing-mode:lr-tb;text-anchor:start;stroke-width:0.26458332"
         id="path1008"
         inkscape:connector-curvature="0" />
      <path
         d="m 99.339949,24.463781 q -0.837158,1.16582 -2.058789,3.274219 -1.513086,2.59209 -2.27583,4.260205 -0.843359,-0.04961 -1.754931,0.03101 -0.403077,0.03721 -0.73794,0.08682 -0.05581,-1.302246 0.03101,-3.373437 0.10542,-2.319239 0.285254,-3.981153 l 1.872754,-0.09302 q -0.372071,3.131592 -0.235645,5.004345 1.283643,-2.765722 2.852539,-5.109765 z"
         style="font-style:normal;font-variant:normal;font-weight:normal;font-stretch:normal;font-size:12.69999981px;font-family:'SF Comic Script Extended';-inkscape-font-specification:'SF Comic Script Extended, Normal';font-variant-ligatures:normal;font-variant-caps:normal;font-variant-numeric:normal;font-feature-settings:normal;text-align:start;writing-mode:lr-tb;text-anchor:start;stroke-width:0.26458332"
         id="path1010"
         inkscape:connector-curvature="0" />
      <path
         d="m 106.33487,24.265344 -0.48989,1.488281 q -0.85576,0.04341 -1.81074,0.130224 -0.80616,0.07441 -1.46968,0.148829 -0.093,0.303857 -0.19224,0.644921 -0.11782,0.42168 -0.18603,0.868164 0.68213,-0.09922 1.44487,-0.16123 0.77515,-0.06201 1.45107,-0.09302 l -0.40927,1.525489 q -0.74414,0.0062 -1.44488,0.07441 -0.69453,0.06201 -1.45727,0.179834 -0.17983,0.396875 -0.27285,0.768945 -0.10542,0.37207 -0.13023,0.750342 0.77515,-0.09302 1.64951,-0.179834 0.86197,-0.07441 1.63091,-0.10542 l -0.40307,1.525488 q -1.36426,0.06201 -2.6231,0.167432 -1.24643,0.117822 -2.647899,0.285254 0.341064,-1.618506 0.787548,-3.249414 0.403081,-1.500684 0.855761,-2.90835 l -0.781346,0.03101 0.334866,-1.407666 q 2.25722,-0.111621 4.02456,-0.260449 1.048,-0.09922 2.1394,-0.223242 z"
         style="font-style:normal;font-variant:normal;font-weight:normal;font-stretch:normal;font-size:12.69999981px;font-family:'SF Comic Script Extended';-inkscape-font-specification:'SF Comic Script Extended, Normal';font-variant-ligatures:normal;font-variant-caps:normal;font-variant-numeric:normal;font-feature-settings:normal;text-align:start;writing-mode:lr-tb;text-anchor:start;stroke-width:0.26458332"
         id="path1012"
         inkscape:connector-curvature="0" />
    </g>
    <g
       id="g415"
       transform="matrix(0.35200638,0.0181621,0.01904945,-0.34872309,80.024703,2.4752806)"
       style="fill:#000000"
       inkscape:export-xdpi="500"
       inkscape:export-ydpi="500">
      <path
         style="fill:#000000;fill-opacity:1;fill-rule:nonzero;stroke:none"
         d="m 9.8412285,-5.4658991 c 0.5605315,1.331652 1.8876015,5.38374744 2.9314805,4.0663018 0.31603,-1.7347548 -0.577687,-3.3805971 -1.011079,-5.0070548 0.04887,-1.3168565 -1.9574324,-3.2098977 -2.4518571,-1.3252035 0.064226,0.7800698 0.4729296,1.4857091 0.5314556,2.2659565 z m 0.5779995,1.364 c -0.134223,-0.4852112 -0.03737,0.2207471 0,0 z m 26.605518,2.0007292 c 1.10724,-1.2184935 0.918079,-2.8878298 0.74808,-4.3864279 -0.104058,-1.4371648 -0.313531,-4.0222912 -1.159864,-4.1020312 -1.507871,-0.121262 -1.971893,2.0329238 -1.528734,3.2177299 1.025787,2.151397 1.003178,6.97086534 1.940518,5.2707292 z M 17.269228,-2.2048991 c 0.833757,1.79917824 2.972885,6.2733414 3.828785,6.3285948 1.017578,-0.587091 -1.130699,-2.8811941 -0.999174,-4.40069616 -0.264689,-1.57859144 -0.532318,-3.79331634 -1.304707,-4.60654724 -1.916328,-1.1234619 -2.02897,1.405544 -1.524904,2.6786486 z m 13.979,-0.995 c 1.155283,2.1663179 1.497851,5.7141879 2.716614,4.5756975 1.04248,-1.28404426 0.281927,-3.0312259 0.0241,-4.4711349 -0.453006,-1.0809403 -1.373612,-3.9893197 -2.740831,-2.1837273 -0.369705,0.6725716 -0.01977,1.3821974 1.17e-4,2.0791647 z m 0.52,1.22 c 0.145552,0.5710137 0.06379,-0.1271731 0,0 z m -7.152,1.63000004 c 0.254958,0.5332662 1.353664,2.96556706 1.53676,3.34381046 0.402563,0.9914652 2.507269,1.8750571 1.599674,-0.2332076 -0.06158,-0.4199191 -0.741144,-2.50889096 -0.941989,-3.8751179 0.15096,-1.8093442 -3.421658,-2.6173071 -2.49814,-0.3468884 0.106633,0.3703539 0.274165,0.72261994 0.303695,1.11140344 z m 0.537,1.134 c 0.149084,0.53505696 0.06025,-0.1259965 0,0 z m 10.568,-17.79799994 c -0.294468,-1.505008 -1.787546,-2.013044 -3.073988,-2.266467 -0.773735,-0.135075 -0.788589,-0.03878 -1.342918,0.292121 -0.991415,0.845332 -0.678764,4.229142 -0.678764,4.229142 0.155569,0.919452 1.194871,2.788799 2.540748,3.602235 0.467237,0.583809 2.741478,0.463661 2.637834,-0.957656 1.562638,-1.314371 0.917324,-3.452712 -0.08291,-4.899375 z M 16.870145,-28.608036 c -2.609035,0.28215 -5.347152,1.038392 -7.2927319,2.992504 -1.5327688,1.369539 -1.2894661,3.549151 -0.7951612,5.335203 0.331524,0.408126 0.4277894,2.72849 3.3589241,3.919523 1.84669,0.875672 4.012062,0.77872 5.903311,0.1144 1.238956,-0.255011 2.098578,1.198515 3.575508,0.584244 1.609331,-0.467932 3.21908,-0.794061 4.897636,-0.944804 1.642114,-0.671662 2.631452,-2.29211 3.983228,-3.377814 1.261417,-1.141412 1.959942,-2.704122 2.2866,-4.339109 0.482651,-2.189481 -0.780542,-4.400509 -2.56302,-5.614648 -0.558191,-0.469834 -1.699093,-1.028941 -1.699093,-1.028941 -2.410566,-0.375563 -3.812699,1.59306 -6.403903,2.04556 -5.043115,0.57411 -2.318604,0.06483 -5.251298,0.313882 z m -7.204076,11.017205 c -1.0395916,-0.568234 -2.6306355,1.327305 -2.6844498,2.729061 0.030558,1.415247 0.1576953,3.030296 1.1781594,4.12007 0.8486697,0.538682 1.8515534,0.9279473 2.3399744,1.0889102 1.186179,0.109375 1.62091,-0.9014282 1.889979,-1.0611812 1.227427,-1.007983 -0.187271,-2.647872 -0.35024,-3.988988 -0.5288,-1.222254 -1.181565,-2.372783 -2.373423,-2.887872 z m 5.210159,10.6639319 c 1.088815,1.0761891 2.06463,2.1676021 3.541078,1.5448559 1.068704,-0.7047948 1.208975,-2.5025263 1.33964,-3.5195237 -0.08149,-1.6248591 -0.671325,-3.1581921 -1.773203,-4.3692991 -1.166326,-0.467828 -3.371526,-0.482606 -3.735304,1.015409 -0.779873,1.960224 -1.466498,2.2988925 0.250168,4.7290443 0.111298,0.2130741 0.248587,0.3953242 0.377621,0.5995136 z m 6.315,-0.996 c 0.377249,1.142212 1.028576,2.9531101 1.462425,3.5776609 0.0673,1.5083935 2.702909,1.1300289 3.710372,0.239761 2.037636,-0.3900303 0.65452,-6.4234638 1.342684,-4.1916094 0.873605,0.9949178 1.712751,2.1291992 3.027255,2.0020394 1.451085,-0.4944128 1.900645,-2.5819592 1.934438,-3.9265078 -0.472776,-1.705326 -2.948253,-5.250141 -4.268668,-3.633761 -1.11262,-0.356071 -1.933627,0.09511 -1.906631,1.420542 -0.443803,1.507806 -1.16819,1.227049 -1.303295,1.016411 -0.834127,-0.600651 -0.459358,-1.103485 -1.813734,-0.736924 -1.697267,1.200281 -2.321425,1.446591 -2.289741,3.629558 0.03711,0.2005574 0.07433,0.4011417 0.104895,0.6028299 z"
         id="path417"
         inkscape:connector-curvature="0"
         sodipodi:nodetypes="cccccccccccccccccccccccccccccccccccccccccccccccccccccccccccccccccccccccccccccc" />
    </g>
  </g>
</svg>
