<?xml version="1.0" encoding="UTF-8" standalone="no"?>
<!-- Created with Inkscape (http://www.inkscape.org/) -->

<svg
   xmlns:dc="http://purl.org/dc/elements/1.1/"
   xmlns:cc="http://creativecommons.org/ns#"
   xmlns:rdf="http://www.w3.org/1999/02/22-rdf-syntax-ns#"
   xmlns:svg="http://www.w3.org/2000/svg"
   xmlns="http://www.w3.org/2000/svg"
   xmlns:sodipodi="http://sodipodi.sourceforge.net/DTD/sodipodi-0.dtd"
   xmlns:inkscape="http://www.inkscape.org/namespaces/inkscape"
   width="210mm"
   height="297mm"
   viewBox="0 0 210 297"
   version="1.1"
   id="svg291"
   inkscape:export-filename="/home/david/projects/thefortyfive/paw.svg.png"
   inkscape:export-xdpi="500"
   inkscape:export-ydpi="500"
   inkscape:version="0.92.4 5da689c313, 2019-01-14"
   sodipodi:docname="paw.svg">
  <defs
     id="defs285" />
  <sodipodi:namedview
     id="base"
     pagecolor="#ffffff"
     bordercolor="#666666"
     borderopacity="1.0"
     inkscape:pageopacity="0.0"
     inkscape:pageshadow="2"
     inkscape:zoom="7.9195959"
     inkscape:cx="281.66738"
     inkscape:cy="513.04358"
     inkscape:document-units="mm"
     inkscape:current-layer="layer1"
     showgrid="false"
     inkscape:window-width="1440"
     inkscape:window-height="900"
     inkscape:window-x="0"
     inkscape:window-y="0"
     inkscape:window-maximized="0" />
  <metadata
     id="metadata288">
    <rdf:RDF>
      <cc:Work
         rdf:about="">
        <dc:format>image/svg+xml</dc:format>
        <dc:type
           rdf:resource="http://purl.org/dc/dcmitype/StillImage" />
        <dc:title></dc:title>
      </cc:Work>
    </rdf:RDF>
  </metadata>
  <g
     inkscape:label="Layer 1"
     inkscape:groupmode="layer"
     id="layer1">
    <rect
       style="fill:#ffffff;stroke-width:0.26458332"
       id="rect320"
       width="20.546345"
       height="23.252449"
       x="61.772671"
       y="150.36925"
       inkscape:export-xdpi="500"
       inkscape:export-ydpi="500" />
    <g
       id="g415"
       transform="matrix(0.64191237,0,0,-0.64191237,64.203653,155.9294)"
       style="fill:#000000"
       inkscape:export-xdpi="500"
       inkscape:export-ydpi="500">
      <path
         d="M 0,0 -0.05,-0.041 0.018,0.19 C -0.02,0.062 0.079,0.181 0,0 m 1.825,-1.91 c 0.088,0.191 0.095,0.352 0.159,0.551 0.057,0.092 0.046,-0.095 0.021,-0.251 -0.044,-0.069 -0.138,-0.313 -0.18,-0.3 m -2.18,0.708 0.004,0.086 c 0.026,0.103 0.123,0.286 0.109,0.134 l 0.012,-0.032 c -0.006,0.277 0.196,0.432 0.222,0.749 l 0.094,0.254 C 0.11,-0.03 0.049,-0.377 0.16,-0.069 0.168,-0.053 0.176,-0.034 0.183,-0.015 0.193,0.02 0.204,0.053 0.215,0.086 0.238,0.173 0.258,0.263 0.272,0.31 L 0.268,0.384 C 0.346,0.582 0.333,0.716 0.433,0.961 0.437,1.078 0.373,0.899 0.357,0.907 0.329,0.792 0.277,0.735 0.24,0.67 0.234,0.666 0.23,0.667 0.227,0.668 L 0.167,0.397 C 0.211,0.631 0.058,0.321 0.214,0.686 0.198,0.616 0.212,0.642 0.223,0.667 0.211,0.678 0.216,0.728 0.237,0.801 0.405,1.357 0.345,0.792 0.527,1.172 0.52,1.186 0.529,1.246 0.505,1.212 0.601,1.501 0.743,1.598 0.835,1.934 0.891,2.048 0.944,2.072 0.995,2.148 0.969,2.047 1.008,2.063 1.052,2.091 1.096,2.164 1.14,2.235 1.186,2.306 1.18,2.303 1.172,2.298 1.166,2.297 1.305,2.495 1.082,2.313 1.263,2.544 1.317,2.63 1.318,2.548 1.367,2.582 1.372,2.578 1.38,2.582 1.39,2.589 1.418,2.625 1.447,2.661 1.476,2.696 L 1.537,2.837 C 1.471,2.774 1.322,2.623 1.39,2.735 1.482,2.824 1.692,3.019 1.689,2.953 1.694,2.947 1.69,2.936 1.684,2.921 1.896,3.134 2.132,3.309 2.395,3.438 2.492,3.224 2.522,2.909 2.503,2.527 2.579,2.291 2.651,2.079 2.715,2.272 2.724,2.278 2.73,2.268 2.737,2.234 2.756,2.152 2.701,1.914 2.698,1.889 2.703,1.888 2.7,1.835 2.701,1.808 2.657,1.68 2.631,1.79 2.615,1.792 2.661,1.708 2.647,1.358 2.544,1.057 2.428,0.917 2.505,0.608 2.382,0.5 2.37,0.207 2.186,-0.126 2.143,-0.411 2.089,-0.478 2.058,-0.471 2,-0.59 2.008,-0.699 1.931,-0.896 1.921,-1 1.896,-1.047 1.885,-1.044 1.858,-1.091 1.875,-1.284 1.793,-1.612 1.706,-1.886 L 1.573,-2.146 C 1.557,-2.249 1.548,-2.342 1.541,-2.431 1.356,-2.854 1.149,-3.231 0.954,-3.51 0.946,-3.52 0.937,-3.528 0.929,-3.537 0.873,-3.711 0.823,-3.869 0.78,-4.013 0.804,-4.052 0.789,-4.078 0.754,-4.098 0.739,-4.15 0.724,-4.2 0.71,-4.248 0.654,-4.208 0.599,-4.179 0.544,-4.155 0.485,-4.168 0.434,-4.183 0.416,-4.208 L 0.341,-4.22 c -0.289,0.115 -0.725,-0.105 -1.057,0.167 0.128,-0.148 -0.107,-0.039 -0.171,0.01 -0.118,0.537 0.075,0.636 0.167,1.059 0.02,0.159 0,0.2 0,0.323 0.033,0.17 0.134,0.279 0.083,0.378 l 0.105,0.274 c -0.009,-0.049 0.011,-0.03 0.027,0.025 0.043,0.262 0.191,0.634 0.15,0.782 M 0.223,0.162 C 0.193,0.089 0.13,-0.056 0.146,0.049 0.173,0.096 0.194,0.144 0.218,0.218 Z m 24.866,-2.234 -0.05,-0.044 0.062,0.241 c -0.034,-0.134 0.062,-0.006 -0.012,-0.197 m 2.531,-1.047 c 0.066,0.212 0.042,0.383 0.074,0.598 0.041,0.107 0.061,-0.088 0.062,-0.256 -0.028,-0.08 -0.094,-0.349 -0.136,-0.342 M 26.129,1.246 C 26.231,1.897 26.244,2.498 26.083,3 26.572,2.642 26.908,2.125 27.127,1.513 27.29,1.314 27.435,1.139 27.419,1.347 c 0.006,0.01 0.018,0.003 0.038,-0.028 0.064,-0.072 0.081,-0.328 0.089,-0.354 0.005,0.001 0.022,-0.053 0.033,-0.079 0.008,-0.143 -0.058,-0.041 -0.074,-0.045 0.085,-0.068 0.182,-0.421 0.18,-0.758 -0.059,-0.173 0.086,-0.464 0.002,-0.608 0.075,-0.302 -0.038,-0.686 -0.013,-0.987 -0.039,-0.08 -0.072,-0.079 -0.105,-0.214 0.03,-0.11 -0.008,-0.326 0.003,-0.435 -0.017,-0.054 -0.028,-0.053 -0.046,-0.106 0.045,-0.194 0.028,-0.549 -0.027,-0.844 l -0.098,-0.288 c -0.001,-0.11 0,-0.206 0.002,-0.3 -0.136,-0.465 -0.316,-0.877 -0.496,-1.178 -0.008,-0.011 -0.015,-0.019 -0.023,-0.029 -0.086,-0.332 -0.175,-0.647 -0.265,-0.937 0.023,-0.05 0.043,-0.095 0.062,-0.125 L 26.68,-6.052 c -0.145,-0.122 0.024,-0.474 -0.393,-0.388 -0.056,0.035 -0.112,0.067 -0.169,0.098 -0.023,-0.011 -0.016,-0.008 0,0 -0.111,0.065 -0.224,0.127 -0.33,0.205 0.114,-0.161 -0.086,-0.035 -0.167,-0.031 -0.283,0.283 -0.514,0.464 -0.642,0.894 -0.071,0.157 -0.113,0.187 -0.182,0.308 -0.063,0.188 0.02,0.337 -0.068,0.42 0.004,0.108 -0.004,0.215 0.012,0.318 0,-0.052 0.018,-0.029 0.024,0.033 -0.012,0.285 0.07,0.699 0.03,0.845 l -0.003,0.091 c 0.018,0.113 0.096,0.313 0.096,0.151 l 0.014,-0.032 c -0.037,0.292 0.181,0.461 0.186,0.794 l 0.088,0.268 c 0.024,-0.02 -0.032,-0.38 0.075,-0.058 0.006,0.013 0.012,0.028 0.017,0.042 0.013,0.051 0.027,0.102 0.041,0.154 0.016,0.08 0.029,0.16 0.042,0.203 l -0.008,0.076 c 0.073,0.208 0.048,0.348 0.134,0.605 -0.003,0.12 -0.057,-0.068 -0.073,-0.061 -0.021,-0.12 -0.07,-0.183 -0.103,-0.251 -0.005,-0.005 -0.009,-0.004 -0.013,-0.003 l -0.047,-0.282 c 0.033,0.243 -0.104,-0.083 0.033,0.299 -0.01,-0.072 0,-0.046 0.011,-0.018 -0.014,0.009 -0.012,0.06 0.005,0.137 0.129,0.58 0.116,-0.003 0.26,0.406 -0.009,0.013 -0.007,0.076 -0.028,0.039 0.065,0.302 0.19,0.426 0.212,0.779 0.025,0.127 0.067,0.164 0.095,0.253 0.004,-0.119 0.044,-0.072 0.082,-0.026 0.021,0.081 0.04,0.161 0.059,0.242 -0.005,-0.007 -0.011,-0.016 -0.017,-0.019 0.055,0.242 -0.079,-0.015 -0.01,0.272 0.014,0.101 0.05,0.027 0.08,0.08 0.008,-0.003 0.02,0.014 0.03,0.037 0.006,0.031 0.012,0.064 0.018,0.096 l -0.023,0.178 c -0.024,-0.09 -0.074,-0.294 -0.073,-0.163 0.036,0.122 0.108,0.398 0.138,0.345 0.01,-0.002 0.015,-0.017 0.016,-0.038 m -0.822,-3.14 c -0.027,-0.076 -0.085,-0.229 -0.073,-0.121 0.025,0.05 0.044,0.101 0.066,0.179 z M 7.563,3.44 7.505,3.39 7.609,3.672 C 7.553,3.517 7.672,3.661 7.563,3.44 m 2.433,0.184 c 0.084,0.242 0.081,0.44 0.152,0.685 C 10.207,4.426 10.192,4.2 10.169,4.011 10.126,3.922 10.039,3.615 9.996,3.624 M 7.073,2.059 c 0.031,0.132 0.155,0.359 0.122,0.17 L 7.203,2.191 C 7.226,2.532 7.448,2.729 7.52,3.116 L 7.65,3.429 C 7.669,3.405 7.562,2.98 7.717,3.357 7.727,3.375 7.736,3.395 7.746,3.416 7.766,3.47 7.786,3.523 7.807,3.577 7.839,3.674 7.866,3.769 7.887,3.82 L 7.893,3.911 C 8.006,4.15 8.006,4.316 8.144,4.614 8.167,4.755 8.072,4.539 8.059,4.547 8.014,4.406 7.953,4.337 7.906,4.257 7.899,4.252 7.896,4.253 7.893,4.254 L 7.791,3.926 C 7.87,4.21 7.669,3.833 7.882,4.275 7.855,4.191 7.873,4.222 7.889,4.254 7.877,4.266 7.888,4.326 7.92,4.415 8.169,5.09 8.035,4.405 8.269,4.873 8.262,4.889 8.278,4.963 8.25,4.92 8.384,5.271 8.541,5.399 8.661,5.81 8.726,5.952 8.779,5.989 8.835,6.087 8.804,5.958 8.85,5.991 8.899,6.033 8.946,6.128 8.994,6.22 9.042,6.31 9.035,6.305 9.026,6.296 9.021,6.293 9.159,6.558 8.933,6.294 9.112,6.605 9.166,6.718 9.172,6.624 9.222,6.677 9.228,6.673 9.237,6.682 9.249,6.694 9.275,6.741 9.302,6.788 9.327,6.834 L 9.376,7.021 C 9.313,6.927 9.178,6.709 9.234,6.858 9.32,6.987 9.515,7.276 9.521,7.205 9.528,7.199 9.525,7.184 9.519,7.163 c 0.097,0.164 0.193,0.316 0.283,0.45 0.186,0.148 0.349,0.263 0.493,0.354 0.212,0.225 0.411,0.424 0.159,0.348 -0.013,0.002 -0.004,0.016 0.032,0.045 0.069,0.08 0.507,0.169 0.638,0.058 0,0.019 0.147,-0.078 0.187,-0.139 C 11.43,7.971 11.284,8.195 11.273,8.179 11.443,7.992 11.404,7.511 11.149,7.104 10.978,6.981 10.935,6.62 10.79,6.512 10.686,6.183 10.439,5.801 10.362,5.457 10.301,5.376 10.269,5.384 10.196,5.238 10.195,5.106 10.104,4.865 10.09,4.737 10.062,4.679 10.05,4.681 10.023,4.621 10.036,4.388 9.95,3.981 9.875,3.637 L 9.751,3.3 C 9.74,3.171 9.735,3.057 9.733,2.946 9.572,2.397 9.386,1.896 9.195,1.526 9.187,1.513 9.179,1.502 9.171,1.489 9.079,1.099 8.979,0.721 8.865,0.364 8.884,0.307 8.9,0.252 8.915,0.218 L 8.906,0.117 c -0.134,-0.24 -0.268,-0.686 -0.47,-0.87 l 0.003,-0.002 0.044,-0.03 0.012,-0.008 0.006,-0.004 V -0.798 C 8.694,-0.79 8.545,-0.796 8.374,-0.802 8.35,-0.845 8.325,-0.889 8.3,-0.931 c -0.028,0.04 -0.06,0.074 -0.095,0.102 -0.006,0.001 -0.012,0.001 -0.017,0.002 0.1,-0.188 -0.097,-0.009 -0.17,-0.05 -0.162,0.1 -0.363,0.098 -0.559,0.102 -0.101,0.003 -0.206,0.006 -0.323,0.025 -0.249,0.183 -0.14,0.249 -0.22,0.397 -0.048,0.202 -0.088,0.247 -0.134,0.405 -0.004,0.227 0.065,0.393 0.005,0.505 l 0.08,0.367 C 6.862,0.86 6.881,0.888 6.893,0.959 6.925,1.297 7.088,1.772 7.062,1.952 Z M 7.721,3.501 C 7.754,3.559 7.783,3.617 7.818,3.708 L 7.815,3.64 C 7.775,3.551 7.689,3.375 7.721,3.501 M 21.426,2.241 21.374,2.203 21.447,2.427 C 21.407,2.303 21.509,2.415 21.426,2.241 m 2.685,-0.408 c 0.053,0.095 0.049,-0.092 0.031,-0.25 -0.041,-0.071 -0.124,-0.32 -0.169,-0.307 0.087,0.193 0.079,0.358 0.138,0.557 m -3.059,-0.769 0.006,0.085 c 0.026,0.104 0.122,0.284 0.108,0.132 l 0.012,-0.03 c -0.012,0.275 0.202,0.421 0.232,0.731 l 0.101,0.247 c 0.023,-0.021 -0.05,-0.357 0.072,-0.061 0.008,0.014 0.015,0.028 0.021,0.045 0.014,0.039 0.028,0.078 0.041,0.117 0.023,0.081 0.042,0.163 0.057,0.206 L 21.699,2.609 C 21.782,2.8 21.763,2.934 21.86,3.171 21.863,3.285 21.802,3.111 21.786,3.118 21.76,3.007 21.708,2.951 21.672,2.889 21.666,2.885 21.663,2.886 21.659,2.888 L 21.598,2.625 c 0.047,0.227 -0.107,-0.071 0.048,0.279 -0.014,-0.066 -0.001,-0.043 0.009,-0.017 -0.011,0.009 -0.009,0.058 0.012,0.129 0.155,0.539 0.115,-0.012 0.277,0.363 -0.008,0.013 -0.003,0.073 -0.025,0.039 0.082,0.28 0.207,0.389 0.25,0.721 0.032,0.117 0.077,0.148 0.108,0.23 -0.001,-0.109 0.038,-0.074 0.077,-0.036 0.026,0.077 0.05,0.154 0.075,0.23 -0.007,-0.006 -0.014,-0.014 -0.02,-0.017 0.068,0.224 -0.084,-0.007 0.011,0.256 0.019,0.094 0.051,0.021 0.084,0.068 0.007,-0.003 0.016,0.008 0.024,0.024 0.011,0.035 0.021,0.07 0.032,0.105 L 22.546,5.162 C 22.518,5.079 22.455,4.891 22.464,5.015 c 0.04,0.112 0.134,0.365 0.162,0.312 0.009,-0.003 0.011,-0.016 0.011,-0.035 0.086,0.348 0.146,0.681 0.167,0.992 0.363,-0.142 0.633,-0.375 0.829,-0.671 0.198,-0.146 0.37,-0.293 0.317,-0.095 0.004,0.01 0.016,0.004 0.044,-0.021 0.068,-0.062 0.118,-0.314 0.13,-0.338 0.005,0.001 0.029,-0.05 0.044,-0.074 C 24.193,4.946 24.114,5.04 24.099,5.034 24.19,4.979 24.296,4.631 24.293,4.307 24.209,4.143 24.386,3.855 24.274,3.723 24.323,3.431 24.201,3.072 24.187,2.789 24.142,2.716 24.114,2.719 24.068,2.596 24.086,2.489 24.022,2.291 24.024,2.186 24.003,2.138 23.992,2.139 23.971,2.091 24,1.902 23.932,1.572 23.853,1.299 L 23.72,1.042 C 23.705,0.94 23.696,0.848 23.69,0.758 23.495,0.342 23.266,-0.019 23.047,-0.271 c -0.009,-0.008 -0.018,-0.015 -0.026,-0.023 -0.131,-0.298 -0.266,-0.576 -0.4,-0.83 0.014,-0.05 0.025,-0.097 0.038,-0.128 l -0.013,-0.079 c -0.139,-0.152 -0.111,-0.299 -0.404,-0.432 -0.166,0.066 -0.333,0.132 -0.512,0.195 0.152,-0.104 -0.069,-0.061 -0.137,-0.099 -0.406,0.271 -0.48,0.493 -0.569,0.908 -0.048,0.156 -0.085,0.19 -0.135,0.311 -0.015,0.18 0.059,0.312 -0.015,0.4 0.005,0.102 0.04,0.195 0.059,0.292 -0.003,-0.05 0.015,-0.028 0.024,0.028 -0.003,0.274 0.146,0.645 0.095,0.792 m 0.52,1.22 c 0.028,0.045 0.049,0.091 0.074,0.163 L 21.65,2.393 C 21.62,2.322 21.555,2.184 21.572,2.284 m -6.761,2.73 -0.052,-0.035 0.075,0.212 C 14.793,5.074 14.896,5.178 14.811,5.014 m 2.178,-0.89 c -0.03,-0.067 -0.074,-0.307 -0.117,-0.302 0.049,0.19 0.022,0.337 0.049,0.526 0.039,0.09 0.062,-0.078 0.068,-0.224 m -2.569,-0.21 0.008,0.079 c 0.028,0.097 0.126,0.262 0.11,0.119 l 0.011,-0.029 c -0.002,0.259 0.197,0.393 0.242,0.685 l 0.105,0.23 c 0.023,-0.021 -0.051,-0.33 0.067,-0.069 0.024,0.067 0.052,0.132 0.078,0.198 0.018,0.062 0.033,0.122 0.046,0.155 l -0.002,0.072 c 0.098,0.171 0.087,0.301 0.202,0.518 C 15.299,5.982 15.225,5.821 15.21,5.83 15.175,5.726 15.12,5.678 15.079,5.62 15.073,5.617 15.069,5.618 15.065,5.62 L 14.986,5.374 c 0.062,0.213 -0.113,-0.061 0.069,0.264 -0.021,-0.064 -0.006,-0.041 0.008,-0.018 -0.012,0.011 -0.005,0.056 0.021,0.123 0.198,0.506 0.112,-0.023 0.302,0.32 -0.007,0.013 0.003,0.071 -0.021,0.041 0.12,0.255 0.271,0.327 0.379,0.634 0.052,0.107 0.106,0.122 0.167,0.183 -0.037,-0.089 0.005,-0.079 0.052,-0.061 0.058,0.077 0.115,0.155 0.176,0.226 0.049,0.084 -0.094,-0.001 0.065,0.172 0.057,0.076 0.054,-0.004 0.102,0.023 0.003,-0.004 0.007,-0.003 0.014,-10e-4 0.033,0.033 0.063,0.066 0.095,0.097 l 0.073,0.121 c -0.075,-0.044 -0.223,-0.17 -0.154,-0.071 0.1,0.067 0.322,0.214 0.314,0.155 0.098,0.077 0.199,0.149 0.304,0.214 C 17.149,7.772 17.296,7.722 17.404,7.648 17.625,7.569 17.823,7.44 17.73,7.626 17.731,7.64 17.746,7.633 17.78,7.6 17.84,7.449 17.996,7.363 17.781,7.007 17.785,7.004 17.759,6.97 17.748,6.951 17.656,6.891 17.685,6.979 17.673,6.99 17.662,6.908 17.517,6.677 17.363,6.46 17.219,6.379 17.256,6.1 17.136,6.021 17.104,5.773 16.942,5.478 16.931,5.216 16.885,5.152 16.851,5.157 16.811,5.043 16.833,4.945 16.784,4.76 16.794,4.663 16.776,4.617 16.766,4.618 16.749,4.572 16.799,4.399 16.78,4.091 16.75,3.826 L 16.669,3.566 C 16.673,3.47 16.681,3.382 16.69,3.298 16.584,2.877 16.411,2.488 16.197,2.248 16.188,2.24 16.182,2.235 16.173,2.228 16.045,1.937 15.866,1.71 15.606,1.579 15.593,1.533 15.574,1.489 15.558,1.455 L 15.489,1.407 C 15.11,1.309 14.773,1.41 14.438,1.521 14.585,1.426 14.373,1.458 14.303,1.419 14.223,1.46 14.148,1.489 14.075,1.515 14.013,1.591 14.059,1.396 13.909,1.691 l 0.023,0.106 c 0.03,0.14 0.06,0.287 0.132,0.462 0.015,0.148 -0.006,0.188 -0.009,0.303 0.026,0.159 0.132,0.258 0.079,0.351 l 0.103,0.254 c -0.009,-0.046 0.011,-0.028 0.028,0.021 0.039,0.247 0.188,0.587 0.155,0.726 m 0.537,1.134 C 14.984,5.09 15.006,5.133 15.031,5.2 L 15.035,5.147 C 15.005,5.082 14.938,4.952 14.957,5.048 m 6.886,-21.952 c 0.153,-0.266 0.53,-1.208 0.459,-1.233 -0.283,0.755 -0.658,1.233 -1.118,1.896 -0.206,0.366 0.314,-0.165 0.659,-0.663 M -2.93,-7.262 c -0.149,-0.211 -0.14,-0.414 -0.212,-0.643 -0.087,-0.104 -0.111,0.126 -0.098,0.32 0.076,0.076 0.23,0.357 0.31,0.323 m 28.455,-5.488 c 0.029,-0.268 -0.184,-0.654 -0.408,-0.952 l -0.319,-0.224 c -0.059,-0.123 -0.111,-0.235 -0.172,-0.341 -0.375,-0.291 -0.817,-0.442 -1.198,-0.494 l -0.015,-0.006 0.001,0.004 c -0.111,-0.014 -0.217,-0.021 -0.313,-0.019 -0.017,0.003 -0.031,0.008 -0.045,0.011 -0.192,-0.081 -0.391,-0.142 -0.594,-0.186 0.051,-0.021 0.102,-0.039 0.153,-0.05 -0.209,-0.059 -0.437,-0.142 -0.694,-0.033 -0.041,-0.027 -0.096,-0.043 -0.171,-0.04 0.11,-0.09 0.224,-0.172 0.337,-0.258 -0.002,-0.034 -0.027,-0.063 -0.068,-0.086 -0.515,0.111 -0.234,0.063 -0.396,0.119 -0.121,0.064 -0.229,0.179 -0.278,0.267 -0.367,0.702 -1.07,1.109 -0.825,1.85 0.028,-10e-4 0.057,0.003 0.085,0.01 -0.028,0.123 -0.048,0.25 -0.05,0.394 -0.036,-0.054 -0.078,-0.088 -0.051,-0.126 -0.288,-0.021 -0.117,1.135 -0.42,0.57 -0.198,-0.347 0.177,-0.764 0.026,-1.012 -0.26,-0.233 -0.388,0.588 -0.364,0.921 0.001,0.156 -10e-4,0.546 0.152,0.49 -0.323,0.835 0.659,1.224 0.573,1.935 0.129,0.205 0.336,0.172 0.432,0.462 -0.06,0.002 -0.087,0.03 -0.092,0.074 -0.042,-0.014 -0.076,-0.017 -0.09,0.001 0.033,0.021 0.064,0.043 0.093,0.067 0.04,0.191 0.277,0.53 0.308,0.695 0.265,0.455 0.692,0.96 1.074,1.158 0.164,0.143 0.403,0.433 0.145,0.329 0.296,0.199 0.68,0.039 0.858,0.375 -0.381,-0.094 -0.412,-0.045 -0.656,-0.127 0.368,0.502 1.214,0.542 1.719,0.516 -0.001,0.011 0.023,0.019 0.051,0.027 0.788,-0.362 1.114,-0.905 1.169,-1.346 0.047,-0.022 0.094,-0.044 0.142,-0.068 0.081,-0.175 0.149,-0.355 0.205,-0.541 0.246,-0.22 0.482,-0.423 0.514,-0.169 0.014,0.013 0.033,0.004 0.062,-0.033 0.085,-0.088 0.085,-0.404 0.079,-0.437 0.011,0.002 0.03,-0.065 0.044,-0.097 -0.025,-0.176 -0.127,-0.049 -0.159,-0.054 0.143,-0.082 0.24,-0.526 0.158,-0.93 -0.197,-0.185 0.064,-0.583 -0.155,-0.723 0.044,-0.383 -0.254,-0.791 -0.31,-1.15 -0.101,-0.071 -0.164,-0.048 -0.268,-0.182 0.018,-0.147 -0.115,-0.374 -0.148,-0.504 -0.05,-0.048 -0.07,-0.039 -0.121,-0.087 m 0.194,-0.799 c -0.1,-0.065 -0.324,-0.342 -0.401,-0.285 0.209,0.196 0.26,0.418 0.415,0.646 0.116,0.095 0.079,-0.162 -0.014,-0.361 M 8.49,-8.644 c 0.232,0.195 0.283,0.419 0.425,0.653 C 9.033,-7.896 8.986,-8.148 8.91,-8.357 8.818,-8.428 8.556,-8.697 8.49,-8.644 m 3.355,-16.952 c 0.231,-0.466 -1.504,0.578 -2.217,0.845 -0.328,0.164 -1.203,0.416 -1.052,0.531 -1.788,0.073 -3.287,0.75 -5.318,0.726 -0.677,0.187 -0.789,0.377 -1.649,0.751 0.136,-0.4 -1.649,0.787 -2.135,1.298 -1.223,1.094 -1.573,3.231 -1.11,4.29 0.116,0.59 0.425,1.471 0.079,0.845 0.345,0.828 1.013,1.268 1.24,1.964 -0.614,-0.717 -0.66,-0.711 -1.011,-1.227 0.42,1.339 1.76,2.476 2.71,3.176 -0.008,0.006 0.031,0.045 0.077,0.09 1.667,0.826 3.172,0.953 3.973,0.772 0.284,0.071 0.568,0.128 0.848,0.164 0.773,-0.502 1.36,-0.707 1.861,-0.762 0.191,0.014 0.373,0.047 0.525,0.109 0.541,0.209 0.801,0.427 0.281,0.38 -0.026,0.012 0.002,0.034 0.1,0.073 0.208,0.105 1.133,0.266 1.255,0.253 -10e-4,0.009 0.213,0.047 0.322,0.053 0.551,-0.042 0.112,-0.126 0.118,-0.158 0.339,0.197 1.716,-0.107 2.7,-0.489 0.501,-0.332 1.484,-0.183 1.905,-0.339 0.335,-0.005 0.24,0.177 1.018,-0.025 0.348,-0.165 0.573,-0.344 0.82,-0.534 0.478,-0.377 0.915,-0.775 1.332,-1.09 0.171,-0.238 0.133,-0.284 0.454,-0.632 0.33,-0.197 0.85,-0.747 1.142,-0.992 0.118,-0.151 0.101,-0.167 0.216,-0.321 0.584,-0.365 1.347,-1.44 1.765,-2.417 0.085,-0.35 0.188,-0.692 0.253,-1.041 0.105,-0.366 0.251,-0.684 0.319,-1.009 0.152,-1.731 -0.458,-3.341 -1.345,-4.145 -0.021,-0.019 -0.041,-0.035 -0.061,-0.052 -0.355,-0.475 -0.806,-0.884 -1.353,-1.202 0.111,0.042 0.222,0.086 0.339,0.123 -0.541,-0.437 -1.238,-0.644 -1.921,-0.761 -0.072,-0.055 -0.139,-0.107 -0.195,-0.15 0.403,0.056 0.7,0.09 0.719,-0.013 -0.008,-0.136 -1.104,-0.397 -1.621,-0.31 -2.152,0.072 -4.048,0.482 -5.378,1.709 0.028,0.014 0.045,0.039 0.052,0.068 -0.311,0.169 -0.631,0.338 -0.981,0.528 0.095,-0.095 0.148,-0.173 0.254,-0.198 -0.126,-0.111 -2.871,1.169 -1.607,0.355 0.699,-0.494 1.857,-0.768 2.277,-1.236 m -8.833,1.826 c -1.616,0.146 -3.3,1.371 -4.033,2.405 0.163,-0.139 0.325,-0.275 0.502,-0.382 0.744,-0.71 1.623,-1.094 2.554,-1.503 0.715,-0.432 1.406,-0.371 0.977,-0.52 m -4.939,4.083 c 0.127,-0.257 0.349,-0.661 0.503,-1.024 -0.179,0.252 -0.363,0.513 -0.491,0.806 z m 24.737,-0.16 c -0.109,0.226 -0.152,0.467 -0.243,0.884 0.049,-0.066 0.109,-0.131 0.148,-0.202 0.067,-0.149 0.02,-0.356 0.095,-0.682 m 0.153,-1.164 c 0.011,-0.196 0.005,-0.393 0.006,-0.592 l -0.223,-0.202 0.017,0.661 c 0.038,0.848 0.181,-0.881 0.2,0.133 m -1.948,-3.898 0.247,0.224 c -0.143,-0.285 -0.452,-0.554 -0.689,-0.67 -0.17,0.031 0.325,0.334 0.442,0.446 m 0.942,0.079 c -0.436,-0.522 -1.468,-1.377 -1.801,-1.227 0.572,0.234 1.531,1.252 1.692,1.205 0.046,0.044 0.053,-0.021 0.109,0.022 m 0,0 c 0.051,0.059 0.095,0.117 0.127,0.167 -0.061,-0.1 -0.1,-0.146 -0.127,-0.167 m -2.139,-1.889 c -1.763,-0.48 -3.906,-0.896 -5.52,-0.1 1.926,-0.471 1.017,0.103 2.771,-0.043 -0.225,-0.122 0.662,-0.281 1.28,-0.13 0.571,0.167 1.268,0.376 1.743,0.629 0.32,0.181 0.397,-0.033 -0.274,-0.356 m -14.56,2.824 0.09,-0.079 c -0.381,0.012 -2.138,0.173 -1.247,0.297 0.49,-0.009 1.299,-0.102 1.157,-0.218 m -5.606,10.49 c -0.856,0.027 -1.343,0.469 -1.483,0.883 -0.043,0.009 -0.087,0.02 -0.13,0.032 -0.12,0.109 -0.225,0.245 -0.317,0.4 -0.279,0.129 -0.548,0.273 -0.533,0.031 -0.01,-0.014 -0.031,-0.01 -0.068,0.017 -0.107,0.067 -0.13,0.356 -0.144,0.385 -0.011,-0.004 -0.041,0.053 -0.062,0.079 -0.007,0.161 0.116,0.065 0.147,0.076 -0.154,0.049 -0.309,0.428 -0.291,0.793 0.161,0.191 -0.174,0.495 0.023,0.651 -0.12,0.324 0.087,0.725 0.059,1.044 0.073,0.079 0.143,0.071 0.211,0.204 -0.054,0.124 0.032,0.342 0.01,0.463 0.037,0.052 0.059,0.047 0.096,0.097 -0.083,0.225 -0.014,0.607 0.128,0.908 0.075,0.088 0.136,0.179 0.225,0.259 0.031,0.117 0.049,0.228 0.065,0.338 0.274,0.333 0.642,0.562 0.983,0.658 0.001,0 0.002,10e-4 0.003,0.002 v -0.002 c 0.097,0.027 0.192,0.045 0.28,0.05 0.015,-0.001 0.027,-0.005 0.041,-0.008 0.153,0.095 0.317,0.169 0.492,0.221 -0.043,0.015 -0.087,0.032 -0.134,0.047 0.204,0.098 0.421,0.099 0.633,0.086 0.023,0.039 0.046,0.075 0.067,0.106 -0.13,0.007 -0.225,0.029 -0.237,0.157 -0.001,0.136 0.382,0.124 0.547,0.06 0.716,-0.41 1.444,-0.538 1.429,-1.303 -0.026,-0.006 -0.053,-0.017 -0.08,-0.032 0.055,-0.105 0.101,-0.216 0.128,-0.346 0.027,0.059 0.063,0.1 0.026,0.129 0.296,0.081 0.298,-1.015 0.511,-0.446 0.137,0.361 -0.301,0.683 -0.232,0.951 0.194,0.298 0.53,-0.486 0.553,-0.812 C 2.618,-7.376 2.685,-7.747 2.52,-7.712 2.946,-8.464 2.008,-8.896 2.178,-9.519 2.074,-9.709 1.867,-9.69 1.811,-9.954 2.095,-9.947 1.728,-10.499 1.729,-10.712 1.552,-11.133 1.28,-11.615 1,-11.845 0.904,-11.999 0.786,-12.291 0.98,-12.16 c -0.186,-0.221 -0.568,-0.163 -0.584,-0.51 0.283,0.173 0.317,0.14 0.5,0.254 -0.128,-0.503 -0.764,-0.773 -1.21,-0.945 0.004,-0.01 -0.013,-0.027 -0.034,-0.044 m 2.327,2.462 -0.026,0.207 c 0.126,0.264 0.084,0.597 0.199,0.858 0.212,0.166 0.157,0.394 0.33,0.23 0.002,-0.436 -0.281,-1.01 -0.503,-1.295 m -0.15,-0.171 -0.042,-0.277 -0.082,-0.021 c -0.003,0.092 0.022,0.225 0.124,0.298 m -4.506,4.347 c 0.003,-0.09 -0.019,-0.166 -0.126,-0.266 l -0.034,0.099 c -0.003,0.06 0.109,0.073 0.16,0.167 m 0.186,0.33 0.106,0.166 0.216,-0.072 -0.13,-0.171 c -0.215,-0.19 0.033,0.328 -0.192,0.077 m 1.627,0.623 C -0.78,-5.923 -0.975,-5.91 -1.02,-5.935 l -0.119,0.003 c 0.068,0.074 0.175,0.149 0.275,0.118 m -0.686,0.358 c 0.238,0.08 0.655,0.255 0.794,0.035 -0.195,-0.039 -0.62,-0.223 -0.748,-0.073 -0.018,-0.001 -0.029,0.024 -0.046,0.038 m 0,0 c -0.031,-0.011 -0.06,-0.02 -0.085,-0.025 0.045,0.044 0.069,0.04 0.085,0.025 m 1.869,0.116 c 0.102,0.132 -0.195,0.262 -0.423,0.276 -0.205,-0.056 -0.458,-0.075 -0.646,-0.121 -0.133,-0.004 -0.175,0.159 0.095,0.227 C -0.298,-4.988 0.031,-5 0.4,-4.966 1.087,-5.13 1.226,-5.235 1.436,-5.568 0.805,-5.139 1.032,-5.642 0.319,-5.34 m 2,-3.94 c -0.002,0.155 0.093,0.408 0.208,0.349 l 0.08,0.023 C 2.585,-9.046 2.47,-9.591 2.319,-9.28 m 22.785,-4.762 0.005,-0.113 c -0.014,-0.065 -0.126,-0.057 -0.203,-0.146 0.024,0.095 0.065,0.172 0.198,0.259 m -0.502,-0.554 -0.144,-0.156 -0.199,0.116 c 0.066,0.044 0.117,0.103 0.175,0.156 0.259,0.163 -0.116,-0.342 0.168,-0.116 m -1.852,-0.38 c -0.076,0.118 0.14,0.081 0.192,0.1 l 0.131,-0.018 c -0.09,-0.063 -0.218,-0.125 -0.323,-0.082 m -0.162,-0.398 c 0.195,0.067 0.688,0.147 0.779,0 0.018,0 0.024,-0.026 0.037,-0.043 -0.241,-0.058 -0.705,-0.15 -0.816,0.043 m 0.816,-0.043 c 0.033,0.009 0.063,0.016 0.085,0.021 -0.049,-0.042 -0.07,-0.037 -0.085,-0.021 m -1.907,-0.116 0.093,-0.032 0.044,-0.02 0.011,-0.005 0.002,-10e-4 0.002,-0.001 c 0.274,-0.062 0.377,-0.086 0.408,-0.093 -0.007,0.001 -0.016,0.003 -0.024,0.005 l 0.005,0.002 0.022,0.005 0.175,0.03 c 0.117,0.013 0.233,0.018 0.328,0.036 0.136,-0.007 0.164,-0.172 -0.109,-0.219 -0.09,0.02 -0.178,0.031 -0.267,0.034 l -0.132,-0.002 H 22.047 22.043 22.041 22.04 c 0.098,-0.022 -0.852,0.194 -0.45,0.103 l -0.001,0.001 -0.015,0.01 -0.031,0.023 -0.063,0.042 c -0.173,0.108 -0.342,0.223 -0.503,0.352 -0.31,0.258 -0.577,0.58 -0.575,0.914 0.37,-0.634 0.474,-0.15 0.876,-0.67 -0.164,-0.027 -0.007,-0.371 0.219,-0.514 M 22,-15.672 c -0.003,0.001 -0.002,0 0,0 m 0.032,-0.008 v 0 c -0.013,0.004 -0.027,0.007 -0.032,0.008 0.004,-10e-4 0.014,-0.003 0.032,-0.008 m 0,0 h 0.001 z m -1.736,5.419 c -0.016,-0.172 -0.144,-0.442 -0.251,-0.369 l -0.082,-0.017 c 0.04,0.146 0.221,0.741 0.333,0.386 M 4.68,-2.663 c 0.299,0.428 0.792,0.891 1.216,1.026 0.177,0.131 0.501,0.35 0.208,0.307 0.352,0.138 0.691,-0.091 0.959,0.176 -0.403,0.011 -0.424,0.05 -0.695,0.032 0.511,0.429 1.386,0.224 1.833,0.047 0.003,0.011 0.028,0.012 0.059,0.013 0.613,-0.564 0.753,-1.156 0.679,-1.591 0.04,-0.032 0.078,-0.063 0.117,-0.097 0.034,-0.173 0.059,-0.355 0.079,-0.545 0.204,-0.253 0.406,-0.483 0.482,-0.247 0.017,0.011 0.033,0 0.057,-0.038 0.068,-0.093 0.012,-0.383 0.013,-0.414 0.011,0.001 0.022,-0.064 0.034,-0.095 C 9.678,-4.249 9.59,-4.121 9.557,-4.122 9.684,-4.213 9.744,-4.633 9.641,-5.007 9.445,-5.176 9.698,-5.558 9.477,-5.687 9.526,-6.052 9.247,-6.447 9.195,-6.795 9.101,-6.866 9.038,-6.847 8.944,-6.98 8.983,-7.126 8.826,-7.34 8.815,-7.474 8.769,-7.523 8.749,-7.515 8.703,-7.563 8.727,-7.819 8.544,-8.218 8.294,-8.506 8.196,-8.588 8.081,-8.655 7.964,-8.719 7.886,-8.831 7.831,-8.951 7.759,-9.054 7.323,-9.316 6.835,-9.36 6.456,-9.298 h -0.01 l 0.001,0.002 c -0.109,0.019 -0.21,0.045 -0.297,0.078 -0.014,0.01 -0.025,0.02 -0.039,0.03 C 5.957,-9.196 5.797,-9.193 5.629,-9.173 5.592,-9.157 5.557,-9.14 5.521,-9.123 5.547,-9.167 5.578,-9.212 5.629,-9.259 5.36,-9.203 5.181,-9.039 5.023,-8.871 4.979,-8.883 4.938,-8.893 4.901,-8.899 4.998,-9.001 5.057,-9.091 4.985,-9.174 4.88,-9.284 4.572,-9.007 4.502,-8.827 4.247,-8.112 3.552,-7.701 3.843,-6.991 3.87,-6.993 3.899,-6.99 3.929,-6.983 3.906,-6.864 3.892,-6.74 3.896,-6.604 3.856,-6.652 3.813,-6.683 3.839,-6.721 3.554,-6.729 3.776,-5.614 3.449,-6.148 3.233,-6.478 3.59,-6.899 3.425,-7.132 c -0.273,-0.217 -0.354,0.584 -0.319,0.91 0.012,0.15 0.02,0.533 0.175,0.47 -0.279,0.83 0.71,1.161 0.661,1.86 0.15,0.189 0.34,0.149 0.461,0.422 -0.288,0.03 0.2,0.582 0.277,0.807 M 3.664,-3.714 c 0.079,0.472 0.505,1.068 0.833,1.345 L 4.459,-2.601 C 4.248,-2.87 4.217,-3.241 4.041,-3.506 3.803,-3.662 3.799,-3.91 3.664,-3.714 M 4.95,-1.907 C 4.907,-2.004 4.846,-2.15 4.709,-2.208 l 0.145,0.295 z m 3.082,-7.197 c 0.035,0.096 0.088,0.169 0.235,0.25 L 8.26,-8.969 C 8.238,-9.033 8.122,-9.019 8.032,-9.104 M 7.673,-9.38 7.49,-9.52 7.315,-9.376 7.522,-9.242 c 0.302,0.131 -0.188,-0.33 0.151,-0.138 m -1.911,0.106 c -0.026,0.135 0.157,0.029 0.213,0.029 L 6.087,-9.306 C 5.983,-9.336 5.843,-9.351 5.762,-9.274 M 6.211,-9.905 C 6.244,-9.91 6.276,-9.916 6.306,-9.923 6.229,-9.954 6.217,-9.932 6.211,-9.905 m -0.018,0.043 c 0.014,-0.005 0.014,-0.026 0.018,-0.043 -0.264,0.037 -0.63,0.034 -0.862,0.384 0.435,-0.15 0.756,-0.127 0.844,-0.341 M 4.569,-9.319 C 4.799,-9.404 4.984,-9.607 5.174,-9.689 5.283,-9.775 5.198,-9.922 4.936,-9.79 4.481,-9.264 3.631,-8.791 3.651,-8.106 3.959,-8.733 4.112,-8.272 4.442,-8.802 4.271,-8.822 4.393,-9.148 4.569,-9.319 m -1.08,4.84 -0.084,-0.012 c 0.046,0.14 0.261,0.713 0.353,0.36 -0.03,-0.167 -0.159,-0.427 -0.269,-0.348 m 14.341,1.316 c -0.026,-0.092 -0.093,-0.22 -0.213,-0.27 l 0.125,0.268 z m 1.967,-6.847 -0.187,-0.095 -0.137,0.171 0.208,0.088 c 0.294,0.061 -0.222,-0.276 0.116,-0.164 m -1.724,0.354 c -0.017,0.137 0.144,0.008 0.195,0.018 l 0.1,-0.057 C 18.27,-9.729 18.141,-9.75 18.073,-9.656 m -0.28,-0.295 c 0.18,-0.032 0.61,-0.133 0.635,-0.3 0.016,-0.008 0.009,-0.039 0.017,-0.06 -0.226,0.039 -0.634,0.126 -0.652,0.36 m 0.652,-0.36 c 0.03,-0.004 0.056,-0.009 0.078,-0.012 -0.052,-0.016 -0.071,-0.005 -0.078,0.012 m -1.893,0.316 v 0 c 0.104,-0.12 -0.917,1.049 -0.485,0.554 l -0.001,0.001 -0.038,0.11 -0.062,0.223 c -0.02,0.144 -0.023,0.29 0.035,0.42 0.04,-0.297 0.147,-0.358 0.248,-0.412 0.051,-0.027 0.101,-0.052 0.143,-0.105 0.02,-0.025 0.04,-0.059 0.055,-0.102 l 0.012,-0.035 0.002,-0.002 v -10e-4 -0.001 c -0.226,0.257 0.307,-0.35 0.252,-0.288 l 0.005,-0.001 0.01,-0.003 0.019,-0.006 0.088,-0.032 c -0.121,-0.103 0.098,-0.301 0.279,-0.374 0.196,0.008 0.399,-0.095 0.573,-0.114 0.107,-0.047 0.067,-0.209 -0.169,-0.172 -0.261,0.176 -0.537,0.263 -0.853,0.316 l -0.057,0.012 -0.029,0.006 -0.015,0.004 -0.006,10e-4 -0.004,0.001 z m 0.045,4.528 c -0.005,-0.022 -0.007,-0.043 -0.012,-0.065 0.108,0.113 0.203,0.232 0.252,0.373 -0.069,-0.108 -0.156,-0.208 -0.24,-0.308 m -5.602,1.808 c 0.093,0.233 0.307,0.234 0.353,0.547 -0.286,-0.041 0.067,0.637 0.067,0.877 0.176,0.5 0.446,1.071 0.731,1.363 0.097,0.182 0.205,0.514 0.008,0.343 0.183,0.262 0.588,0.271 0.576,0.635 -0.28,-0.229 -0.318,-0.202 -0.501,-0.35 0.102,0.549 0.718,0.923 1.145,1.193 -0.007,0.008 0.009,0.028 0.027,0.05 0.875,0.168 1.544,-0.133 1.813,-0.503 0.053,0 0.105,-0.002 0.158,-0.006 0.207,-0.075 0.39,-0.177 0.553,-0.298 0.337,-0.047 0.657,-0.112 0.527,0.128 0.004,0.02 0.026,0.022 0.076,0.001 0.152,-0.036 0.31,-0.366 0.325,-0.399 0.009,0.005 0.061,-0.056 0.091,-0.083 0.069,-0.189 -0.091,-0.097 -0.119,-0.116 0.182,-0.02 0.461,-0.462 0.501,-0.908 -0.129,-0.244 0.242,-0.587 0.049,-0.786 0.147,-0.384 -0.063,-0.866 -0.037,-1.241 -0.082,-0.094 -0.148,-0.086 -0.219,-0.245 0.039,-0.11 0.002,-0.289 -0.017,-0.428 0.108,0.125 0.219,0.236 0.318,0.315 l -0.028,-0.215 c -0.191,-0.222 -0.227,-0.542 -0.384,-0.77 -0.016,-0.11 -0.042,-0.223 -0.076,-0.337 0.103,0.076 0.215,0.087 0.312,0.175 0.011,0.049 0.023,0.098 0.036,0.15 -0.134,0.112 0.267,0.519 0.324,0.709 0.284,0.38 0.706,0.8 1.071,0.943 0.154,0.12 0.388,0.371 0.144,0.302 0.281,0.159 0.627,-0.035 0.801,0.284 -0.349,-0.065 -0.379,-0.01 -0.606,-0.066 0.356,0.451 1.133,0.436 1.599,0.387 0,0.011 0.024,0.019 0.05,0.026 0.707,-0.404 0.964,-0.939 0.968,-1.372 0.175,-0.095 0.352,-0.209 0.531,-0.347 0.012,-0.295 0.006,-0.6 -0.016,-0.907 0.16,-0.264 0.327,-0.503 0.439,-0.299 0.018,0.007 0.033,-0.006 0.05,-0.044 0.043,-0.093 -0.049,-0.353 -0.053,-0.381 0.011,-0.001 0.014,-0.062 0.021,-0.092 -0.065,-0.141 -0.135,-0.012 -0.167,-0.008 0.115,-0.101 0.106,-0.498 -0.04,-0.831 -0.221,-0.127 -0.021,-0.521 -0.253,-0.609 -0.007,-0.349 -0.337,-0.672 -0.437,-0.989 -0.099,-0.052 -0.155,-0.024 -0.275,-0.127 10e-4,-0.138 -0.162,-0.321 -0.198,-0.443 -0.056,-0.035 -0.074,-0.022 -0.13,-0.056 -0.007,-0.207 -0.182,-0.466 -0.399,-0.677 -0.043,-0.155 -0.084,-0.311 -0.157,-0.443 -0.24,-0.173 -0.212,-0.428 -0.364,-0.236 0,0.006 0.002,0.013 0.003,0.019 -0.005,-0.003 -0.01,-0.003 -0.014,-0.006 0.005,0.01 0.012,0.017 0.017,0.027 0.02,0.132 0.062,0.272 0.12,0.414 C 20.273,-9.4 20.238,-9.411 20.205,-9.423 20.114,-9.514 20.044,-9.618 19.96,-9.7 c -0.445,-0.131 -0.88,-0.136 -1.221,-0.031 -0.014,10e-4 -0.028,0.002 -0.042,0.002 0.003,0.003 0.006,0.006 0.01,0.009 -0.093,0.032 -0.18,0.069 -0.255,0.116 -0.009,0.005 -0.015,0.013 -0.024,0.019 -0.182,0.001 -0.37,0.017 -0.567,0.052 l 0.092,-0.091 c -0.231,0.011 -0.426,0.075 -0.619,0.157 -0.033,-0.028 -0.065,-0.054 -0.092,-0.079 0.114,-0.037 0.186,-0.073 0.157,-0.212 -0.051,-0.126 -0.377,-0.009 -0.505,0.096 l -0.106,0.077 -0.026,0.017 -0.013,0.007 -0.002,10e-4 -0.001,0.001 c -0.091,0.105 0.204,-0.232 -0.204,0.234 v 10e-4 0.003 l -0.001,0.008 -0.003,0.062 -0.044,0.23 c -0.03,0.148 -0.092,0.288 -0.128,0.428 -0.089,0.28 -0.124,0.567 0.086,0.836 0.027,-0.007 0.056,-0.009 0.087,-0.008 0.002,0.111 0.009,0.225 0.035,0.348 -0.047,-0.038 -0.095,-0.061 -0.074,-0.099 -0.283,0.039 0.099,1.005 -0.302,0.573 -0.249,-0.262 0.023,-0.688 -0.181,-0.865 -0.197,-0.089 -0.239,0.167 -0.225,0.439 -0.215,-0.148 -0.563,-0.419 -0.768,-0.277 0.195,0.122 0.573,0.431 0.736,0.316 0.011,0.005 0.022,-0.003 0.034,-0.013 0.009,0.144 0.031,0.288 0.055,0.386 0.038,0.129 0.086,0.471 0.231,0.394 -0.015,0.063 -0.02,0.122 -0.02,0.178 -0.16,-0.144 -0.326,-0.266 -0.49,-0.361 -0.002,-0.002 -0.004,-0.003 -0.005,-0.005 v 0.002 C 15.468,-6.805 15.37,-6.853 15.274,-6.889 15.259,-6.892 15.244,-6.893 15.229,-6.896 15.078,-7.053 14.92,-7.19 14.757,-7.308 l 0.152,0.008 c -0.172,-0.179 -0.416,-0.279 -0.661,-0.341 -0.012,-0.043 -0.024,-0.085 -0.037,-0.123 0.165,0.033 0.293,0.05 0.312,-0.053 -0.019,-0.102 -0.238,-0.35 -0.739,-0.225 -0.68,0.359 -1.626,0.281 -1.825,1.135 0.024,0.011 0.048,0.029 0.07,0.049 -0.091,0.107 -0.172,0.225 -0.237,0.37 -0.01,-0.072 -0.034,-0.125 0.014,-0.153 -0.295,-0.147 -0.56,1.131 -0.635,0.442 -0.051,-0.442 0.49,-0.749 0.514,-1.046 -0.1,-0.365 -0.706,0.449 -0.8,0.84 -0.061,0.172 -0.203,0.601 -0.029,0.581 -0.565,0.842 0.345,1.459 0.139,2.165 m -0.312,0.116 c -0.024,0.507 0.25,1.192 0.473,1.538 l 0.029,-0.228 C 11.063,-2.55 11.113,-2.925 11.005,-3.24 10.799,-3.455 10.864,-3.713 10.683,-3.543 m 0.62,1.749 0.039,0.312 0.084,0.035 c 0.005,-0.102 -0.014,-0.255 -0.123,-0.347 m 3.724,-5.425 c -0.119,0.076 0.096,0.138 0.136,0.179 L 15.289,-7 c -0.056,-0.099 -0.147,-0.212 -0.262,-0.219 m -0.87,-1.218 v 0 c 0.27,0.011 -0.367,-0.014 -0.303,-0.011 h -10e-4 l -0.009,0.001 -0.018,0.002 -0.071,0.007 -0.143,0.012 c -0.378,0.021 -0.789,0.136 -1.024,0.408 0.722,-0.314 0.499,0.159 1.132,-0.042 -0.055,-0.059 -0.01,-0.132 0.083,-0.2 0.574,-0.08 0.407,-0.008 0.635,0.018 0.225,0.149 0.49,0.24 0.655,0.367 0.133,0.055 0.223,-0.088 -0.022,-0.254 -0.178,-0.048 -0.371,-0.105 -0.574,-0.173 l -0.296,-0.117 -0.037,-0.015 -0.005,-0.002 z m -3.292,4.484 c 0.016,-0.182 -0.062,-0.487 -0.18,-0.432 L 10.606,-4.42 c 0.01,0.164 0.09,0.814 0.259,0.467"
         style="fill:#000000;fill-opacity:1;fill-rule:nonzero;stroke:none"
         id="path417"
         inkscape:connector-curvature="0" />
    </g>
  </g>
</svg>
