<?xml version="1.0" encoding="UTF-8" standalone="no"?>
<!-- Created with Inkscape (http://www.inkscape.org/) -->

<svg
   xmlns:dc="http://purl.org/dc/elements/1.1/"
   xmlns:cc="http://creativecommons.org/ns#"
   xmlns:rdf="http://www.w3.org/1999/02/22-rdf-syntax-ns#"
   xmlns:svg="http://www.w3.org/2000/svg"
   xmlns="http://www.w3.org/2000/svg"
   xmlns:sodipodi="http://sodipodi.sourceforge.net/DTD/sodipodi-0.dtd"
   xmlns:inkscape="http://www.inkscape.org/namespaces/inkscape"
   width="210mm"
   height="297mm"
   viewBox="0 0 210 297"
   version="1.1"
   id="svg291"
   inkscape:export-filename="/home/david/projects/thefortyfive/paw.svg.png"
   inkscape:export-xdpi="500"
   inkscape:export-ydpi="500"
   inkscape:version="0.92.4 5da689c313, 2019-01-14"
   sodipodi:docname="paw_simplified2.svg">
  <defs
     id="defs285" />
  <sodipodi:namedview
     id="base"
     pagecolor="#ffffff"
     bordercolor="#666666"
     borderopacity="1.0"
     inkscape:pageopacity="0.0"
     inkscape:pageshadow="2"
     inkscape:zoom="2.8"
     inkscape:cx="196.65773"
     inkscape:cy="85.625257"
     inkscape:document-units="mm"
     inkscape:current-layer="layer1"
     showgrid="false"
     inkscape:window-width="1440"
     inkscape:window-height="853"
     inkscape:window-x="0"
     inkscape:window-y="26"
     inkscape:window-maximized="0" />
  <metadata
     id="metadata288">
    <rdf:RDF>
      <cc:Work
         rdf:about="">
        <dc:format>image/svg+xml</dc:format>
        <dc:type
           rdf:resource="http://purl.org/dc/dcmitype/StillImage" />
        <dc:title></dc:title>
      </cc:Work>
    </rdf:RDF>
  </metadata>
  <g
     inkscape:label="Layer 1"
     inkscape:groupmode="layer"
     id="layer1">
    <g
       id="g415"
       transform="matrix(0.64191237,0,0,-0.64191237,2.0634975,279.82826)"
       style="fill:#000000"
       inkscape:export-xdpi="500"
       inkscape:export-ydpi="500">
      <path
         style="fill:#000000;fill-opacity:1;fill-rule:nonzero;stroke:none"
         d="M -0.355,-1.202 C 0.20553156,0.12965194 1.5326012,4.1817474 2.576481,2.8643018 2.8925106,1.129547 1.9987938,-0.51629532 1.565402,-2.142753 1.6142695,-3.4596095 -0.3920309,-5.3526507 -0.88645558,-3.4679565 -0.82222961,-2.6878867 -0.41352593,-1.9822474 -0.355,-1.202 Z m 0.578,1.364 c -0.1342239,-0.4852112 -0.0373709,0.22074709 0,0 z m 26.605518,2.0007292 c 1.10724,-1.21849354 0.918079,-2.88782982 0.74808,-4.3864279 C 27.47254,-3.6608635 27.263067,-6.24599 26.416734,-6.3257299 24.908863,-6.4469919 24.444841,-4.2928061 24.888,-3.108 c 1.025787,2.15139695 1.003178,6.9708653 1.940518,5.2707292 z M 25.307,-1.894 c -0.117964,-0.5080353 -0.04359,0.228369 0,0 z M 7.073,2.059 C 7.9067565,3.8581782 10.045885,8.3323414 10.901785,8.3875948 11.919363,7.8005038 9.7710855,5.5064007 9.9026108,3.9868986 9.6379217,2.4083072 9.3702923,0.19358223 8.5979033,-0.61964861 6.6815758,-1.7431105 6.5689337,0.78589541 7.073,2.059 Z M 21.052,1.064 c 1.155283,2.1663179 1.497851,5.7141879 2.716614,4.5756975 1.04248,-1.2840443 0.281927,-3.0312259 0.0241,-4.4711349 C 23.339708,0.08762224 22.419102,-2.8207571 21.051883,-1.0151647 20.682178,-0.34259313 21.032118,0.36703269 21.052,1.064 Z m 0.52,1.22 c 0.145552,0.5710137 0.06379,-0.1271731 0,0 z m -7.152,1.63 c 0.254958,0.5332662 1.353664,2.9655671 1.53676,3.3438105 0.402563,0.9914652 2.507269,1.8750571 1.599674,-0.2332076 C 17.494853,6.6046838 16.81529,4.5157119 16.614445,3.149485 16.765405,1.3401408 13.192787,0.53217791 14.116305,2.8025966 14.222938,3.1729505 14.39047,3.5252165 14.42,3.914 Z m 0.537,1.134 c 0.149084,0.535057 0.06025,-0.1259965 0,0 z M 25.525,-12.75 c -0.294468,-1.505008 -1.787546,-2.013044 -3.073988,-2.266467 -0.773735,-0.135075 -0.788589,-0.03878 -1.342918,0.292121 -0.991415,0.845332 -0.678764,4.229142 -0.678764,4.229142 0.155569,0.9194521 1.194871,2.7887988 2.540748,3.6022352 0.467237,0.5838093 2.741478,0.4636613 2.637834,-0.9576565 C 27.17055,-9.1649964 26.525236,-11.303337 25.525,-12.75 Z M 6.6739169,-24.344137 c -2.609035,0.28215 -5.3471525,1.038392 -7.29273223,2.992504 -1.53276887,1.369539 -1.28946617,3.549151 -0.79516127,5.335203 0.331524,0.408126 0.42778947,2.72849 3.3589244,3.919523 1.8466899,0.875672 4.0120619,0.77872 5.9033107,0.1144 1.2389563,-0.255011 2.0985778,1.198515 3.5755085,0.584244 1.609331,-0.467932 3.21908,-0.794061 4.897636,-0.944804 1.642114,-0.671662 2.631452,-2.29211 3.983228,-3.377814 1.261417,-1.141412 1.959942,-2.704122 2.2866,-4.339109 0.482651,-2.189481 -0.780542,-4.400509 -2.56302,-5.614648 -0.558191,-0.469834 -1.699093,-1.028941 -1.699093,-1.028941 -2.410566,-0.375563 -3.812699,1.59306 -6.403903,2.04556 -5.0431158,0.57411 -2.318604,0.06483 -5.2512981,0.313882 z m -7.20407637,11.017205 c -1.03959163,-0.568234 -2.63063553,1.327305 -2.68444983,2.729061 0.030558,1.4152474 0.1576953,3.0302964 1.1781594,4.1200703 0.8486697,0.5386817 1.85155295,0.9279471 2.33997403,1.08891 C 1.4897036,-5.2795157 1.9244348,-6.2903194 2.1935033,-6.4500715 3.4209301,-7.4580553 2.0062326,-9.0979437 1.843264,-10.43906 1.3144634,-11.661314 0.66169895,-12.811843 -0.53015947,-13.326932 Z M 4.68,-2.663 c 1.0888149,1.0761891 2.06463,2.16760205 3.541078,1.5448559 C 9.2897817,-1.8229389 9.4300525,-3.6206704 9.5607175,-4.6376678 9.4792265,-6.262527 8.8893925,-7.7958595 7.7875141,-9.0069668 6.621189,-9.474795 4.4159886,-9.4895732 4.0522105,-7.9915582 3.2723375,-6.0313338 2.5857121,-5.6926654 4.3023786,-3.2625136 4.4136761,-3.0494395 4.5509655,-2.8671894 4.68,-2.663 Z m 6.315,-0.996 c 0.377249,1.142212 1.028576,2.95311007 1.462425,3.57766086 0.0673,1.50839354 2.702909,1.13002894 3.710372,0.23976101 2.037636,-0.3900303 0.65452,-6.42346367 1.342684,-4.19160937 0.873605,0.9949178 1.712751,2.1291992 3.027255,2.0020394 1.451085,-0.4944128 1.900645,-2.5819592 1.934438,-3.9265081 -0.472776,-1.7053254 -2.948253,-5.2501408 -4.268668,-3.6337612 -1.11262,-0.3560704 -1.933627,0.095115 -1.906631,1.4205424 -0.443803,1.5078058 -1.16819,1.2270492 -1.303295,1.0164108 -0.834127,-0.6006512 -0.459358,-1.103485 -1.813734,-0.7369239 -1.697267,1.2002811 -2.321425,1.4465911 -2.289741,3.6295582 0.03711,0.2005574 0.07433,0.4011417 0.104895,0.6028299 z"
         id="path417"
         inkscape:connector-curvature="0"
         sodipodi:nodetypes="cccccccccccccccccccccccccccccccccccccccccccccccccccccccccccccccccccccccccccccccc" />
    </g>
  </g>
</svg>
